<?xml version="1.0" standalone="no"?>
<!DOCTYPE svg PUBLIC "-//W3C//DTD SVG 1.1//EN" "http://www.w3.org/Graphics/SVG/1.1/DTD/svg11.dtd">
<svg xmlns="http://www.w3.org/2000/svg">
<defs >
<font id="ChakraPetch" horiz-adv-x="555" ><font-face
    font-family="Chakra Petch Medium"
    units-per-em="1000"
    panose-1="0 0 6 0 0 0 0 0 0 0"
    ascent="992"
    descent="-308"
    alphabetic="0" />
<glyph unicode=" " glyph-name="space" horiz-adv-x="253" />
<glyph unicode="!" glyph-name="exclam" horiz-adv-x="254" d="M135 566L159 700H255L231 566L147 175H81L135 566ZM32 32L40 79L78 111H127L154 79L146 32L108 0H58L32 32Z" />
<glyph unicode="&quot;" glyph-name="quotedbl" horiz-adv-x="380" d="M120 586L140 700H236L216 586L177 453H113L120 586ZM284 586L304 700H400L380 586L341 453H277L284 586Z" />
<glyph unicode="#" glyph-name="numbersign" horiz-adv-x="697" d="M558 433L502 271H630L616 191H474L408 0H316L383 191H235L169 0H77L144 191H40L54 271H171L228 433H102L117 513H256L321 700H412L347 513H495L560 700H651L586 513H693L679 433H558ZM467 433H319L263
271H410L467 433Z" />
<glyph unicode="$" glyph-name="dollar" horiz-adv-x="621" d="M514 526L522 572L485 616H426L388 400H491L575 299L538 90L432 0H317L298 -110H213L232 0H120L35 103L47 173H142L134 128L169 84H247L288 316H176L92 418L126 609L233 700H356L375 810H460L441
700H534L620 597L608 526H514ZM341 616H266L214 572L192 444L228 400H303L341 616ZM373 316L332 84H398L451 129L476 273L439 316H373Z" />
<glyph unicode="%" glyph-name="percent" horiz-adv-x="842" d="M78 407L118 636L193 700H358L416 630L375 395L301 332H140L78 407ZM646 700H743L235 0H137L646 700ZM267 404L299 431L329 601L306 628H227L195 601L165 431L188 404H267ZM462 75L502 304L577 368H742L800
298L759 63L685 0H524L462 75ZM651 72L683 99L713 269L690 296H611L579 269L549 99L572 72H651Z" />
<glyph unicode="&amp;" glyph-name="ampersand" horiz-adv-x="646" d="M34 103L68 293L149 363L116 403L152 609L259 700H511L594 599L583 537H490L496 573L461 616H289L239 573L214 431L250 386H492L504 451H596L584 386H650L636 304H571L533 89L428 0H119L34
103ZM395 84L447 129L478 304H207L155 260L132 128L169 84H395Z" />
<glyph unicode="&apos;" glyph-name="quotesingle" horiz-adv-x="216" d="M120 586L140 700H236L216 586L177 453H113L120 586Z" />
<glyph unicode="(" glyph-name="parenleft" horiz-adv-x="322" d="M30 -7L158 718L273 816H400L386 734H308L245 681L128 18L172 -35H250L236 -117H121L30 -7Z" />
<glyph unicode=")" glyph-name="parenright" horiz-adv-x="322" d="M328 706L200 -19L85 -117H-42L-28 -35H50L113 18L230 681L186 734H108L122 816H237L328 706Z" />
<glyph unicode="*" glyph-name="asterisk" horiz-adv-x="343" d="M199 542L124 489L102 546L189 579L114 613L156 669L212 617L218 701H285L258 617L336 669L357 613L270 579L345 546L304 489L245 542L242 458H175L199 542Z" />
<glyph unicode="+" glyph-name="plus" horiz-adv-x="548" d="M494 223H316L287 56H194L223 223H46L60 305H238L267 472H360L331 305H508L494 223Z" />
<glyph unicode="," glyph-name="comma" horiz-adv-x="217" d="M53 0H37L9 34L18 84L58 118H112L140 84L125 0L50 -127H-3L53 0Z" />
<glyph unicode="-" glyph-name="hyphen" horiz-adv-x="412" d="M58 296H370L356 214H44L58 296Z" />
<glyph unicode="." glyph-name="period" horiz-adv-x="217" d="M10 34L19 84L59 118H112L140 84L131 34L92 0H38L10 34Z" />
<glyph unicode="/" glyph-name="slash" horiz-adv-x="484" d="M467 701H564L53 0H-44L467 701Z" />
<glyph unicode="0" glyph-name="zero" horiz-adv-x="636" d="M41 111L127 601L243 700H538L631 588L544 96L431 0H132L41 111ZM392 84L455 137L530 563L486 616H279L217 563L141 137L185 84H392Z" />
<glyph unicode="1" glyph-name="one" horiz-adv-x="366" d="M252 600L83 520L98 608L283 700H366L242 0H146L252 600Z" />
<glyph unicode="2" glyph-name="two" horiz-adv-x="558" d="M31 140L456 491L470 572L433 616H251L199 572L188 513H92L109 609L217 700H484L570 597L546 459L126 116L120 83H484L469 0H6L31 140Z" />
<glyph unicode="3" glyph-name="three" horiz-adv-x="587" d="M20 103L34 186H130L119 128L156 84H357L409 128L434 267L399 310H199L214 394H414L464 437L488 572L451 616H256L204 572L194 514H98L114 609L222 700H502L588 597L554 407L487 350L534 293L499 89L394
0H105L20 103Z" />
<glyph unicode="4" glyph-name="four" horiz-adv-x="563" d="M342 139H0L22 263L402 700H537L453 223H538L523 139H438L414 0H318L342 139ZM359 220L427 607H422L114 251L109 220H359Z" />
<glyph unicode="5" glyph-name="five" horiz-adv-x="590" d="M29 103L44 187H140L129 128L166 84H365L417 128L450 314L413 357H84L144 700H600L585 617H223L192 441H463L550 337L506 89L402 0H114L29 103Z" />
<glyph unicode="6" glyph-name="six" horiz-adv-x="606" d="M39 103L128 609L235 700H521L608 596L594 517H498L508 572L470 616H270L218 572L180 359L267 432H479L565 329L523 89L418 0H124L39 103ZM381 84L433 128L465 304L427 348H270L162 256L139 128L177 84H381Z" />
<glyph unicode="7" glyph-name="seven" horiz-adv-x="506" d="M433 588L437 616H80L95 700H550L530 583L151 0H50L433 588Z" />
<glyph unicode="8" glyph-name="eight" horiz-adv-x="622" d="M34 103L69 299L143 362L100 415L133 609L241 700H528L613 597L580 409L517 356L569 293L534 89L428 0H120L34 103ZM437 397L490 441L513 572L475 616H276L223 572L200 441L237 397H437ZM392 84L444
128L469 270L433 315H213L160 270L135 128L172 84H392Z" />
<glyph unicode="9" glyph-name="nine" horiz-adv-x="611" d="M44 103L58 179H154L144 128L182 84H376L428 128L464 330L386 264H163L81 364L123 609L230 700H521L607 597L518 89L413 0H129L44 103ZM385 348L482 430L507 572L469 616H265L213 572L182 392L219 348H385Z" />
<glyph unicode=":" glyph-name="colon" horiz-adv-x="215" d="M71 376L79 426L118 459H171L197 425L189 376L151 343H98L71 376ZM11 33L19 83L58 116H110L137 83L129 33L90 0H38L11 33Z" />
<glyph unicode=";" glyph-name="semicolon" horiz-adv-x="215" d="M70 376L78 426L117 459H170L197 425L188 376L149 343H96L70 376ZM51 0H36L9 34L17 84L57 118H111L138 84L123 0L49 -127H-4L51 0Z" />
<glyph unicode="&lt;" glyph-name="less" horiz-adv-x="598" d="M588 474L147 280L146 274L519 89L504 0L37 235L54 329L605 572L588 474Z" />
<glyph unicode="=" glyph-name="equal" horiz-adv-x="548" d="M75 391H523L509 309H61L75 391ZM44 219H492L478 137H30L44 219Z" />
<glyph unicode="&gt;" glyph-name="greater" horiz-adv-x="598" d="M23 98L464 292L465 298L92 483L107 572L574 337L557 243L6 0L23 98Z" />
<glyph unicode="?" glyph-name="question" horiz-adv-x="542" d="M229 314L439 488L451 556L399 617H252L184 560L176 513H82L96 595L221 700H449L550 579L529 461L316 285L296 171H204L229 314ZM168 32L176 79L214 111H264L290 79L282 32L245 0H195L168 32Z" />
<glyph unicode="@" glyph-name="at" horiz-adv-x="819" d="M485 150L488 173L411 108H298L218 205L250 385L351 471H485L528 419L537 469H611L582 304L561 183H617L681 237L712 413L588 563H346L165 409L124 178L249 26H654L640 -52H200L33 150L85 449L311 641H635L802
439L761 205L647 108H519L485 150ZM488 248L505 347L465 395H379L332 356L309 225L342 184H412L488 248Z" />
<glyph unicode="A" glyph-name="A" horiz-adv-x="629" d="M345 700H441L570 0H473L442 178H166L72 0H-29L345 700ZM431 259L376 586H374L204 259H431Z" />
<glyph unicode="B" glyph-name="B" horiz-adv-x="654" d="M155 700H557L640 600L606 409L551 362L615 284L581 92L473 0H32L155 700ZM465 392L518 437L542 574L505 618H235L195 392H465ZM433 82L495 134L517 260L474 313H181L140 82H433Z" />
<glyph unicode="C" glyph-name="C" horiz-adv-x="639" d="M42 118L127 594L250 700H562L658 584L645 513H549L557 558L509 616H288L215 554L143 146L195 84H415L484 142L492 187H588L572 102L452 0H139L42 118Z" />
<glyph unicode="D" glyph-name="D" horiz-adv-x="672" d="M155 700H567L665 581L581 102L461 0H32L155 700ZM419 84L492 146L564 554L513 616H236L143 84H419Z" />
<glyph unicode="E" glyph-name="E" horiz-adv-x="590" d="M155 700H624L609 616H236L197 393H542L527 310H183L143 84H516L501 0H32L155 700Z" />
<glyph unicode="F" glyph-name="F" horiz-adv-x="560" d="M155 700H615L600 616H236L196 384H511L497 300H181L128 0H32L155 700Z" />
<glyph unicode="G" glyph-name="G" horiz-adv-x="660" d="M42 118L126 594L249 700H569L664 586L651 513H555L563 558L515 616H288L215 554L142 146L194 84H420L491 145L517 289H362L377 373H626L579 103L457 0H140L42 118Z" />
<glyph unicode="H" glyph-name="H" horiz-adv-x="682" d="M155 700H251L197 391H536L590 700H686L563 0H467L521 307H182L128 0H32L155 700Z" />
<glyph unicode="I" glyph-name="I" horiz-adv-x="256" d="M160 700H256L132 0H36L160 700Z" />
<glyph unicode="J" glyph-name="J" horiz-adv-x="564" d="M8 119L26 223H119L105 146L157 84H315L378 137L477 700H573L467 96L354 0H106L8 119Z" />
<glyph unicode="K" glyph-name="K" horiz-adv-x="628" d="M155 700H251L197 391H334L565 700H677L415 351L569 0H468L333 307H182L128 0H32L155 700Z" />
<glyph unicode="L" glyph-name="L" horiz-adv-x="545" d="M155 700H251L143 83H496L481 0H32L155 700Z" />
<glyph unicode="M" glyph-name="M" horiz-adv-x="785" d="M155 700H249L379 188H381L690 700H790L666 0H574L665 511H663L397 79H329L216 511H214L124 0H32L155 700Z" />
<glyph unicode="N" glyph-name="N" horiz-adv-x="681" d="M155 700H245L497 158H499L594 700H686L562 0H472L222 542H220L124 0H32L155 700Z" />
<glyph unicode="O" glyph-name="O" horiz-adv-x="684" d="M42 118L126 594L250 700H580L678 582L593 102L472 0H139L42 118ZM431 84L504 146L576 554L525 616H288L215 554L142 146L194 84H431Z" />
<glyph unicode="P" glyph-name="P" horiz-adv-x="630" d="M155 700H561L646 597L605 363L499 273H176L128 0H32L155 700ZM463 355L516 399L547 574L510 618H237L191 355H463Z" />
<glyph unicode="Q" glyph-name="Q" horiz-adv-x="684" d="M593 102L513 34L590 -60L522 -119L422 0H139L42 118L126 594L250 700H580L678 582L593 102ZM576 554L525 616H288L215 554L142 146L194 84H431L504 146L576 554Z" />
<glyph unicode="R" glyph-name="R" horiz-adv-x="659" d="M608 382L520 306L584 220L545 0H449L485 202L423 285H178L128 0H32L155 700H561L646 597L608 382ZM547 574L510 618H237L192 367H466L519 411L547 574Z" />
<glyph unicode="S" glyph-name="S" horiz-adv-x="621" d="M35 103L47 173H142L134 128L169 84H398L451 129L476 273L439 316H176L92 418L126 609L233 700H534L620 597L608 526H514L522 572L485 616H266L214 572L192 444L228 400H491L575 299L538 90L432 0H120L35 103Z" />
<glyph unicode="T" glyph-name="T" horiz-adv-x="568" d="M301 617H90L105 700H623L608 617H397L288 0H192L301 617Z" />
<glyph unicode="U" glyph-name="U" horiz-adv-x="684" d="M53 119L155 700H251L153 146L205 84H421L494 146L593 700H689L583 105L460 0H151L53 119Z" />
<glyph unicode="V" glyph-name="V" horiz-adv-x="634" d="M100 700H195L288 115H290L590 700H694L323 0H225L100 700Z" />
<glyph unicode="W" glyph-name="W" horiz-adv-x="868" d="M115 700H210L215 141H218L474 700H558L613 141H615L815 700H913L648 0H551L494 559H491L231 0H134L115 700Z" />
<glyph unicode="X" glyph-name="X" horiz-adv-x="620" d="M276 360L104 700H206L338 436L561 700H674L383 356L561 0H459L321 280L84 0H-29L276 360Z" />
<glyph unicode="Y" glyph-name="Y" horiz-adv-x="606" d="M263 290L90 700H188L318 378H320L565 700H676L359 290L308 0H212L263 290Z" />
<glyph unicode="Z" glyph-name="Z" horiz-adv-x="576" d="M16 86L488 617V619H120L134 700H610L595 614L123 83V81H501L487 0H1L16 86Z" />
<glyph unicode="[" glyph-name="bracketleft" horiz-adv-x="321" d="M175 816H399L384 735H253L117 -36H248L234 -117H10L175 816Z" />
<glyph unicode="\" glyph-name="backslash" horiz-adv-x="499" d="M80 700H178L455 0H358L80 700Z" />
<glyph unicode="]" glyph-name="bracketright" horiz-adv-x="321" d="M181 -117H-43L-28 -36H102L238 735H108L122 816H346L181 -117Z" />
<glyph unicode="^" glyph-name="asciicircum" horiz-adv-x="643" d="M351 700H449L593 249H503L391 603H385L152 249H50L351 700Z" />
<glyph unicode="_" glyph-name="underscore" horiz-adv-x="442" d="M-46 -10H396L382 -90H-60L-46 -10Z" />
<glyph unicode="`" glyph-name="grave" horiz-adv-x="240" d="M114 716H217L264 555H178L114 716Z" />
<glyph unicode="a" glyph-name="a" horiz-adv-x="559" d="M27 89L48 211L146 293H409L423 377L388 420H225L173 377L167 340H74L86 404L196 498H437L520 397L450 0H363L377 82L277 0H101L27 89ZM277 77L387 167L396 219H177L136 184L123 111L152 77H277Z" />
<glyph unicode="b" glyph-name="b" horiz-adv-x="585" d="M44 101L152 714H245L192 410L297 498H468L551 397L497 86L396 0H127L44 101ZM357 81L411 127L454 371L416 417H302L174 308L142 127L180 81H357Z" />
<glyph unicode="c" glyph-name="c" horiz-adv-x="542" d="M33 99L88 411L191 498H444L527 396L516 331H423L430 372L393 417H228L175 372L131 126L168 81H334L387 126L394 167H488L473 88L370 0H114L33 99Z" />
<glyph unicode="d" glyph-name="d" horiz-adv-x="587" d="M33 99L88 409L192 498H391L456 431L506 714H599L473 0H384L399 86L298 0H115L33 99ZM297 81L412 179L440 340L367 417H230L175 371L132 127L169 81H297Z" />
<glyph unicode="e" glyph-name="e" horiz-adv-x="568" d="M34 99L88 410L192 498H456L539 397L508 220H149L132 124L168 80H347L398 123L404 157H497L484 87L382 0H115L34 99ZM428 293L442 374L406 418H229L176 374L162 293H428Z" />
<glyph unicode="f" glyph-name="f" horiz-adv-x="384" d="M144 418H54L69 498H159L178 610L281 697H443L429 618H312L266 579L252 498H408L393 418H238L164 0H71L144 418Z" />
<glyph unicode="g" glyph-name="g" horiz-adv-x="587" d="M561 498L451 -129L344 -219H89L16 -131L26 -74H119L113 -108L138 -138H310L363 -94L393 77L296 0H115L33 99L88 409L192 498H388L458 414L473 498H561ZM437 327L361 417H230L175 371L132 127L169 81H298L411
174L437 327Z" />
<glyph unicode="h" glyph-name="h" horiz-adv-x="578" d="M155 714H248L190 405L300 498H453L539 395L469 0H376L442 372L404 417H308L172 301L119 0H26L155 714Z" />
<glyph unicode="i" glyph-name="i" horiz-adv-x="253" d="M129 609L138 659L179 695H232L261 659L252 607L212 573H158L129 609ZM124 498H218L130 0H36L124 498Z" />
<glyph unicode="j" glyph-name="j" horiz-adv-x="268" d="M144 609L153 659L194 695H246L276 659L267 607L226 573H173L144 609ZM-122 -137H-17L35 -92L139 498H232L122 -128L16 -218H-137L-122 -137Z" />
<glyph unicode="k" glyph-name="k" horiz-adv-x="538" d="M154 714H248L172 300H273L448 498H557L347 258L479 0H382L270 218H158L119 0H26L154 714Z" />
<glyph unicode="l" glyph-name="l" horiz-adv-x="243" d="M158 714H251L124 0H31L158 714Z" />
<glyph unicode="m" glyph-name="m" horiz-adv-x="845" d="M114 498H203L186 407L293 498H414L474 424L562 498H721L806 396L736 0H642L708 372L671 417H570L495 352L432 0H342L408 373L371 417H296L174 313L119 0H26L114 498Z" />
<glyph unicode="n" glyph-name="n" horiz-adv-x="576" d="M114 498H203L185 401L300 498H451L537 395L467 0H374L440 372L402 417H308L172 301L119 0H26L114 498Z" />
<glyph unicode="o" glyph-name="o" horiz-adv-x="577" d="M34 99L88 410L192 498H460L543 397L489 86L388 0H116L34 99ZM350 81L403 125L446 373L409 417H229L176 373L132 125L169 81H350Z" />
<glyph unicode="p" glyph-name="p" horiz-adv-x="587" d="M114 498H203L188 414L286 498H470L553 397L499 89L394 0H199L132 69L82 -212H-11L114 498ZM359 81L412 126L456 372L419 417H291L176 318L148 163L224 81H359Z" />
<glyph unicode="q" glyph-name="q" horiz-adv-x="580" d="M394 88L291 0H117L34 100L88 409L192 498H456L541 395L434 -212H341L394 88ZM286 81L412 192L444 372L408 417H228L176 372L132 126L169 81H286Z" />
<glyph unicode="r" glyph-name="r" horiz-adv-x="393" d="M114 498H203L187 411L289 498H422L407 417H298L174 311L119 0H26L114 498Z" />
<glyph unicode="s" glyph-name="s" horiz-adv-x="520" d="M17 92L28 149H120L114 112L142 79H318L358 112L369 178L341 213H129L57 300L78 419L171 498H415L493 405L482 349H389L396 386L368 419H205L165 386L154 324L182 289H393L466 200L445 79L352 0H93L17 92Z" />
<glyph unicode="t" glyph-name="t" horiz-adv-x="398" d="M89 99L145 418H55L69 498H161L190 660H281L252 498H406L392 417H238L187 125L224 81H333L319 0H171L89 99Z" />
<glyph unicode="u" glyph-name="u" horiz-adv-x="575" d="M39 100L109 498H202L136 125L173 81H266L402 197L456 498H549L461 0H372L389 99L273 0H121L39 100Z" />
<glyph unicode="v" glyph-name="v" horiz-adv-x="491" d="M54 498H147L214 100H218L425 498H525L252 0H152L54 498Z" />
<glyph unicode="w" glyph-name="w" horiz-adv-x="714" d="M74 498H167L176 117H179L356 498H444L477 117H481L631 498H728L513 0H419L383 386H379L199 0H104L74 498Z" />
<glyph unicode="x" glyph-name="x" horiz-adv-x="501" d="M341 0L242 181L79 0H-29L200 253L64 498H166L260 323L417 498H525L303 251L442 0H341Z" />
<glyph unicode="y" glyph-name="y" horiz-adv-x="577" d="M551 498L441 -126L330 -219H86L13 -131L22 -74H116L110 -109L134 -138H300L353 -94L387 95L274 0H115L38 95L109 498H202L136 126L174 81H269L405 198L458 498H551Z" />
<glyph unicode="z" glyph-name="z" horiz-adv-x="482" d="M5 80L364 419V421H75L89 498H491L477 418L118 79V77H417L403 0H-9L5 80Z" />
<glyph unicode="{" glyph-name="braceleft" horiz-adv-x="355" d="M71 -20L117 244L53 324L62 376L154 456L202 725L309 816H433L419 734H342L289 690L243 429L157 354L155 346L215 271L169 9L206 -35H283L269 -117H151L71 -20Z" />
<glyph unicode="|" glyph-name="bar" horiz-adv-x="244" d="M180 846H274L89 -204H-5L180 846Z" />
<glyph unicode="}" glyph-name="braceright" horiz-adv-x="355" d="M320 719L274 455L338 375L329 323L237 243L189 -26L82 -117H-42L-28 -35H49L102 9L148 270L234 345L236 353L176 428L222 690L185 734H108L122 816H240L320 719Z" />
<glyph unicode="~" glyph-name="asciitilde" horiz-adv-x="570" d="M214 279H186L141 241L132 191H40L53 266L166 363H250L364 265H388L437 307L446 353H538L524 278L411 181H327L214 279Z" />
<glyph unicode="&#xa0;" glyph-name="uni00A0" horiz-adv-x="253" />
<glyph unicode="&#xa1;" glyph-name="exclamdown" horiz-adv-x="254" d="M222 466L214 419L176 387H127L100 419L108 466L146 498H196L222 466ZM119 -68L95 -202H-1L23 -68L107 323H173L119 -68Z" />
<glyph unicode="&#xa2;" glyph-name="cent" horiz-adv-x="542" d="M423 331L430 372L393 417H228L175 372L131 126L168 81H334L387 126L394 167H488L473 88L370 0H283L264 -103H177L195 0H114L33 99L88 411L191 498H283L301 598H388L370 498H444L527 396L516 331H423Z" />
<glyph unicode="&#xa3;" glyph-name="sterling" horiz-adv-x="616" d="M530 527L538 569L497 617H365L292 555L262 381H502L488 301H248L230 201L140 116L134 82H557L542 0H23L46 131L137 217L152 301H60L74 381H166L203 591L331 700H546L636 593L624 527H530Z" />
<glyph unicode="&#xa4;" glyph-name="currency" horiz-adv-x="643" d="M541 221L508 193L570 117L503 60L442 136L411 109H183L162 135L74 60L27 117L116 192L93 221L134 449L166 477L104 553L171 610L232 533L263 559H491L512 533L600 610L646 553L558 478L582
449L541 221ZM456 240L489 428L447 478H278L219 428L186 240L228 191H397L456 240Z" />
<glyph unicode="&#xa5;" glyph-name="yen" horiz-adv-x="606" d="M388 328H521L508 254H353L341 186H496L483 112H328L308 0H212L232 112H77L90 186H245L257 254H102L115 328H247L90 700H188L318 378H320L565 700H676L388 328Z" />
<glyph unicode="&#xa6;" glyph-name="brokenbar" horiz-adv-x="244" d="M181 846H275L198 412H104L181 846ZM75 250H169L90 -204H-4L75 250Z" />
<glyph unicode="&#xa7;" glyph-name="section" horiz-adv-x="530" d="M419 548L426 588L398 621H258L218 588L205 515L234 480H428L504 387L482 259L411 199L449 152L427 31L333 -48H113L36 45L46 104H140L133 64L162 31H300L340 64L353 136L324 172H127L53 262L76
394L146 452L109 497L131 619L227 700H446L523 607L513 548H419ZM164 370L149 283L178 249H353L394 282L409 369L380 403H205L164 370Z" />
<glyph unicode="&#xa8;" glyph-name="dieresis" horiz-adv-x="399" d="M101 595L110 643L147 674H199L223 643L215 594L180 564H127L101 595ZM307 595L315 643L351 674H403L429 643L420 593L385 564H331L307 595Z" />
<glyph unicode="&#xa9;" glyph-name="copyright" horiz-adv-x="825" d="M39 188L98 524L306 700H664L820 512L761 175L555 0H195L39 188ZM524 78L685 215L733 485L620 622H336L174 485L127 215L240 78H524ZM212 258L247 454L367 556L557 557L649 444L639 387H557L564
427L520 480H393L326 424L301 277L347 220H473L537 274L545 317H627L614 245L495 144H306L212 258Z" />
<glyph unicode="&#xaa;" glyph-name="ordfeminine" horiz-adv-x="420" d="M75 416L89 496L162 558H342L350 606L331 629H221L195 608L191 585H107L115 630L197 700H371L435 621L388 351H312L321 403L256 351H128L75 416ZM264 419L325 469L331 497H193L170 477L163
438L178 419H264Z" />
<glyph unicode="&#xab;" glyph-name="guillemotleft" horiz-adv-x="534" d="M27 232L41 306L299 491L279 381L120 266L119 260L237 145L220 47L27 232ZM255 232L269 306L527 491L507 381L348 266L347 260L465 145L448 47L255 232Z" />
<glyph unicode="&#xac;" glyph-name="logicalnot" horiz-adv-x="545" d="M413 307H60L75 389H520L476 146H384L413 307Z" />
<glyph unicode="&#xad;" glyph-name="uni00AD" horiz-adv-x="412" d="M58 296H370L356 214H44L58 296Z" />
<glyph unicode="&#xae;" glyph-name="registered" horiz-adv-x="537" d="M76 398L111 598L242 709H446L546 587L511 386L381 276H177L76 398ZM358 335L453 415L479 570L413 650H264L170 570L143 415L209 335H358ZM243 603H382L419 559L408 502L375 474L399 441L390
388H335L342 429L324 454H272L260 388H206L243 603ZM340 501L357 516L362 543L350 557H290L280 501H340Z" />
<glyph unicode="&#xaf;" glyph-name="overscore" horiz-adv-x="342" d="M92 647H392L378 571H78L92 647Z" />
<glyph unicode="&#xb0;" glyph-name="degree" horiz-adv-x="342" d="M102 545L120 646L194 709H300L360 636L342 535L270 473H161L102 545ZM246 538L281 567L290 615L266 644H217L183 615L174 567L198 538H246Z" />
<glyph unicode="&#xb1;" glyph-name="plusminus" horiz-adv-x="548" d="M523 391L509 309H331L302 147H209L238 309H61L75 391H252L282 557H375L345 391H523ZM21 81H469L454 0H6L21 81Z" />
<glyph unicode="&#xb2;" glyph-name="uni00B2" horiz-adv-x="382" d="M59 370L315 563L322 604L307 623H210L187 604L180 561H90L104 636L179 700H355L416 626L400 535L162 361L161 354H371L358 280H43L59 370Z" />
<glyph unicode="&#xb3;" glyph-name="uni00B3" horiz-adv-x="415" d="M59 355L69 411H159L153 375L168 356H275L298 375L309 438L294 455H172L185 527H307L327 545L338 605L322 624H218L197 605L190 569H101L113 637L186 700H369L431 625L413 522L377 491L402
460L382 341L310 280H121L59 355Z" />
<glyph unicode="&#xb4;" glyph-name="acute" horiz-adv-x="253" d="M196 716H299L177 555H92L196 716Z" />
<glyph unicode="&#xb6;" glyph-name="paragraph" horiz-adv-x="569" d="M266 314H171L81 423L113 603L227 700H423L264 -203H175L266 314ZM483 700H573L414 -203H324L483 700Z" />
<glyph unicode="&#xb7;" glyph-name="middot" horiz-adv-x="217" d="M46 238L55 288L95 322H148L176 288L167 238L128 204H74L46 238Z" />
<glyph unicode="&#xb8;" glyph-name="cedilla" horiz-adv-x="279" d="M-38 -170H81L101 -153L107 -121L92 -103H-9L-2 -67L57 38H131L82 -47H138L181 -101L167 -180L110 -229H-48L-38 -170Z" />
<glyph unicode="&#xb9;" glyph-name="uni00B9" horiz-adv-x="273" d="M185 602L84 554L99 639L221 700H293L219 280H129L185 602Z" />
<glyph unicode="&#xba;" glyph-name="ordmasculine" horiz-adv-x="425" d="M77 428L113 633L192 700H383L446 623L409 418L331 351H139L77 428ZM299 425L330 451L356 600L335 626H223L193 600L166 451L187 425H299Z" />
<glyph unicode="&#xbb;" glyph-name="guillemotright" horiz-adv-x="534" d="M286 306L273 232L15 47L34 157L194 272L195 278L76 393L93 491L286 306ZM514 306L501 232L243 47L262 157L422 272L423 278L304 393L321 491L514 306Z" />
<glyph unicode="&#xbc;" glyph-name="onequarter" horiz-adv-x="831" d="M609 75H400L415 163L651 420H760L712 152H763L750 75H699L686 0H596L609 75ZM629 149L660 325H658L506 159L504 149H629ZM727 700L203 0H105L630 700H727ZM205 602L104 554L119 639L241
700H313L239 280H149L205 602Z" />
<glyph unicode="&#xbd;" glyph-name="onehalf" horiz-adv-x="872" d="M719 700L195 0H97L622 700H719ZM205 602L104 554L119 639L241 700H313L239 280H149L205 602ZM479 90L735 283L742 324L727 343H630L607 324L600 281H510L524 356L599 420H775L836 346L820
255L582 81L581 74H791L778 0H463L479 90Z" />
<glyph unicode="&#xbe;" glyph-name="threequarters" horiz-adv-x="933" d="M69 355L79 411H169L163 375L178 356H285L308 375L319 438L304 455H182L195 527H317L337 545L348 605L332 624H228L207 605L200 569H111L123 637L196 700H379L441 625L423 522L387 491L412
460L392 341L320 280H131L69 355ZM695 75H486L501 163L737 420H846L798 152H849L836 75H785L772 0H682L695 75ZM715 149L746 325H744L592 159L590 149H715ZM832 700L308 0H210L735 700H832Z" />
<glyph unicode="&#xbf;" glyph-name="questiondown" horiz-adv-x="542" d="M364 466L356 419L318 387H268L242 419L250 466L287 498H337L364 466ZM303 184L93 10L81 -58L133 -119H280L348 -62L356 -15H450L436 -97L311 -202H83L-18 -81L3 37L216 213L236 327H328L303
184Z" />
<glyph unicode="&#xc0;" glyph-name="Agrave" horiz-adv-x="629" d="M345 700H441L570 0H473L442 178H166L72 0H-29L345 700ZM431 259L376 586H374L204 259H431ZM290 918H393L440 757H355L290 918Z" />
<glyph unicode="&#xc1;" glyph-name="Aacute" horiz-adv-x="629" d="M345 700H441L570 0H473L442 178H166L72 0H-29L345 700ZM431 259L376 586H374L204 259H431ZM465 918H568L446 757H361L465 918Z" />
<glyph unicode="&#xc2;" glyph-name="Acircumflex" horiz-adv-x="629" d="M345 700H441L570 0H473L442 178H166L72 0H-29L345 700ZM431 259L376 586H374L204 259H431ZM386 904H470L560 757H472L422 842H416L336 757H244L386 904Z" />
<glyph unicode="&#xc3;" glyph-name="Atilde" horiz-adv-x="629" d="M345 700H441L570 0H473L442 178H166L72 0H-29L345 700ZM431 259L376 586H374L204 259H431ZM370 819H351L331 802L326 773H255L265 826L333 885H403L458 833H478L497 849L502 879H573L563 825L495
767H425L370 819Z" />
<glyph unicode="&#xc4;" glyph-name="Adieresis" horiz-adv-x="629" d="M345 700H441L570 0H473L442 178H166L72 0H-29L345 700ZM431 259L376 586H374L204 259H431ZM249 797L258 845L294 876H347L371 845L362 796L328 766H274L249 797ZM454 797L463 845L499 876H551L576
845L568 795L532 766H479L454 797Z" />
<glyph unicode="&#xc5;" glyph-name="Aring" horiz-adv-x="629" d="M345 700H441L570 0H473L442 178H166L72 0H-29L345 700ZM431 259L376 586H374L204 259H431ZM303 814L319 903L386 961H482L535 897L520 807L453 750H356L303 814ZM434 808L463 834L471 877L450
902H405L375 877L367 834L388 808H434Z" />
<glyph unicode="&#xc6;" glyph-name="AE" horiz-adv-x="935" d="M596 615L557 393H886L872 309H543L503 85H861L846 0H392L425 186H181L67 0H-34L399 700H969L954 615H596ZM439 269L500 615H443L231 269H439Z" />
<glyph unicode="&#xc7;" glyph-name="Ccedilla" horiz-adv-x="639" d="M549 513L557 558L509 616H288L215 554L143 146L195 84H415L484 142L492 187H588L572 102L452 0H322L295 -47H351L395 -101L381 -182L325 -229H165L176 -170H294L315 -153L321 -121L306 -103H205L211
-67L249 0H139L42 118L127 594L250 700H562L658 584L645 513H549Z" />
<glyph unicode="&#xc8;" glyph-name="Egrave" horiz-adv-x="590" d="M155 700H624L609 616H236L197 393H542L527 310H183L143 84H516L501 0H32L155 700ZM272 918H375L422 757H337L272 918Z" />
<glyph unicode="&#xc9;" glyph-name="Eacute" horiz-adv-x="590" d="M155 700H624L609 616H236L197 393H542L527 310H183L143 84H516L501 0H32L155 700ZM468 918H571L449 757H364L468 918Z" />
<glyph unicode="&#xca;" glyph-name="Ecircumflex" horiz-adv-x="590" d="M155 700H624L609 616H236L197 393H542L527 310H183L143 84H516L501 0H32L155 700ZM389 904H473L563 757H475L425 842H419L339 757H247L389 904Z" />
<glyph unicode="&#xcb;" glyph-name="Edieresis" horiz-adv-x="590" d="M155 700H624L609 616H236L197 393H542L527 310H183L143 84H516L501 0H32L155 700ZM252 797L261 845L297 876H350L374 845L365 796L331 766H277L252 797ZM457 797L466 845L502 876H554L579
845L571 795L535 766H482L457 797Z" />
<glyph unicode="&#xcc;" glyph-name="Igrave" horiz-adv-x="256" d="M160 700H256L132 0H36L160 700ZM105 918H208L255 757H170L105 918Z" />
<glyph unicode="&#xcd;" glyph-name="Iacute" horiz-adv-x="256" d="M160 700H256L132 0H36L160 700ZM280 918H383L261 757H176L280 918Z" />
<glyph unicode="&#xce;" glyph-name="Icircumflex" horiz-adv-x="256" d="M160 700H256L132 0H36L160 700ZM201 904H285L375 757H287L237 842H231L151 757H59L201 904Z" />
<glyph unicode="&#xcf;" glyph-name="Idieresis" horiz-adv-x="256" d="M160 700H256L132 0H36L160 700ZM64 797L73 845L109 876H162L186 845L177 796L143 766H89L64 797ZM269 797L278 845L314 876H366L391 845L383 795L347 766H294L269 797Z" />
<glyph unicode="&#xd0;" glyph-name="Eth" horiz-adv-x="715" d="M709 581L624 102L504 0H75L129 309H31L46 393H144L198 700H610L709 581ZM608 554L556 616H280L241 393H405L390 309H226L186 84H463L535 146L608 554Z" />
<glyph unicode="&#xd1;" glyph-name="Ntilde" horiz-adv-x="681" d="M155 700H245L497 158H499L594 700H686L562 0H472L222 542H220L124 0H32L155 700ZM395 819H376L356 802L351 773H280L290 826L358 885H428L483 833H503L522 849L527 879H598L588 825L520 767H450L395
819Z" />
<glyph unicode="&#xd2;" glyph-name="Ograve" horiz-adv-x="684" d="M42 118L126 594L250 700H580L678 582L593 102L472 0H139L42 118ZM431 84L504 146L576 554L525 616H288L215 554L142 146L194 84H431ZM319 918H422L469 757H384L319 918Z" />
<glyph unicode="&#xd3;" glyph-name="Oacute" horiz-adv-x="684" d="M42 118L126 594L250 700H580L678 582L593 102L472 0H139L42 118ZM431 84L504 146L576 554L525 616H288L215 554L142 146L194 84H431ZM494 918H597L475 757H390L494 918Z" />
<glyph unicode="&#xd4;" glyph-name="Ocircumflex" horiz-adv-x="684" d="M42 118L126 594L250 700H580L678 582L593 102L472 0H139L42 118ZM431 84L504 146L576 554L525 616H288L215 554L142 146L194 84H431ZM415 904H499L589 757H501L451 842H445L365 757H273L415 904Z" />
<glyph unicode="&#xd5;" glyph-name="Otilde" horiz-adv-x="684" d="M42 118L126 594L250 700H580L678 582L593 102L472 0H139L42 118ZM431 84L504 146L576 554L525 616H288L215 554L142 146L194 84H431ZM399 819H380L360 802L355 773H284L294 826L362 885H432L487
833H507L526 849L531 879H602L592 825L524 767H454L399 819Z" />
<glyph unicode="&#xd6;" glyph-name="Odieresis" horiz-adv-x="684" d="M42 118L126 594L250 700H580L678 582L593 102L472 0H139L42 118ZM431 84L504 146L576 554L525 616H288L215 554L142 146L194 84H431ZM278 797L287 845L323 876H376L400 845L391 796L357
766H303L278 797ZM483 797L492 845L528 876H580L605 845L597 795L561 766H508L483 797Z" />
<glyph unicode="&#xd7;" glyph-name="multiply" horiz-adv-x="489" d="M305 264L418 127L350 69L237 206L76 69L28 127L189 264L77 401L145 459L257 322L418 459L466 401L305 264Z" />
<glyph unicode="&#xd8;" glyph-name="Oslash" horiz-adv-x="684" d="M648 619L678 582L593 102L472 0H139L113 32L54 -33H-34L71 82L42 118L126 594L250 700H580L606 669L664 733H752L648 619ZM145 164L540 597L525 616H288L215 554L145 164ZM573 536L178 103L194
84H431L504 146L573 536Z" />
<glyph unicode="&#xd9;" glyph-name="Ugrave" horiz-adv-x="684" d="M53 119L155 700H251L153 146L205 84H421L494 146L593 700H689L583 105L460 0H151L53 119ZM313 918H416L463 757H378L313 918Z" />
<glyph unicode="&#xda;" glyph-name="Uacute" horiz-adv-x="684" d="M53 119L155 700H251L153 146L205 84H421L494 146L593 700H689L583 105L460 0H151L53 119ZM495 918H598L476 757H391L495 918Z" />
<glyph unicode="&#xdb;" glyph-name="Ucircumflex" horiz-adv-x="684" d="M53 119L155 700H251L153 146L205 84H421L494 146L593 700H689L583 105L460 0H151L53 119ZM416 904H500L590 757H502L452 842H446L366 757H274L416 904Z" />
<glyph unicode="&#xdc;" glyph-name="Udieresis" horiz-adv-x="684" d="M53 119L155 700H251L153 146L205 84H421L494 146L593 700H689L583 105L460 0H151L53 119ZM279 797L288 845L324 876H377L401 845L392 796L358 766H304L279 797ZM484 797L493 845L529 876H581L606
845L598 795L562 766H509L484 797Z" />
<glyph unicode="&#xdd;" glyph-name="Yacute" horiz-adv-x="606" d="M263 290L90 700H188L318 378H320L565 700H676L359 290L308 0H212L263 290ZM447 918H550L428 757H343L447 918Z" />
<glyph unicode="&#xde;" glyph-name="Thorn" horiz-adv-x="630" d="M622 461L581 226L475 136H152L128 0H32L131 564L155 700H251L227 564H537L622 461ZM524 437L487 482H213L211 470L166 218H440L493 263L524 437Z" />
<glyph unicode="&#xdf;" glyph-name="germandbls" horiz-adv-x="635" d="M138 608L243 697H491L571 599L552 490L453 388L448 358L460 343H532L606 254L575 79L482 0H306L231 91L242 153H335L328 113L356 79H447L487 113L508 230L480 265H402L349 329L362 401L462
505L475 579L443 617H272L227 579L124 0H31L138 608Z" />
<glyph unicode="&#xe0;" glyph-name="agrave" horiz-adv-x="559" d="M27 89L48 211L146 293H409L423 377L388 420H225L173 377L167 340H74L86 404L196 498H437L520 397L450 0H363L377 82L277 0H101L27 89ZM277 77L387 167L396 219H177L136 184L123 111L152 77H277ZM237
716H340L387 555H302L237 716Z" />
<glyph unicode="&#xe1;" glyph-name="aacute" horiz-adv-x="559" d="M27 89L48 211L146 293H409L423 377L388 420H225L173 377L167 340H74L86 404L196 498H437L520 397L450 0H363L377 82L277 0H101L27 89ZM277 77L387 167L396 219H177L136 184L123 111L152 77H277ZM398
716H501L379 555H294L398 716Z" />
<glyph unicode="&#xe2;" glyph-name="acircumflex" horiz-adv-x="559" d="M27 89L48 211L146 293H409L423 377L388 420H225L173 377L167 340H74L86 404L196 498H437L520 397L450 0H363L377 82L277 0H101L27 89ZM277 77L387 167L396 219H177L136 184L123 111L152
77H277ZM319 702H403L493 555H405L355 640H349L269 555H177L319 702Z" />
<glyph unicode="&#xe3;" glyph-name="atilde" horiz-adv-x="559" d="M27 89L48 211L146 293H409L423 377L388 420H225L173 377L167 340H74L86 404L196 498H437L520 397L450 0H363L377 82L277 0H101L27 89ZM277 77L387 167L396 219H177L136 184L123 111L152 77H277ZM303
617H284L264 600L259 571H188L198 624L266 683H336L391 631H411L430 647L435 677H506L496 623L428 565H358L303 617Z" />
<glyph unicode="&#xe4;" glyph-name="adieresis" horiz-adv-x="559" d="M27 89L48 211L146 293H409L423 377L388 420H225L173 377L167 340H74L86 404L196 498H437L520 397L450 0H363L377 82L277 0H101L27 89ZM277 77L387 167L396 219H177L136 184L123 111L152
77H277ZM182 595L191 643L227 674H280L304 643L295 594L261 564H207L182 595ZM387 595L396 643L432 674H484L509 643L501 593L465 564H412L387 595Z" />
<glyph unicode="&#xe5;" glyph-name="aring" horiz-adv-x="559" d="M27 89L48 211L146 293H409L423 377L388 420H225L173 377L167 340H74L86 404L196 498H437L520 397L450 0H363L377 82L277 0H101L27 89ZM277 77L387 167L396 219H177L136 184L123 111L152 77H277ZM236
612L252 701L319 759H415L468 695L453 605L386 548H289L236 612ZM367 606L396 632L404 675L383 700H338L308 675L300 632L321 606H367Z" />
<glyph unicode="&#xe6;" glyph-name="ae" horiz-adv-x="896" d="M492 220L475 124L511 80H674L725 123L731 157H824L811 87L709 0H462L398 77L306 0H101L27 89L48 211L146 293H411L426 377L389 420H225L173 377L167 340H74L86 404L196 498H438L481 446L542 498H783L867
397L835 220H492ZM519 374L505 293H755L770 374L733 418H572L519 374ZM388 161L398 219H177L136 184L123 111L152 77H289L388 161Z" />
<glyph unicode="&#xe7;" glyph-name="ccedilla" horiz-adv-x="542" d="M423 331L430 372L393 417H228L175 372L131 126L168 81H334L387 126L394 167H488L473 88L370 0H277L250 -47H306L349 -101L335 -182L279 -229H120L130 -170H249L269 -153L275 -121L260 -103H159L166
-67L204 0H114L33 99L88 411L191 498H444L527 396L516 331H423Z" />
<glyph unicode="&#xe8;" glyph-name="egrave" horiz-adv-x="568" d="M34 99L88 410L192 498H456L539 397L508 220H149L132 124L168 80H347L398 123L404 157H497L484 87L382 0H115L34 99ZM428 293L442 374L406 418H229L176 374L162 293H428ZM227 716H330L377 555H292L227
716Z" />
<glyph unicode="&#xe9;" glyph-name="eacute" horiz-adv-x="568" d="M34 99L88 410L192 498H456L539 397L508 220H149L132 124L168 80H347L398 123L404 157H497L484 87L382 0H115L34 99ZM428 293L442 374L406 418H229L176 374L162 293H428ZM402 716H505L383 555H298L402
716Z" />
<glyph unicode="&#xea;" glyph-name="ecircumflex" horiz-adv-x="568" d="M34 99L88 410L192 498H456L539 397L508 220H149L132 124L168 80H347L398 123L404 157H497L484 87L382 0H115L34 99ZM428 293L442 374L406 418H229L176 374L162 293H428ZM323 702H407L497
555H409L359 640H353L273 555H181L323 702Z" />
<glyph unicode="&#xeb;" glyph-name="edieresis" horiz-adv-x="568" d="M34 99L88 410L192 498H456L539 397L508 220H149L132 124L168 80H347L398 123L404 157H497L484 87L382 0H115L34 99ZM428 293L442 374L406 418H229L176 374L162 293H428ZM186 595L195 643L231
674H284L308 643L299 594L265 564H211L186 595ZM391 595L400 643L436 674H488L513 643L505 593L469 564H416L391 595Z" />
<glyph unicode="&#xec;" glyph-name="igrave" horiz-adv-x="253" d="M124 498H217L129 0H36L124 498ZM68 716H171L218 555H133L68 716Z" />
<glyph unicode="&#xed;" glyph-name="iacute" horiz-adv-x="253" d="M124 498H217L129 0H36L124 498ZM244 716H347L225 555H140L244 716Z" />
<glyph unicode="&#xee;" glyph-name="icircumflex" horiz-adv-x="253" d="M124 498H217L129 0H36L124 498ZM165 702H249L339 555H251L201 640H195L115 555H23L165 702Z" />
<glyph unicode="&#xef;" glyph-name="idieresis" horiz-adv-x="253" d="M124 498H217L129 0H36L124 498ZM28 595L37 643L73 674H126L150 643L141 594L107 564H53L28 595ZM233 595L242 643L278 674H330L355 643L347 593L311 564H258L233 595Z" />
<glyph unicode="&#xf0;" glyph-name="eth" horiz-adv-x="592" d="M528 575L576 474L508 89L403 0H120L34 103L78 350L186 441H395L463 371L480 464L448 533L351 482L327 543L420 592L404 627H273L286 700H469L500 634L593 683L618 622L528 575ZM447 279L370 359H218L166
315L132 128L169 83H367L420 128L447 279Z" />
<glyph unicode="&#xf1;" glyph-name="ntilde" horiz-adv-x="576" d="M114 498H203L185 401L300 498H451L537 395L467 0H374L440 372L402 417H308L172 301L119 0H26L114 498ZM316 617H297L277 600L272 571H201L211 624L279 683H349L404 631H424L443 647L448 677H519L509
623L441 565H371L316 617Z" />
<glyph unicode="&#xf2;" glyph-name="ograve" horiz-adv-x="577" d="M34 99L88 410L192 498H460L543 397L489 86L388 0H116L34 99ZM350 81L403 125L446 373L409 417H229L176 373L132 125L169 81H350ZM229 716H332L379 555H294L229 716Z" />
<glyph unicode="&#xf3;" glyph-name="oacute" horiz-adv-x="577" d="M34 99L88 410L192 498H460L543 397L489 86L388 0H116L34 99ZM350 81L403 125L446 373L409 417H229L176 373L132 125L169 81H350ZM404 716H507L385 555H300L404 716Z" />
<glyph unicode="&#xf4;" glyph-name="ocircumflex" horiz-adv-x="577" d="M34 99L88 410L192 498H460L543 397L489 86L388 0H116L34 99ZM350 81L403 125L446 373L409 417H229L176 373L132 125L169 81H350ZM325 702H409L499 555H411L361 640H355L275 555H183L325 702Z" />
<glyph unicode="&#xf5;" glyph-name="otilde" horiz-adv-x="577" d="M34 99L88 410L192 498H460L543 397L489 86L388 0H116L34 99ZM350 81L403 125L446 373L409 417H229L176 373L132 125L169 81H350ZM309 617H290L270 600L265 571H194L204 624L272 683H342L397
631H417L436 647L441 677H512L502 623L434 565H364L309 617Z" />
<glyph unicode="&#xf6;" glyph-name="odieresis" horiz-adv-x="577" d="M34 99L88 410L192 498H460L543 397L489 86L388 0H116L34 99ZM350 81L403 125L446 373L409 417H229L176 373L132 125L169 81H350ZM188 595L197 643L233 674H286L310 643L301 594L267 564H213L188
595ZM393 595L402 643L438 674H490L515 643L507 593L471 564H418L393 595Z" />
<glyph unicode="&#xf7;" glyph-name="divide" horiz-adv-x="548" d="M241 392L249 439L289 473H339L366 439L358 391L320 359H268L241 392ZM60 305H508L494 223H46L60 305ZM187 89L196 136L235 169H285L312 136L304 87L266 55H215L187 89Z" />
<glyph unicode="&#xf8;" glyph-name="oslash" horiz-adv-x="577" d="M512 435L543 397L489 86L388 0H116L106 12L56 -40H-32L65 61L34 99L88 410L192 498H460L471 485L522 538H611L512 435ZM133 132L406 417H229L176 373L133 132ZM445 365L172 81H350L403 125L445 365Z" />
<glyph unicode="&#xf9;" glyph-name="ugrave" horiz-adv-x="575" d="M39 100L109 498H202L136 125L173 81H266L402 197L456 498H549L461 0H372L389 99L273 0H121L39 100ZM232 716H335L382 555H297L232 716Z" />
<glyph unicode="&#xfa;" glyph-name="uacute" horiz-adv-x="575" d="M39 100L109 498H202L136 125L173 81H266L402 197L456 498H549L461 0H372L389 99L273 0H121L39 100ZM403 716H506L384 555H299L403 716Z" />
<glyph unicode="&#xfb;" glyph-name="ucircumflex" horiz-adv-x="575" d="M39 100L109 498H202L136 125L173 81H266L402 197L456 498H549L461 0H372L389 99L273 0H121L39 100ZM324 702H408L498 555H410L360 640H354L274 555H182L324 702Z" />
<glyph unicode="&#xfc;" glyph-name="udieresis" horiz-adv-x="575" d="M39 100L109 498H202L136 125L173 81H266L402 197L456 498H549L461 0H372L389 99L273 0H121L39 100ZM187 595L196 643L232 674H285L309 643L300 594L266 564H212L187 595ZM392 595L401 643L437
674H489L514 643L506 593L470 564H417L392 595Z" />
<glyph unicode="&#xfd;" glyph-name="yacute" horiz-adv-x="577" d="M551 498L441 -126L330 -219H86L13 -131L22 -74H116L110 -109L134 -138H300L353 -94L387 95L274 0H115L38 95L109 498H202L136 126L174 81H269L405 198L458 498H551ZM405 716H508L386 555H301L405 716Z" />
<glyph unicode="&#xfe;" glyph-name="thorn" horiz-adv-x="587" d="M152 710H244L192 418L286 498H470L553 397L499 89L394 0H198L132 68L82 -212H-11L152 710ZM359 81L412 126L456 372L419 417H291L176 318L148 163L224 81H359Z" />
<glyph unicode="&#xff;" glyph-name="ydieresis" horiz-adv-x="577" d="M551 498L441 -126L330 -219H86L13 -131L22 -74H116L110 -109L134 -138H300L353 -94L387 95L274 0H115L38 95L109 498H202L136 126L174 81H269L405 198L458 498H551ZM189 595L198 643L234
674H287L311 643L302 594L268 564H214L189 595ZM394 595L403 643L439 674H491L516 643L508 593L472 564H419L394 595Z" />
<glyph unicode="&#x2013;" glyph-name="endash" horiz-adv-x="628" d="M58 296H586L571 214H44L58 296Z" />
<glyph unicode="&#x2014;" glyph-name="emdash" horiz-adv-x="735" d="M58 296H693L679 214H44L58 296Z" />
<glyph unicode="&#x2018;" glyph-name="quoteleft" horiz-adv-x="215" d="M176 573H192L220 539L211 488L171 455H117L89 489L104 573L179 700H232L176 573Z" />
<glyph unicode="&#x2019;" glyph-name="quoteright" horiz-adv-x="215" d="M155 582H139L111 616L120 666L160 700H214L242 666L227 582L152 455H99L155 582Z" />
<glyph unicode="&#x201a;" glyph-name="quotesinglbase" horiz-adv-x="215" d="M53 0H37L9 34L18 84L58 118H112L140 84L125 0L50 -127H-3L53 0Z" />
<glyph unicode="&#x201c;" glyph-name="quotedblleft" horiz-adv-x="384" d="M176 573H192L220 539L211 488L171 455H117L89 489L104 573L179 700H232L176 573ZM345 573H361L389 539L380 488L340 455H286L258 489L273 573L348 700H401L345 573Z" />
<glyph unicode="&#x201d;" glyph-name="quotedblright" horiz-adv-x="384" d="M155 582H139L111 616L120 666L160 700H214L242 666L227 582L152 455H99L155 582ZM324 582H308L280 616L289 666L329 700H383L411 666L396 582L321 455H268L324 582Z" />
<glyph unicode="&#x201e;" glyph-name="quotedblbase" horiz-adv-x="384" d="M308 0H292L264 34L273 84L313 118H367L395 84L380 0L305 -127H252L308 0ZM222 0H206L178 34L187 84L227 118H281L309 84L294 0L219 -127H166L222 0Z" />
<glyph unicode="&#x2022;" glyph-name="bullet" horiz-adv-x="324" d="M49 242L67 343L134 402H240L290 339L272 236L206 179H99L49 242Z" />
<glyph unicode="&#x2039;" glyph-name="guilsinglleft" horiz-adv-x="306" d="M27 232L41 306L299 491L279 381L120 266L119 260L237 145L220 47L27 232Z" />
<glyph unicode="&#x203a;" glyph-name="guilsinglright" horiz-adv-x="306" d="M286 306L273 232L15 47L34 157L194 272L195 278L76 393L93 491L286 306Z" />
</font>
</defs>
</svg>
