<?xml version="1.0" standalone="no"?>
<!DOCTYPE svg PUBLIC "-//W3C//DTD SVG 1.1//EN" "http://www.w3.org/Graphics/SVG/1.1/DTD/svg11.dtd">
<svg xmlns="http://www.w3.org/2000/svg">
<defs >
<font id="ChakraPetch" horiz-adv-x="572" ><font-face
    font-family="Chakra Petch"
    units-per-em="1000"
    panose-1="0 0 8 0 0 0 0 0 0 0"
    ascent="992"
    descent="-308"
    alphabetic="0" />
<glyph unicode=" " glyph-name="space" horiz-adv-x="272" />
<glyph unicode="!" glyph-name="exclam" horiz-adv-x="274" d="M124 566L148 700H284L260 566L180 202H76L124 566ZM24 43L34 103L84 146H152L188 103L178 43L127 0H59L24 43Z" />
<glyph unicode="&quot;" glyph-name="quotedbl" horiz-adv-x="460" d="M120 586L140 700H276L256 586L214 440H110L120 586ZM324 586L344 700H480L460 586L418 440H314L324 586Z" />
<glyph unicode="#" glyph-name="numbersign" horiz-adv-x="717" d="M587 416L542 288H663L643 174H502L441 0H309L370 174H259L198 0H66L127 174H27L47 288H167L212 416H90L110 530H252L311 700H443L384 530H495L554 700H686L627 530H726L706 416H587ZM455 416H344L299
288H410L455 416Z" />
<glyph unicode="$" glyph-name="dollar" horiz-adv-x="637" d="M493 491L503 551L476 584H440L410 415H505L601 299L565 100L448 0H337L318 -110H204L223 0H123L27 116L44 208H178L167 149L194 116H244L276 299H177L81 415L113 600L231 700H347L366 810H480L461
700H546L643 584L627 491H493ZM326 584H278L239 551L221 448L248 415H296L326 584ZM390 299L358 116H400L440 150L461 266L434 299H390Z" />
<glyph unicode="%" glyph-name="percent" horiz-adv-x="875" d="M70 418L107 628L192 700H382L441 628L402 404L317 332H141L70 418ZM641 700H777L270 0H134L641 700ZM269 432L294 454L316 578L298 600H240L214 578L192 454L211 432H269ZM472 86L509 296L594 368H784L843
296L804 72L719 0H543L472 86ZM671 100L696 122L718 246L700 268H642L616 246L594 122L613 100H671Z" />
<glyph unicode="&amp;" glyph-name="ampersand" horiz-adv-x="662" d="M26 115L59 297L132 360L105 394L141 600L258 700H526L619 586L607 520H475L480 552L455 584H301L264 552L244 436L271 402H485L497 468H625L613 402H679L659 288H595L562 98L447 0H121L26
115ZM400 116L439 150L463 288H222L183 255L164 149L192 116H400Z" />
<glyph unicode="&apos;" glyph-name="quotesingle" horiz-adv-x="256" d="M120 586L140 700H276L256 586L214 440H110L120 586Z" />
<glyph unicode="(" glyph-name="parenleft" horiz-adv-x="348" d="M24 19L144 696L286 816H433L413 702H338L267 642L163 57L213 -3H289L268 -117H136L24 19Z" />
<glyph unicode=")" glyph-name="parenright" horiz-adv-x="348" d="M360 680L240 3L98 -117H-49L-29 -3H46L117 57L221 642L171 702H95L116 816H248L360 680Z" />
<glyph unicode="*" glyph-name="asterisk" horiz-adv-x="349" d="M192 521L116 468L91 538L184 570L103 604L152 674L209 620L212 700H297L270 620L347 674L372 604L279 570L360 538L311 468L253 521L251 441H166L192 521Z" />
<glyph unicode="+" glyph-name="plus" horiz-adv-x="564" d="M517 208H341L313 49H181L209 208H33L53 320H229L257 479H389L361 320H537L517 208Z" />
<glyph unicode="," glyph-name="comma" horiz-adv-x="238" d="M60 0H38L2 43L13 107L64 150H139L173 106L155 0L74 -134H-4L60 0Z" />
<glyph unicode="-" glyph-name="hyphen" horiz-adv-x="432" d="M51 314H403L383 200H31L51 314Z" />
<glyph unicode="." glyph-name="period" horiz-adv-x="238" d="M4 43L16 107L66 150H139L173 106L163 44L113 0H40L4 43Z" />
<glyph unicode="/" glyph-name="slash" horiz-adv-x="522" d="M466 700H602L92 0H-44L466 700Z" />
<glyph unicode="0" glyph-name="zero" horiz-adv-x="652" d="M33 124L115 592L242 700H551L655 576L572 106L449 0H136L33 124ZM393 116L445 160L511 540L475 584H294L242 540L175 160L211 116H393Z" />
<glyph unicode="1" glyph-name="one" horiz-adv-x="382" d="M230 555L65 477L87 602L282 700H391L268 0H132L230 555Z" />
<glyph unicode="2" glyph-name="two" horiz-adv-x="574" d="M23 153L441 480L453 551L426 584H264L225 551L213 480H77L97 600L215 700H499L595 584L569 436L163 124L161 114H515L495 0H-4L23 153Z" />
<glyph unicode="3" glyph-name="three" horiz-adv-x="603" d="M13 116L30 218H166L154 149L181 116H360L399 149L419 262L393 294H194L214 410H413L451 442L470 551L443 584H270L231 551L219 482H83L103 600L221 700H516L612 584L579 397L519 347L561 296L526
98L411 0H108L13 116Z" />
<glyph unicode="4" glyph-name="four" horiz-adv-x="579" d="M327 130H-11L13 267L401 700H564L483 246H568L548 130H463L440 0H304L327 130ZM353 242L407 548H403L144 256L142 242H353Z" />
<glyph unicode="5" glyph-name="five" horiz-adv-x="606" d="M22 116L40 222H176L163 149L190 116H368L407 149L435 307L408 340H71L134 700H626L606 584H248L225 456H480L577 339L534 98L419 0H117L22 116Z" />
<glyph unicode="6" glyph-name="six" horiz-adv-x="622" d="M32 116L117 600L234 700H536L632 584L616 492H480L490 549L461 584H285L244 549L215 384L284 441H495L590 325L550 98L435 0H127L32 116ZM382 116L424 151L448 290L419 325H277L191 250L174 151L202 116H382Z" />
<glyph unicode="7" glyph-name="seven" horiz-adv-x="522" d="M412 575L414 584H65L85 700H576L554 572L172 0H28L412 575Z" />
<glyph unicode="8" glyph-name="eight" horiz-adv-x="638" d="M27 116L59 293L133 356L89 409L122 600L240 700H541L637 584L606 409L544 356L596 293L561 98L446 0H123L27 116ZM436 412L477 447L495 549L466 584H291L250 549L232 447L261 412H436ZM393 116L435
151L454 263L426 298H231L189 263L170 151L198 116H393Z" />
<glyph unicode="9" glyph-name="nine" horiz-adv-x="627" d="M36 116L51 197H187L179 151L207 116H377L419 151L447 312L380 255H168L72 371L112 600L229 700H535L631 584L545 98L430 0H131L36 116ZM392 371L469 436L489 549L460 584H280L239 549L214 406L242 371H392Z" />
<glyph unicode=":" glyph-name="colon" horiz-adv-x="232" d="M59 357L70 419L119 460H190L222 418L212 358L164 316H93L59 357ZM4 41L15 103L63 144H134L166 102L156 42L108 0H37L4 41Z" />
<glyph unicode=";" glyph-name="semicolon" horiz-adv-x="232" d="M57 357L68 419L116 460H187L220 418L209 358L162 316H91L57 357ZM57 0H35L0 43L11 107L62 150H137L171 106L152 0L72 -134H-6L57 0Z" />
<glyph unicode="&lt;" glyph-name="less" horiz-adv-x="614" d="M607 436L198 279L197 273L552 124L530 0L26 225L46 339L630 572L607 436Z" />
<glyph unicode="=" glyph-name="equal" horiz-adv-x="564" d="M68 408H552L532 296H48L68 408ZM37 232H521L501 120H17L37 232Z" />
<glyph unicode="&gt;" glyph-name="greater" horiz-adv-x="614" d="M20 136L429 293L430 299L75 448L97 572L601 347L581 233L-3 0L20 136Z" />
<glyph unicode="?" glyph-name="question" horiz-adv-x="562" d="M220 314L429 488L437 533L395 584H265L210 537L200 480H66L84 586L219 700H467L578 566L556 448L344 272L330 191H198L220 314ZM161 43L171 103L221 146H289L325 103L315 43L264 0H196L161 43Z" />
<glyph unicode="@" glyph-name="at" horiz-adv-x="835" d="M490 152L493 172L411 105H303L218 208L250 386L353 474H474L522 416L532 470H626L600 323L579 203H626L681 252L708 402L595 539H355L182 392L147 195L267 50H679L661 -52H196L24 156L75 447L304 641H660L828
437L788 208L666 105H528L490 152ZM487 339L458 374H395L361 345L342 237L366 207H419L471 251L487 339Z" />
<glyph unicode="A" glyph-name="A" horiz-adv-x="646" d="M340 700H464L597 0H459L431 155H185L99 0H-39L340 700ZM418 267L373 533H371L233 267H418Z" />
<glyph unicode="B" glyph-name="B" horiz-adv-x="670" d="M145 700H575L665 592L631 404L584 363L642 291L608 98L493 0H22L145 700ZM462 407L504 443L523 551L494 586H258L227 407H462ZM434 114L485 157L502 255L467 298H208L175 114H434Z" />
<glyph unicode="C" glyph-name="C" horiz-adv-x="655" d="M33 124L116 593L241 700H582L683 579L665 480H529L539 537L501 584H301L241 533L176 167L218 116H418L473 163L484 220H620L599 105L476 0H135L33 124Z" />
<glyph unicode="D" glyph-name="D" horiz-adv-x="688" d="M145 700H584L690 572L607 103L485 0H22L145 700ZM422 116L482 167L547 533L505 584H261L178 116H422Z" />
<glyph unicode="E" glyph-name="E" horiz-adv-x="606" d="M145 700H650L630 585H261L230 408H570L550 295H210L178 115H547L527 0H22L145 700Z" />
<glyph unicode="F" glyph-name="F" horiz-adv-x="576" d="M145 700H640L620 585H261L227 391H538L518 276H207L158 0H22L145 700Z" />
<glyph unicode="G" glyph-name="G" horiz-adv-x="676" d="M33 124L117 593L242 700H588L689 579L671 480H535L545 537L507 584H302L242 533L176 167L218 116H427L484 164L503 274H354L374 390H655L605 103L482 0H135L33 124Z" />
<glyph unicode="H" glyph-name="H" horiz-adv-x="698" d="M145 700H281L230 407H525L576 700H712L589 0H453L504 291H209L158 0H22L145 700Z" />
<glyph unicode="I" glyph-name="I" horiz-adv-x="276" d="M150 700H286L162 0H26L150 700Z" />
<glyph unicode="J" glyph-name="J" horiz-adv-x="580" d="M-1 129L21 251H153L138 167L180 116H313L369 163L464 700H600L495 107L370 0H105L-1 129Z" />
<glyph unicode="K" glyph-name="K" horiz-adv-x="651" d="M145 700H281L230 407H327L547 700H708L442 351L602 0H457L324 291H209L158 0H22L145 700Z" />
<glyph unicode="L" glyph-name="L" horiz-adv-x="561" d="M145 700H281L178 115H527L507 0H22L145 700Z" />
<glyph unicode="M" glyph-name="M" horiz-adv-x="801" d="M145 700H263L392 248H394L681 700H815L692 0H561L636 426H634L416 98H332L230 426H228L153 0H22L145 700Z" />
<glyph unicode="N" glyph-name="N" horiz-adv-x="697" d="M145 700H267L496 225H498L581 700H712L588 0H466L239 474H237L153 0H22L145 700Z" />
<glyph unicode="O" glyph-name="O" horiz-adv-x="700" d="M33 124L116 593L241 700H601L703 577L619 103L497 0H135L33 124ZM434 116L494 167L559 533L517 584H302L242 533L176 167L218 116H434Z" />
<glyph unicode="P" glyph-name="P" horiz-adv-x="646" d="M145 700H575L670 584L626 336L511 238H200L158 0H22L145 700ZM460 352L501 387L530 551L501 586H261L220 352H460Z" />
<glyph unicode="Q" glyph-name="Q" horiz-adv-x="700" d="M619 103L540 37L615 -56L517 -140L398 0H135L33 124L116 593L241 700H601L703 577L619 103ZM559 533L517 584H302L242 533L176 167L218 116H434L494 167L559 533Z" />
<glyph unicode="R" glyph-name="R" horiz-adv-x="675" d="M633 372L557 307L612 232L571 0H435L471 207L427 268H205L158 0H22L145 700H575L670 584L633 372ZM225 380H465L506 415L530 551L501 586H261L225 380Z" />
<glyph unicode="S" glyph-name="S" horiz-adv-x="637" d="M27 116L44 208H178L167 149L194 116H400L440 150L461 266L434 299H177L81 415L113 600L231 700H546L643 584L627 491H493L503 551L476 584H278L239 551L221 448L248 415H505L601 299L565 100L448 0H123L27 116Z" />
<glyph unicode="T" glyph-name="T" horiz-adv-x="584" d="M284 585H75L95 700H649L628 585H420L317 0H181L284 585Z" />
<glyph unicode="U" glyph-name="U" horiz-adv-x="700" d="M44 128L145 700H281L187 167L229 116H424L484 167L578 700H714L610 110L481 0H150L44 128Z" />
<glyph unicode="V" glyph-name="V" horiz-adv-x="650" d="M90 700H224L303 162H305L574 700H720L348 0H216L90 700Z" />
<glyph unicode="W" glyph-name="W" horiz-adv-x="879" d="M105 700H239L237 206H241L467 700H569L618 206H622L794 700H934L666 0H539L486 492H482L254 0H127L105 700Z" />
<glyph unicode="X" glyph-name="X" horiz-adv-x="652" d="M269 361L94 700H241L359 470L557 700H716L422 357L603 0H456L332 247L120 0H-39L269 361Z" />
<glyph unicode="Y" glyph-name="Y" horiz-adv-x="634" d="M256 286L80 700H221L337 413H339L557 700H714L392 286L342 0H206L256 286Z" />
<glyph unicode="Z" glyph-name="Z" horiz-adv-x="592" d="M10 108L453 584V586H104L124 700H636L617 592L174 116V114H533L513 0H-9L10 108Z" />
<glyph unicode="[" glyph-name="bracketleft" horiz-adv-x="344" d="M165 816H429L408 702H276L152 -3H284L264 -117H0L165 816Z" />
<glyph unicode="\" glyph-name="backslash" horiz-adv-x="537" d="M80 700H217L493 0H357L80 700Z" />
<glyph unicode="]" glyph-name="bracketright" horiz-adv-x="344" d="M214 -117H-50L-29 -3H103L227 702H95L115 816H379L214 -117Z" />
<glyph unicode="^" glyph-name="asciicircum" horiz-adv-x="657" d="M344 700H468L616 244H484L389 553H383L183 244H39L344 700Z" />
<glyph unicode="_" glyph-name="underscore" horiz-adv-x="482" d="M-45 -10H436L416 -122H-65L-45 -10Z" />
<glyph unicode="`" glyph-name="grave" horiz-adv-x="240" d="M96 713H235L281 544H165L96 713Z" />
<glyph unicode="a" glyph-name="a" horiz-adv-x="575" d="M19 100L38 212L139 298H398L408 361L383 392H234L198 361L193 333H63L76 398L192 498H448L543 382L476 0H357L369 71L283 0H101L19 100ZM292 102L376 171L382 204H194L162 177L153 127L174 102H292Z" />
<glyph unicode="b" glyph-name="b" horiz-adv-x="600" d="M37 116L142 714H274L224 429L309 498H483L574 386L522 94L413 0H131L37 116ZM356 112L401 151L435 347L404 386H306L200 296L175 151L206 112H356Z" />
<glyph unicode="c" glyph-name="c" horiz-adv-x="558" d="M26 110L77 404L187 498H461L552 386L537 302H405L414 351L385 386H241L200 351L164 147L193 112H337L378 147L387 196H519L500 94L391 0H115L26 110Z" />
<glyph unicode="d" glyph-name="d" horiz-adv-x="602" d="M26 112L77 402L189 498H387L443 440L492 714H624L498 0H374L387 77L298 0H118L26 112ZM305 112L401 195L424 325L367 386H245L200 347L165 151L196 112H305Z" />
<glyph unicode="e" glyph-name="e" horiz-adv-x="583" d="M26 110L77 402L190 498H470L562 386L530 205H175L164 141L190 108H352L388 139L392 165H522L509 90L404 0H116L26 110ZM414 297L425 355L397 390H242L202 355L191 297H414Z" />
<glyph unicode="f" glyph-name="f" horiz-adv-x="400" d="M129 387H39L59 498H149L167 605L277 698H469L450 589H323L290 561L279 498H434L414 387H261L193 0H61L129 387Z" />
<glyph unicode="g" glyph-name="g" horiz-adv-x="602" d="M586 498L476 -124L361 -221H88L4 -121L15 -61H147L142 -91L157 -111H311L352 -76L378 65L298 0H118L26 112L77 402L189 498H385L451 423L464 498H586ZM424 325L367 386H245L200 347L165 151L196 112H305L401
195L424 325Z" />
<glyph unicode="h" glyph-name="h" horiz-adv-x="594" d="M142 714H274L222 424L309 498H464L562 379L495 0H363L425 351L397 386H315L198 286L148 0H16L142 714Z" />
<glyph unicode="i" glyph-name="i" horiz-adv-x="272" d="M118 602L129 666L184 712H253L290 666L279 600L227 556H156L118 602ZM115 498H247L159 0H27L115 498Z" />
<glyph unicode="j" glyph-name="j" horiz-adv-x="287" d="M133 602L144 666L198 712H267L305 666L294 600L241 556H170L133 602ZM-127 -106H-12L29 -71L129 498H261L152 -121L38 -218H-147L-127 -106Z" />
<glyph unicode="k" glyph-name="k" horiz-adv-x="567" d="M143 714H275L204 315H285L444 498H596L387 258L518 0H382L278 203H184L148 0H16L143 714Z" />
<glyph unicode="l" glyph-name="l" horiz-adv-x="262" d="M148 714H280L153 0H21L148 714Z" />
<glyph unicode="m" glyph-name="m" horiz-adv-x="861" d="M104 498H226L211 416L307 498H429L485 429L565 498H734L829 382L761 0H629L691 351L663 386H580L518 333L459 0H331L393 353L367 386H311L199 290L148 0H16L104 498Z" />
<glyph unicode="n" glyph-name="n" horiz-adv-x="592" d="M104 498H226L211 415L309 498H462L560 379L493 0H361L423 351L395 386H315L198 286L148 0H16L104 498Z" />
<glyph unicode="o" glyph-name="o" horiz-adv-x="592" d="M26 112L77 402L189 498H474L566 386L515 94L406 0H118L26 112ZM351 110L392 145L428 353L399 388H242L201 353L164 145L193 110H351Z" />
<glyph unicode="p" glyph-name="p" horiz-adv-x="602" d="M104 498H226L213 425L299 498H484L576 386L524 94L414 0H220L159 60L111 -212H-21L104 498ZM360 112L401 147L438 351L409 386H296L202 305L181 183L247 112H360Z" />
<glyph unicode="q" glyph-name="q" horiz-adv-x="595" d="M377 71L294 0H118L26 112L77 402L189 498H469L563 382L459 -212H327L377 71ZM295 112L401 207L427 351L399 386H241L201 351L165 147L192 112H295Z" />
<glyph unicode="r" glyph-name="r" horiz-adv-x="409" d="M104 498H226L211 415L306 498H448L428 386H317L197 282L148 0H16L104 498Z" />
<glyph unicode="s" glyph-name="s" horiz-adv-x="536" d="M10 106L19 159H149L144 131L162 108H324L350 131L357 174L339 198H132L47 301L67 410L170 498H430L516 392L506 339H376L381 367L363 390H215L189 367L183 328L201 304H408L493 201L473 88L370 0H96L10 106Z" />
<glyph unicode="t" glyph-name="t" horiz-adv-x="414" d="M80 110L129 387H39L59 498H151L179 660H309L281 498H433L413 386H261L218 145L247 112H365L345 0H172L80 110Z" />
<glyph unicode="u" glyph-name="u" horiz-adv-x="591" d="M32 113L99 498H231L169 146L197 112H275L393 212L443 498H575L487 0H365L380 85L279 0H124L32 113Z" />
<glyph unicode="v" glyph-name="v" horiz-adv-x="510" d="M44 498H176L231 151H235L412 498H554L275 0H147L44 498Z" />
<glyph unicode="w" glyph-name="w" horiz-adv-x="729" d="M64 498H195L197 184H201L346 498H466L494 184H498L616 498H753L536 0H413L380 336H376L219 0H96L64 498Z" />
<glyph unicode="x" glyph-name="x" horiz-adv-x="528" d="M334 0L251 152L114 0H-39L192 253L54 498H199L278 352L409 498H562L338 251L479 0H334Z" />
<glyph unicode="y" glyph-name="y" horiz-adv-x="593" d="M577 498L467 -124L351 -221H88L4 -121L15 -61H147L142 -91L157 -111H303L343 -76L370 74L283 0H110L29 100L99 498H231L169 147L197 112H284L394 211L445 498H577Z" />
<glyph unicode="z" glyph-name="z" horiz-adv-x="498" d="M-1 102L327 389V391H60L79 498H517L499 396L171 109V107H448L429 0H-19L-1 102Z" />
<glyph unicode="{" glyph-name="braceleft" horiz-adv-x="377" d="M61 -19L106 238L42 318L53 382L145 462L190 718L306 816H462L442 702H354L314 668L272 429L185 354L184 346L244 271L201 31L229 -3H317L297 -117H140L61 -19Z" />
<glyph unicode="|" glyph-name="bar" horiz-adv-x="264" d="M170 846H304L119 -204H-15L170 846Z" />
<glyph unicode="}" glyph-name="braceright" horiz-adv-x="377" d="M352 718L307 461L371 381L360 317L268 237L223 -19L107 -117H-49L-29 -3H59L99 31L141 270L228 345L229 353L169 428L212 668L184 702H96L116 816H273L352 718Z" />
<glyph unicode="~" glyph-name="asciitilde" horiz-adv-x="586" d="M213 261H196L168 236L157 174H27L45 274L168 380H268L380 283H393L426 312L437 370H567L549 270L425 164H325L213 261Z" />
<glyph unicode="&#xa0;" glyph-name="uni00A0" horiz-adv-x="272" />
<glyph unicode="&#xa1;" glyph-name="exclamdown" horiz-adv-x="274" d="M250 455L240 395L190 352H122L86 395L96 455L147 498H215L250 455ZM150 -68L126 -202H-10L14 -68L94 296H198L150 -68Z" />
<glyph unicode="&#xa2;" glyph-name="cent" horiz-adv-x="558" d="M405 302L414 351L385 386H241L200 351L164 147L193 112H337L378 147L387 196H519L500 94L391 0H307L287 -110H169L189 0H115L26 110L77 404L187 498H276L294 598H412L394 498H461L552 386L537 302H405Z" />
<glyph unicode="&#xa3;" glyph-name="sterling" horiz-adv-x="632" d="M515 502L523 549L492 586H377L317 535L292 390H529L509 278H272L262 219L175 135L171 114H588L568 0H13L39 146L130 234L138 278H45L65 390H157L191 582L330 700H561L661 580L647 502H515Z" />
<glyph unicode="&#xa4;" glyph-name="currency" horiz-adv-x="659" d="M568 226L532 196L596 118L504 40L441 118L410 92H194L172 119L81 40L17 118L109 196L84 226L121 436L157 466L92 545L184 623L248 544L279 570H495L516 544L607 623L671 545L579 467L605
436L568 226ZM390 208L445 255L472 407L433 454H299L244 407L217 255L256 208H390Z" />
<glyph unicode="&#xa5;" glyph-name="yen" horiz-adv-x="634" d="M425 329H555L537 231H382L374 185H529L512 87H357L342 0H206L221 87H66L83 185H238L246 231H91L109 329H238L80 700H221L337 413H339L557 700H714L425 329Z" />
<glyph unicode="&#xa6;" glyph-name="brokenbar" horiz-adv-x="264" d="M170 846H304L225 395H91L170 846ZM68 267H202L119 -204H-15L68 267Z" />
<glyph unicode="&#xa7;" glyph-name="section" horiz-adv-x="546" d="M401 533L408 569L389 592H269L242 569L231 512L251 488H441L529 382L507 262L435 201L474 154L453 40L350 -48H115L27 58L38 119H172L166 83L185 60H304L331 83L340 136L321 164H128L43 267L66
394L135 451L98 495L118 610L226 700H459L546 594L535 533H401ZM189 359L178 294L198 270H356L383 293L394 358L375 382H217L189 359Z" />
<glyph unicode="&#xa8;" glyph-name="dieresis" horiz-adv-x="399" d="M78 590L88 648L134 687H201L232 647L222 589L179 551H110L78 590ZM298 591L308 647L353 687H420L452 648L442 588L398 551H329L298 591Z" />
<glyph unicode="&#xa9;" glyph-name="copyright" horiz-adv-x="838" d="M32 201L87 515L305 700H674L841 499L786 183L570 0H198L32 201ZM531 102L686 234L727 466L618 598H342L187 466L146 234L255 102H531ZM220 273L250 443L372 547L558 548L656 429L646 377H540L546
406L512 447H408L355 402L337 298L374 253H478L526 294L532 327H638L626 256L505 153H319L220 273Z" />
<glyph unicode="&#xaa;" glyph-name="ordfeminine" horiz-adv-x="428" d="M65 417L78 495L154 560H331L337 597L326 611H226L214 601L210 582H96L104 625L192 700H379L452 612L406 351H308L316 398L253 351H120L65 417ZM272 435L314 467L318 490H203L187 476L182
449L193 435H272Z" />
<glyph unicode="&#xab;" glyph-name="guillemotleft" horiz-adv-x="571" d="M16 225L32 313L318 506L293 360L147 264L146 258L258 162L235 32L16 225ZM274 225L290 313L576 506L551 360L405 264L404 258L516 162L493 32L274 225Z" />
<glyph unicode="&#xac;" glyph-name="logicalnot" horiz-adv-x="561" d="M397 294H48L68 406H549L503 146H371L397 294Z" />
<glyph unicode="&#xad;" glyph-name="uni00AD" horiz-adv-x="432" d="M51 314H403L383 200H31L51 314Z" />
<glyph unicode="&#xae;" glyph-name="registered" horiz-adv-x="557" d="M65 387L104 612L239 726H473L579 598L538 371L406 259H170L65 387ZM378 336L460 406L491 579L433 649H265L183 579L152 406L210 336H378ZM248 610H395L435 562L423 497L394 474L415 446L405
387H337L344 429L329 449H288L277 387H209L248 610ZM347 505L361 517L366 544L356 556H305L296 505H347Z" />
<glyph unicode="&#xaf;" glyph-name="overscore" horiz-adv-x="342" d="M75 660H415L396 554H56L75 660Z" />
<glyph unicode="&#xb0;" glyph-name="degree" horiz-adv-x="362" d="M91 541L111 653L197 726H321L391 641L371 527L287 456H161L91 541ZM255 541L287 568L295 614L273 641H227L195 614L187 568L209 541H255Z" />
<glyph unicode="&#xb1;" glyph-name="plusminus" horiz-adv-x="564" d="M554 420L534 308H358L333 164H201L226 308H50L70 420H246L273 574H405L378 420H554ZM16 112H500L480 0H-4L16 112Z" />
<glyph unicode="&#xb2;" glyph-name="uni00B2" horiz-adv-x="398" d="M50 377L304 550L309 582L298 596H225L208 582L201 542H77L92 626L179 700H370L441 614L423 513L217 382L216 378H401L384 280H33L50 377Z" />
<glyph unicode="&#xb3;" glyph-name="uni00B3" horiz-adv-x="431" d="M51 366L61 421H185L181 395L191 381H274L291 395L298 436L289 447H173L188 535H304L317 547L324 585L312 599H234L218 585L213 559H89L102 630L184 700H384L456 614L439 522L402 491L428 460L409
348L329 280H122L51 366Z" />
<glyph unicode="&#xb4;" glyph-name="acute" horiz-adv-x="253" d="M178 713H317L188 544H72L178 713Z" />
<glyph unicode="&#xb6;" glyph-name="paragraph" horiz-adv-x="605" d="M247 279H167L67 401L102 594L227 700H440L281 -204H162L247 279ZM499 700H619L460 -204H340L499 700Z" />
<glyph unicode="&#xb7;" glyph-name="middot" horiz-adv-x="238" d="M40 247L52 311L102 354H175L209 310L199 248L149 204H76L40 247Z" />
<glyph unicode="&#xb8;" glyph-name="cedilla" horiz-adv-x="279" d="M-44 -150H74L88 -138L93 -112L83 -100H-16L-11 -69L58 54H152L101 -34H153L194 -84L178 -172L117 -224H-57L-44 -150Z" />
<glyph unicode="&#xb9;" glyph-name="uni00B9" horiz-adv-x="292" d="M172 566L68 519L88 633L222 700H322L248 280H122L172 566Z" />
<glyph unicode="&#xba;" glyph-name="ordmasculine" horiz-adv-x="427" d="M68 435L102 628L187 700H388L457 616L422 421L339 351H136L68 435ZM292 446L315 466L337 585L321 605H233L210 585L188 466L204 446H292Z" />
<glyph unicode="&#xbb;" glyph-name="guillemotright" horiz-adv-x="571" d="M304 313L288 225L2 32L27 178L173 274L174 280L62 376L85 506L304 313ZM562 313L546 225L260 32L285 178L431 274L432 280L320 376L343 506L562 313Z" />
<glyph unicode="&#xbc;" glyph-name="onequarter" horiz-adv-x="873" d="M624 66H415L433 168L667 420H812L768 170H819L801 66H750L738 0H612L624 66ZM653 164L677 299H675L560 172L558 164H653ZM765 700L241 0H105L629 700H765ZM192 566L88 519L108 633L242
700H342L268 280H142L192 566Z" />
<glyph unicode="&#xbd;" glyph-name="onehalf" horiz-adv-x="921" d="M765 700L241 0H105L629 700H765ZM192 566L88 519L108 633L242 700H342L268 280H142L192 566ZM503 97L757 270L762 302L751 316H678L661 302L654 262H530L545 346L632 420H823L894 334L876
233L670 102L669 98H854L837 0H486L503 97Z" />
<glyph unicode="&#xbe;" glyph-name="threequarters" horiz-adv-x="973" d="M61 366L71 421H195L191 395L201 381H284L301 395L308 436L299 447H183L198 535H314L327 547L334 585L322 599H244L228 585L223 559H99L112 630L194 700H394L466 614L449 522L412 491L438
460L419 348L339 280H132L61 366ZM724 66H515L533 168L767 420H912L868 170H919L901 66H850L838 0H712L724 66ZM753 164L777 299H775L660 172L658 164H753ZM867 700L343 0H207L731 700H867Z" />
<glyph unicode="&#xbf;" glyph-name="questiondown" horiz-adv-x="562" d="M401 455L391 395L341 352H273L237 395L247 455L298 498H366L401 455ZM342 184L133 10L125 -35L167 -86H297L352 -39L362 18H496L478 -88L343 -202H95L-16 -68L6 50L218 226L232 307H364L342
184Z" />
<glyph unicode="&#xc0;" glyph-name="Agrave" horiz-adv-x="646" d="M340 700H464L597 0H459L431 155H185L99 0H-39L340 700ZM418 267L373 533H371L233 267H418ZM275 915H414L460 746H344L275 915Z" />
<glyph unicode="&#xc1;" glyph-name="Aacute" horiz-adv-x="646" d="M340 700H464L597 0H459L431 155H185L99 0H-39L340 700ZM418 267L373 533H371L233 267H418ZM453 915H592L463 746H347L453 915Z" />
<glyph unicode="&#xc2;" glyph-name="Acircumflex" horiz-adv-x="646" d="M340 700H464L597 0H459L431 155H185L99 0H-39L340 700ZM418 267L373 533H371L233 267H418ZM382 907H488L602 746H478L426 821H420L342 746H212L382 907Z" />
<glyph unicode="&#xc3;" glyph-name="Atilde" horiz-adv-x="646" d="M340 700H464L597 0H459L431 155H185L99 0H-39L340 700ZM418 267L373 533H371L233 267H418ZM374 808H352L337 796L331 763L235 762L248 833L329 902H413L468 850H491L505 862L511 896H607L594
825L513 756H429L374 808Z" />
<glyph unicode="&#xc4;" glyph-name="Adieresis" horiz-adv-x="646" d="M340 700H464L597 0H459L431 155H185L99 0H-39L340 700ZM418 267L373 533H371L233 267H418ZM232 792L242 850L288 889H355L386 849L376 791L333 753H264L232 792ZM452 793L462 849L507 889H574L606
850L596 790L552 753H483L452 793Z" />
<glyph unicode="&#xc5;" glyph-name="Aring" horiz-adv-x="646" d="M340 700H464L597 0H459L431 155H185L99 0H-39L340 700ZM418 267L373 533H371L233 267H418ZM296 820L313 918L388 982H498L559 908L542 809L468 746H357L296 820ZM442 821L470 845L477 883L457
907H413L385 883L378 845L398 821H442Z" />
<glyph unicode="&#xc6;" glyph-name="AE" horiz-adv-x="957" d="M623 582L592 410H921L901 294H572L541 118H899L878 0H384L416 179H207L98 0H-44L392 700H1001L981 582H623ZM436 293L487 582H454L277 293H436Z" />
<glyph unicode="&#xc7;" glyph-name="Ccedilla" horiz-adv-x="655" d="M529 480L539 537L501 584H301L241 533L176 167L218 116H418L473 163L484 220H620L599 105L476 0H346L326 -34H378L419 -84L402 -177L347 -224H168L181 -150H299L313 -138L318 -112L308 -100H209L214
-69L253 0H135L33 124L116 593L241 700H582L683 579L665 480H529Z" />
<glyph unicode="&#xc8;" glyph-name="Egrave" horiz-adv-x="606" d="M145 700H650L630 585H261L230 408H570L550 295H210L178 115H547L527 0H22L145 700ZM251 915H390L436 746H320L251 915Z" />
<glyph unicode="&#xc9;" glyph-name="Eacute" horiz-adv-x="606" d="M145 700H650L630 585H261L230 408H570L550 295H210L178 115H547L527 0H22L145 700ZM458 915H597L468 746H352L458 915Z" />
<glyph unicode="&#xca;" glyph-name="Ecircumflex" horiz-adv-x="606" d="M145 700H650L630 585H261L230 408H570L550 295H210L178 115H547L527 0H22L145 700ZM387 907H493L607 746H483L431 821H425L347 746H217L387 907Z" />
<glyph unicode="&#xcb;" glyph-name="Edieresis" horiz-adv-x="606" d="M145 700H650L630 585H261L230 408H570L550 295H210L178 115H547L527 0H22L145 700ZM237 792L247 850L293 889H360L391 849L381 791L338 753H269L237 792ZM457 793L467 849L512 889H579L611
850L601 790L557 753H488L457 793Z" />
<glyph unicode="&#xcc;" glyph-name="Igrave" horiz-adv-x="276" d="M150 700H286L162 0H26L150 700ZM94 915H233L279 746H163L94 915Z" />
<glyph unicode="&#xcd;" glyph-name="Iacute" horiz-adv-x="276" d="M150 700H286L162 0H26L150 700ZM272 915H411L282 746H166L272 915Z" />
<glyph unicode="&#xce;" glyph-name="Icircumflex" horiz-adv-x="276" d="M150 700H286L162 0H26L150 700ZM201 907H307L421 746H297L245 821H239L161 746H31L201 907Z" />
<glyph unicode="&#xcf;" glyph-name="Idieresis" horiz-adv-x="276" d="M150 700H286L162 0H26L150 700ZM51 792L61 850L107 889H174L205 849L195 791L152 753H83L51 792ZM271 793L281 849L326 889H393L425 850L415 790L371 753H302L271 793Z" />
<glyph unicode="&#xd0;" glyph-name="Eth" horiz-adv-x="738" d="M740 572L657 103L535 0H72L123 292H18L39 410H144L195 700H634L740 572ZM597 533L555 584H311L280 410H434L413 292H259L228 116H472L532 167L597 533Z" />
<glyph unicode="&#xd1;" glyph-name="Ntilde" horiz-adv-x="697" d="M145 700H267L496 225H498L581 700H712L588 0H466L239 474H237L153 0H22L145 700ZM394 808H372L357 796L351 763L255 762L268 833L349 902H433L488 850H511L525 862L531 896H627L614 825L533
756H449L394 808Z" />
<glyph unicode="&#xd2;" glyph-name="Ograve" horiz-adv-x="700" d="M33 124L116 593L241 700H601L703 577L619 103L497 0H135L33 124ZM434 116L494 167L559 533L517 584H302L242 533L176 167L218 116H434ZM302 915H441L487 746H371L302 915Z" />
<glyph unicode="&#xd3;" glyph-name="Oacute" horiz-adv-x="700" d="M33 124L116 593L241 700H601L703 577L619 103L497 0H135L33 124ZM434 116L494 167L559 533L517 584H302L242 533L176 167L218 116H434ZM480 915H619L490 746H374L480 915Z" />
<glyph unicode="&#xd4;" glyph-name="Ocircumflex" horiz-adv-x="700" d="M33 124L116 593L241 700H601L703 577L619 103L497 0H135L33 124ZM434 116L494 167L559 533L517 584H302L242 533L176 167L218 116H434ZM409 907H515L629 746H505L453 821H447L369 746H239L409
907Z" />
<glyph unicode="&#xd5;" glyph-name="Otilde" horiz-adv-x="700" d="M33 124L116 593L241 700H601L703 577L619 103L497 0H135L33 124ZM434 116L494 167L559 533L517 584H302L242 533L176 167L218 116H434ZM401 808H379L364 796L358 763L262 762L275 833L356 902H440L495
850H518L532 862L538 896H634L621 825L540 756H456L401 808Z" />
<glyph unicode="&#xd6;" glyph-name="Odieresis" horiz-adv-x="700" d="M33 124L116 593L241 700H601L703 577L619 103L497 0H135L33 124ZM434 116L494 167L559 533L517 584H302L242 533L176 167L218 116H434ZM259 792L269 850L315 889H382L413 849L403 791L360
753H291L259 792ZM479 793L489 849L534 889H601L633 850L623 790L579 753H510L479 793Z" />
<glyph unicode="&#xd7;" glyph-name="multiply" horiz-adv-x="508" d="M338 264L447 132L351 50L242 182L87 50L19 132L175 264L66 396L162 478L271 346L426 478L494 396L338 264Z" />
<glyph unicode="&#xd8;" glyph-name="Oslash" horiz-adv-x="700" d="M671 616L703 577L619 103L497 0H135L111 29L46 -40H-63L61 90L33 124L116 593L241 700H601L620 677L680 740H789L671 616ZM186 221L524 576L517 584H302L242 533L186 221ZM551 491L207 129L218
116H434L494 167L551 491Z" />
<glyph unicode="&#xd9;" glyph-name="Ugrave" horiz-adv-x="700" d="M44 128L145 700H281L187 167L229 116H424L484 167L578 700H714L610 110L481 0H150L44 128ZM280 915H419L465 746H349L280 915Z" />
<glyph unicode="&#xda;" glyph-name="Uacute" horiz-adv-x="700" d="M44 128L145 700H281L187 167L229 116H424L484 167L578 700H714L610 110L481 0H150L44 128ZM484 915H623L494 746H378L484 915Z" />
<glyph unicode="&#xdb;" glyph-name="Ucircumflex" horiz-adv-x="700" d="M44 128L145 700H281L187 167L229 116H424L484 167L578 700H714L610 110L481 0H150L44 128ZM413 907H519L633 746H509L457 821H451L373 746H243L413 907Z" />
<glyph unicode="&#xdc;" glyph-name="Udieresis" horiz-adv-x="700" d="M44 128L145 700H281L187 167L229 116H424L484 167L578 700H714L610 110L481 0H150L44 128ZM263 792L273 850L319 889H386L417 849L407 791L364 753H295L263 792ZM483 793L493 849L538 889H605L637
850L627 790L583 753H514L483 793Z" />
<glyph unicode="&#xdd;" glyph-name="Yacute" horiz-adv-x="634" d="M256 286L80 700H221L337 413H339L557 700H714L392 286L342 0H206L256 286ZM442 915H581L452 746H336L442 915Z" />
<glyph unicode="&#xde;" glyph-name="Thorn" horiz-adv-x="646" d="M649 465L605 217L490 119H179L157 0H21L124 581L145 700H281L260 581H554L649 465ZM509 432L480 467H240L238 453L199 233H439L480 268L509 432Z" />
<glyph unicode="&#xdf;" glyph-name="germandbls" horiz-adv-x="655" d="M128 605L239 700H508L600 589L580 475L481 385L477 365L482 359H550L636 255L607 88L503 0H305L224 98L237 170H367L360 133L379 110H455L482 133L499 225L479 249H400L338 324L352 400L451
494L463 560L440 588H285L252 560L153 0H21L128 605Z" />
<glyph unicode="&#xe0;" glyph-name="agrave" horiz-adv-x="575" d="M19 100L38 212L139 298H398L408 361L383 392H234L198 361L193 333H63L76 398L192 498H448L543 382L476 0H357L369 71L283 0H101L19 100ZM292 102L376 171L382 204H194L162 177L153 127L174
102H292ZM225 713H364L410 544H294L225 713Z" />
<glyph unicode="&#xe1;" glyph-name="aacute" horiz-adv-x="575" d="M19 100L38 212L139 298H398L408 361L383 392H234L198 361L193 333H63L76 398L192 498H448L543 382L476 0H357L369 71L283 0H101L19 100ZM292 102L376 171L382 204H194L162 177L153 127L174
102H292ZM388 713H527L398 544H282L388 713Z" />
<glyph unicode="&#xe2;" glyph-name="acircumflex" horiz-adv-x="575" d="M19 100L38 212L139 298H398L408 361L383 392H234L198 361L193 333H63L76 398L192 498H448L543 382L476 0H357L369 71L283 0H101L19 100ZM292 102L376 171L382 204H194L162 177L153 127L174
102H292ZM317 705H423L537 544H413L361 619H355L277 544H147L317 705Z" />
<glyph unicode="&#xe3;" glyph-name="atilde" horiz-adv-x="575" d="M19 100L38 212L139 298H398L408 361L383 392H234L198 361L193 333H63L76 398L192 498H448L543 382L476 0H357L369 71L283 0H101L19 100ZM292 102L376 171L382 204H194L162 177L153 127L174
102H292ZM309 606H287L272 594L266 561L170 560L183 631L264 700H348L403 648H426L440 660L446 694H542L529 623L448 554H364L309 606Z" />
<glyph unicode="&#xe4;" glyph-name="adieresis" horiz-adv-x="575" d="M19 100L38 212L139 298H398L408 361L383 392H234L198 361L193 333H63L76 398L192 498H448L543 382L476 0H357L369 71L283 0H101L19 100ZM292 102L376 171L382 204H194L162 177L153 127L174
102H292ZM167 590L177 648L223 687H290L321 647L311 589L268 551H199L167 590ZM387 591L397 647L442 687H509L541 648L531 588L487 551H418L387 591Z" />
<glyph unicode="&#xe5;" glyph-name="aring" horiz-adv-x="575" d="M19 100L38 212L139 298H398L408 361L383 392H234L198 361L193 333H63L76 398L192 498H448L543 382L476 0H357L369 71L283 0H101L19 100ZM292 102L376 171L382 204H194L162 177L153 127L174 102H292ZM231
618L248 716L323 780H433L494 706L477 607L403 544H292L231 618ZM377 619L405 643L412 681L392 705H348L320 681L313 643L333 619H377Z" />
<glyph unicode="&#xe6;" glyph-name="ae" horiz-adv-x="915" d="M518 205L507 141L533 108H684L720 139L724 165H854L841 90L736 0H469L412 71L329 0H101L19 100L38 212L140 298H402L413 361L386 392H234L198 361L193 333H63L76 398L192 498H450L494 445L555 498H802L894
386L862 205H518ZM545 355L534 297H746L757 355L729 390H585L545 355ZM379 165L386 204H194L162 177L153 127L174 102H305L379 165Z" />
<glyph unicode="&#xe7;" glyph-name="ccedilla" horiz-adv-x="558" d="M405 302L414 351L385 386H241L200 351L164 147L193 112H337L378 147L387 196H519L500 94L391 0H291L271 -34H323L364 -84L347 -177L292 -224H113L126 -150H244L258 -138L263 -112L253 -100H154L159
-69L198 0H115L26 110L77 404L187 498H461L552 386L537 302H405Z" />
<glyph unicode="&#xe8;" glyph-name="egrave" horiz-adv-x="583" d="M26 110L77 402L190 498H470L562 386L530 205H175L164 141L190 108H352L388 139L392 165H522L509 90L404 0H116L26 110ZM414 297L425 355L397 390H242L202 355L191 297H414ZM208 713H347L393
544H277L208 713Z" />
<glyph unicode="&#xe9;" glyph-name="eacute" horiz-adv-x="583" d="M26 110L77 402L190 498H470L562 386L530 205H175L164 141L190 108H352L388 139L392 165H522L509 90L404 0H116L26 110ZM414 297L425 355L397 390H242L202 355L191 297H414ZM386 713H525L396
544H280L386 713Z" />
<glyph unicode="&#xea;" glyph-name="ecircumflex" horiz-adv-x="583" d="M26 110L77 402L190 498H470L562 386L530 205H175L164 141L190 108H352L388 139L392 165H522L509 90L404 0H116L26 110ZM414 297L425 355L397 390H242L202 355L191 297H414ZM315 705H421L535
544H411L359 619H353L275 544H145L315 705Z" />
<glyph unicode="&#xeb;" glyph-name="edieresis" horiz-adv-x="583" d="M26 110L77 402L190 498H470L562 386L530 205H175L164 141L190 108H352L388 139L392 165H522L509 90L404 0H116L26 110ZM414 297L425 355L397 390H242L202 355L191 297H414ZM165 590L175
648L221 687H288L319 647L309 589L266 551H197L165 590ZM385 591L395 647L440 687H507L539 648L529 588L485 551H416L385 591Z" />
<glyph unicode="&#xec;" glyph-name="igrave" horiz-adv-x="272" d="M114 498H246L158 0H26L114 498ZM56 713H195L241 544H125L56 713Z" />
<glyph unicode="&#xed;" glyph-name="iacute" horiz-adv-x="272" d="M114 498H246L158 0H26L114 498ZM234 713H373L244 544H128L234 713Z" />
<glyph unicode="&#xee;" glyph-name="icircumflex" horiz-adv-x="272" d="M114 498H246L158 0H26L114 498ZM163 705H269L383 544H259L207 619H201L123 544H-7L163 705Z" />
<glyph unicode="&#xef;" glyph-name="idieresis" horiz-adv-x="272" d="M114 498H246L158 0H26L114 498ZM13 590L23 648L69 687H136L167 647L157 589L114 551H45L13 590ZM233 591L243 647L288 687H355L387 648L377 588L333 551H264L233 591Z" />
<glyph unicode="&#xf0;" glyph-name="eth" horiz-adv-x="617" d="M565 579L607 505L535 98L420 0H122L27 116L67 348L185 448H394L453 390L471 493L455 521L352 467L321 546L414 595L409 604H259L276 700H497L524 652L622 704L653 625L565 579ZM431 264L364 334H234L193
299L167 153L196 118H370L411 153L431 264Z" />
<glyph unicode="&#xf1;" glyph-name="ntilde" horiz-adv-x="592" d="M104 498H226L211 415L309 498H462L560 379L493 0H361L423 351L395 386H315L198 286L148 0H16L104 498ZM321 606H299L284 594L278 561L182 560L195 631L276 700H360L415 648H438L452 660L458
694H554L541 623L460 554H376L321 606Z" />
<glyph unicode="&#xf2;" glyph-name="ograve" horiz-adv-x="592" d="M26 112L77 402L189 498H474L566 386L515 94L406 0H118L26 112ZM351 110L392 145L428 353L399 388H242L201 353L164 145L193 110H351ZM209 713H348L394 544H278L209 713Z" />
<glyph unicode="&#xf3;" glyph-name="oacute" horiz-adv-x="592" d="M26 112L77 402L189 498H474L566 386L515 94L406 0H118L26 112ZM351 110L392 145L428 353L399 388H242L201 353L164 145L193 110H351ZM387 713H526L397 544H281L387 713Z" />
<glyph unicode="&#xf4;" glyph-name="ocircumflex" horiz-adv-x="592" d="M26 112L77 402L189 498H474L566 386L515 94L406 0H118L26 112ZM351 110L392 145L428 353L399 388H242L201 353L164 145L193 110H351ZM316 705H422L536 544H412L360 619H354L276 544H146L316 705Z" />
<glyph unicode="&#xf5;" glyph-name="otilde" horiz-adv-x="592" d="M26 112L77 402L189 498H474L566 386L515 94L406 0H118L26 112ZM351 110L392 145L428 353L399 388H242L201 353L164 145L193 110H351ZM308 606H286L271 594L265 561L169 560L182 631L263 700H347L402
648H425L439 660L445 694H541L528 623L447 554H363L308 606Z" />
<glyph unicode="&#xf6;" glyph-name="odieresis" horiz-adv-x="592" d="M26 112L77 402L189 498H474L566 386L515 94L406 0H118L26 112ZM351 110L392 145L428 353L399 388H242L201 353L164 145L193 110H351ZM166 590L176 648L222 687H289L320 647L310 589L267
551H198L166 590ZM386 591L396 647L441 687H508L540 648L530 588L486 551H417L386 591Z" />
<glyph unicode="&#xf7;" glyph-name="divide" horiz-adv-x="564" d="M238 402L248 456L295 496H357L390 456L380 400L335 362H271L238 402ZM53 320H537L517 208H33L53 320ZM179 72L189 126L236 166H298L331 126L321 70L276 32H212L179 72Z" />
<glyph unicode="&#xf8;" glyph-name="oslash" horiz-adv-x="592" d="M530 430L566 386L515 94L406 0H120L82 -40H-27L68 60L26 112L77 402L189 498H474L479 492L523 538H632L530 430ZM167 164L380 388H242L201 353L167 164ZM422 317L225 110H351L392 145L422 317Z" />
<glyph unicode="&#xf9;" glyph-name="ugrave" horiz-adv-x="591" d="M32 113L99 498H231L169 146L197 112H275L393 212L443 498H575L487 0H365L380 85L279 0H124L32 113ZM211 713H350L396 544H280L211 713Z" />
<glyph unicode="&#xfa;" glyph-name="uacute" horiz-adv-x="591" d="M32 113L99 498H231L169 146L197 112H275L393 212L443 498H575L487 0H365L380 85L279 0H124L32 113ZM391 713H530L401 544H285L391 713Z" />
<glyph unicode="&#xfb;" glyph-name="ucircumflex" horiz-adv-x="591" d="M32 113L99 498H231L169 146L197 112H275L393 212L443 498H575L487 0H365L380 85L279 0H124L32 113ZM320 705H426L540 544H416L364 619H358L280 544H150L320 705Z" />
<glyph unicode="&#xfc;" glyph-name="udieresis" horiz-adv-x="591" d="M32 113L99 498H231L169 146L197 112H275L393 212L443 498H575L487 0H365L380 85L279 0H124L32 113ZM170 590L180 648L226 687H293L324 647L314 589L271 551H202L170 590ZM390 591L400 647L445
687H512L544 648L534 588L490 551H421L390 591Z" />
<glyph unicode="&#xfd;" glyph-name="yacute" horiz-adv-x="593" d="M577 498L467 -124L351 -221H88L4 -121L15 -61H147L142 -91L157 -111H303L343 -76L370 74L283 0H110L29 100L99 498H231L169 147L197 112H284L394 211L445 498H577ZM393 713H532L403 544H287L393 713Z" />
<glyph unicode="&#xfe;" glyph-name="thorn" horiz-adv-x="602" d="M142 710H274L225 436L298 498H484L576 386L524 94L414 0H219L159 59L111 -212H-21L142 710ZM360 112L401 147L438 351L409 386H295L201 305L180 183L246 112H360Z" />
<glyph unicode="&#xff;" glyph-name="ydieresis" horiz-adv-x="593" d="M577 498L467 -124L351 -221H88L4 -121L15 -61H147L142 -91L157 -111H303L343 -76L370 74L283 0H110L29 100L99 498H231L169 147L197 112H284L394 211L445 498H577ZM172 590L182 648L228
687H295L326 647L316 589L273 551H204L172 590ZM392 591L402 647L447 687H514L546 648L536 588L492 551H423L392 591Z" />
<glyph unicode="&#x2013;" glyph-name="endash" horiz-adv-x="637" d="M51 314H608L588 200H31L51 314Z" />
<glyph unicode="&#x2014;" glyph-name="emdash" horiz-adv-x="751" d="M51 314H722L702 200H31L51 314Z" />
<glyph unicode="&#x2018;" glyph-name="quoteleft" horiz-adv-x="234" d="M187 566H209L245 523L234 459L183 416H108L74 460L92 566L173 700H251L187 566Z" />
<glyph unicode="&#x2019;" glyph-name="quoteright" horiz-adv-x="234" d="M156 550H134L98 593L109 657L160 700H235L269 656L251 550L170 416H92L156 550Z" />
<glyph unicode="&#x201a;" glyph-name="quotesinglbase" horiz-adv-x="234" d="M315 0H293L257 43L268 107L319 150H394L428 106L410 0L329 -134H251L315 0Z" />
<glyph unicode="&#x201c;" glyph-name="quotedblleft" horiz-adv-x="441" d="M187 566H209L245 523L234 459L183 416H108L74 460L92 566L173 700H251L187 566ZM394 566H416L452 523L441 459L390 416H315L281 460L299 566L380 700H458L394 566Z" />
<glyph unicode="&#x201d;" glyph-name="quotedblright" horiz-adv-x="441" d="M156 550H134L98 593L109 657L160 700H235L269 656L251 550L170 416H92L156 550ZM363 550H341L305 593L316 657L367 700H442L476 656L458 550L377 416H299L363 550Z" />
<glyph unicode="&#x201e;" glyph-name="quotedblbase" horiz-adv-x="441" d="M315 0H293L257 43L268 107L319 150H394L428 106L410 0L329 -134H251L315 0ZM266 0H244L208 43L219 107L270 150H345L379 106L361 0L280 -134H202L266 0Z" />
<glyph unicode="&#x2022;" glyph-name="bullet" horiz-adv-x="304" d="M39 242L57 343L124 402H230L280 339L262 236L196 179H89L39 242Z" />
<glyph unicode="&#x2039;" glyph-name="guilsinglleft" horiz-adv-x="313" d="M16 225L32 313L318 506L293 360L147 264L146 258L258 162L235 32L16 225Z" />
<glyph unicode="&#x203a;" glyph-name="guilsinglright" horiz-adv-x="313" d="M304 313L288 225L2 32L27 178L173 274L174 280L62 376L85 506L304 313Z" />
</font>
</defs>
</svg>
