<?xml version="1.0" standalone="no"?>
<!DOCTYPE svg PUBLIC "-//W3C//DTD SVG 1.1//EN" "http://www.w3.org/Graphics/SVG/1.1/DTD/svg11.dtd">
<svg xmlns="http://www.w3.org/2000/svg">
<defs >
<font id="ChakraPetch" horiz-adv-x="546" ><font-face
    font-family="Chakra Petch"
    units-per-em="1000"
    panose-1="0 0 5 0 0 0 0 0 0 0"
    ascent="992"
    descent="-308"
    alphabetic="0" />
<glyph unicode=" " glyph-name="space" horiz-adv-x="244" />
<glyph unicode="!" glyph-name="exclam" horiz-adv-x="244" d="M140 566L164 700H240L216 566L130 162H84L140 566ZM36 27L43 67L75 94H115L137 67L130 27L98 0H58L36 27Z" />
<glyph unicode="&quot;" glyph-name="quotedbl" horiz-adv-x="340" d="M120 586L140 700H216L196 586L158 460H114L120 586ZM264 586L284 700H360L340 586L302 460H258L264 586Z" />
<glyph unicode="#" glyph-name="numbersign" horiz-adv-x="687" d="M544 441L482 263H614L603 200H460L391 0H320L389 200H223L154 0H83L152 200H46L57 263H174L236 441H108L120 504H258L326 700H397L329 504H495L563 700H634L566 504H677L665 441H544ZM473 441H307L245
263H411L473 441Z" />
<glyph unicode="$" glyph-name="dollar" horiz-adv-x="613" d="M524 543L531 583L489 632H419L377 393H484L562 299L524 85L424 0H307L288 -110H218L237 0H119L39 97L49 156H124L117 117L157 68H249L295 325H176L98 420L132 613L234 700H361L380 810H450L431 700H528L609
603L598 543H524ZM349 632H260L202 583L177 442L218 393H307L349 632ZM365 325L319 68H397L456 119L483 276L442 325H365Z" />
<glyph unicode="%" glyph-name="percent" horiz-adv-x="826" d="M82 402L124 640L194 700H346L404 631L362 391L293 332H140L82 402ZM648 700H726L217 0H139L648 700ZM266 390L301 419L335 613L310 642H220L185 613L151 419L176 390H266ZM457 70L499 308L569 368H721L779
299L737 59L668 0H515L457 70ZM641 58L676 87L710 281L685 310H595L560 281L526 87L551 58H641Z" />
<glyph unicode="&amp;" glyph-name="ampersand" horiz-adv-x="638" d="M38 97L72 291L158 364L122 408L158 613L260 700H503L581 605L571 546H497L504 584L464 632H283L227 584L199 428L240 378H496L508 442H582L570 378H635L624 312H559L519 85L419 0H118L38
97ZM392 68L451 118L485 312H200L141 262L116 118L157 68H392Z" />
<glyph unicode="&apos;" glyph-name="quotesingle" horiz-adv-x="196" d="M120 586L140 700H216L196 586L158 460H114L120 586Z" />
<glyph unicode="(" glyph-name="parenleft" horiz-adv-x="309" d="M33 -20L165 729L267 816H384L373 750H293L234 701L110 -2L151 -51H231L220 -117H113L33 -20Z" />
<glyph unicode=")" glyph-name="parenright" horiz-adv-x="309" d="M312 719L180 -30L78 -117H-39L-28 -51H52L111 -2L235 701L194 750H114L125 816H232L312 719Z" />
<glyph unicode="*" glyph-name="asterisk" horiz-adv-x="340" d="M203 552L128 500L108 550L191 584L120 617L158 667L214 615L221 701H279L252 615L330 667L350 617L266 584L338 550L300 500L241 552L237 467H179L203 552Z" />
<glyph unicode="+" glyph-name="plus" horiz-adv-x="540" d="M482 231H304L274 59H200L230 231H52L63 297H242L272 469H346L316 297H493L482 231Z" />
<glyph unicode="," glyph-name="comma" horiz-adv-x="206" d="M49 0H37L13 29L21 73L55 102H99L123 73L110 0L38 -124H-3L49 0Z" />
<glyph unicode="-" glyph-name="hyphen" horiz-adv-x="402" d="M62 287H354L342 221H50L62 287Z" />
<glyph unicode="." glyph-name="period" horiz-adv-x="206" d="M13 29L21 73L55 102H99L123 73L115 29L81 0H37L13 29Z" />
<glyph unicode="/" glyph-name="slash" horiz-adv-x="465" d="M467 701H545L34 0H-44L467 701Z" />
<glyph unicode="0" glyph-name="zero" horiz-adv-x="628" d="M45 104L133 606L244 700H532L619 594L530 91L422 0H130L45 104ZM392 68L460 125L540 575L492 632H272L204 575L124 125L172 68H392Z" />
<glyph unicode="1" glyph-name="one" horiz-adv-x="358" d="M263 622L92 541L104 611L283 700H353L229 0H153L263 622Z" />
<glyph unicode="2" glyph-name="two" horiz-adv-x="550" d="M35 134L464 496L479 583L437 632H244L186 583L176 530H100L115 613L218 700H477L558 603L535 471L107 112L99 68H468L456 0H11L35 134Z" />
<glyph unicode="3" glyph-name="three" horiz-adv-x="579" d="M23 97L36 170H112L102 117L144 68H356L414 117L441 270L402 318H202L214 386H414L470 434L497 583L455 632H249L191 583L181 530H105L120 613L222 700H495L576 603L542 412L471 352L521 291L485 85L385
0H103L23 97Z" />
<glyph unicode="4" glyph-name="four" horiz-adv-x="555" d="M350 143H6L27 261L403 700H524L438 211H523L511 143H426L401 0H325L350 143ZM362 209L437 636H431L99 249L92 209H362Z" />
<glyph unicode="5" glyph-name="five" horiz-adv-x="582" d="M33 97L46 170H122L112 117L154 68H364L422 117L458 317L416 366H90L149 700H587L575 633H211L176 434H455L537 336L492 85L393 0H113L33 97Z" />
<glyph unicode="6" glyph-name="six" horiz-adv-x="598" d="M43 97L134 614L236 700H514L596 602L583 530H507L517 583L475 632H263L205 583L163 347L258 428H471L552 331L509 85L409 0H123L43 97ZM380 68L438 117L473 311L431 360H266L147 259L122 117L164 68H380Z" />
<glyph unicode="7" glyph-name="seven" horiz-adv-x="498" d="M443 594L449 632H88L100 700H537L518 589L141 0H61L443 594Z" />
<glyph unicode="8" glyph-name="eight" horiz-adv-x="614" d="M38 97L74 302L148 365L105 418L139 613L241 700H521L601 603L567 409L504 356L556 293L520 85L419 0H118L38 97ZM437 389L496 438L522 583L480 632H268L210 583L184 438L225 389H437ZM391 68L449
117L477 274L436 323H204L145 274L117 117L159 68H391Z" />
<glyph unicode="9" glyph-name="nine" horiz-adv-x="603" d="M48 97L61 170H137L127 117L169 68H375L433 117L473 339L389 268H161L85 360L129 613L231 700H514L595 603L504 85L404 0H128L48 97ZM381 336L488 427L516 583L474 632H258L200 583L166 385L207 336H381Z" />
<glyph unicode=":" glyph-name="colon" horiz-adv-x="206" d="M77 385L84 429L118 458H161L185 429L178 385L144 356H101L77 385ZM14 29L21 73L55 102H98L122 73L115 29L81 0H38L14 29Z" />
<glyph unicode=";" glyph-name="semicolon" horiz-adv-x="206" d="M76 385L83 429L117 458H161L185 429L178 385L143 356H99L76 385ZM48 0H36L13 29L20 73L54 102H98L122 73L109 0L38 -124H-3L48 0Z" />
<glyph unicode="&lt;" glyph-name="less" horiz-adv-x="590" d="M578 493L122 281L121 275L503 71L491 0L43 240L58 324L592 572L578 493Z" />
<glyph unicode="=" glyph-name="equal" horiz-adv-x="540" d="M78 382H508L497 316H67L78 382ZM48 212H478L467 146H37L48 212Z" />
<glyph unicode="&gt;" glyph-name="greater" horiz-adv-x="590" d="M25 79L481 291L482 297L100 501L112 572L560 332L545 248L11 0L25 79Z" />
<glyph unicode="?" glyph-name="question" horiz-adv-x="532" d="M234 314L444 488L458 567L401 634H246L171 571L164 530H90L102 599L222 700H440L536 585L515 468L302 292L279 161H207L234 314ZM172 27L179 67L211 94H251L273 67L266 27L235 0H195L172 27Z" />
<glyph unicode="@" glyph-name="at" horiz-adv-x="811" d="M482 149L486 173L411 109H295L218 203L250 385L350 470H490L532 420L540 468H604L575 304L552 173H613L681 230L714 418L584 575H341L157 418L113 169L240 14H641L630 -52H202L37 147L90 450L315 641H623L789
440L748 203L637 109H515L482 149ZM496 247L514 351L469 406H371L318 361L293 219L330 173H408L496 247Z" />
<glyph unicode="A" glyph-name="A" horiz-adv-x="620" d="M348 700H430L556 0H480L448 189H156L58 0H-24L348 700ZM437 255L378 612H376L190 255H437Z" />
<glyph unicode="B" glyph-name="B" horiz-adv-x="646" d="M160 700H548L628 604L594 412L535 362L602 281L568 89L463 0H37L160 700ZM466 384L525 434L551 585L510 634H223L179 384H466ZM432 66L500 123L525 263L477 320H167L123 66H432Z" />
<glyph unicode="C" glyph-name="C" horiz-adv-x="631" d="M46 115L132 595L255 700H552L645 587L635 530H559L566 569L513 632H282L202 565L126 135L183 68H414L489 131L496 170H572L559 101L440 0H141L46 115Z" />
<glyph unicode="D" glyph-name="D" horiz-adv-x="664" d="M160 700H558L653 585L568 101L449 0H37L160 700ZM418 68L497 135L573 565L517 632H224L125 68H418Z" />
<glyph unicode="E" glyph-name="E" horiz-adv-x="582" d="M160 700H611L599 632H224L181 386H528L516 318H169L125 68H500L488 0H37L160 700Z" />
<glyph unicode="F" glyph-name="F" horiz-adv-x="552" d="M160 700H602L590 632H224L180 380H498L486 312H168L113 0H37L160 700Z" />
<glyph unicode="G" glyph-name="G" horiz-adv-x="652" d="M46 115L131 595L253 700H560L651 589L641 530H565L572 569L519 632H281L201 565L125 135L182 68H416L495 135L524 297H366L378 365H612L566 103L444 0H142L46 115Z" />
<glyph unicode="H" glyph-name="H" horiz-adv-x="674" d="M160 700H236L181 383H542L597 700H673L550 0H474L530 315H169L113 0H37L160 700Z" />
<glyph unicode="I" glyph-name="I" horiz-adv-x="246" d="M165 700H241L117 0H41L165 700Z" />
<glyph unicode="J" glyph-name="J" horiz-adv-x="556" d="M12 114L28 209H102L89 135L146 68H316L382 124L484 700H560L453 91L346 0H106L12 114Z" />
<glyph unicode="K" glyph-name="K" horiz-adv-x="617" d="M160 700H236L181 383H338L574 700H662L402 351L553 0H474L338 315H169L113 0H37L160 700Z" />
<glyph unicode="L" glyph-name="L" horiz-adv-x="537" d="M160 700H236L125 67H480L468 0H37L160 700Z" />
<glyph unicode="M" glyph-name="M" horiz-adv-x="777" d="M160 700H242L372 158H374L694 700H777L653 0H581L680 553H678L387 70H327L209 553H207L109 0H37L160 700Z" />
<glyph unicode="N" glyph-name="N" horiz-adv-x="673" d="M160 700H234L497 124H499L601 700H673L549 0H475L213 576H211L109 0H37L160 700Z" />
<glyph unicode="O" glyph-name="O" horiz-adv-x="676" d="M46 115L131 595L254 700H570L665 585L580 102L460 0H141L46 115ZM430 68L509 135L585 565L529 632H281L201 565L125 135L182 68H430Z" />
<glyph unicode="P" glyph-name="P" horiz-adv-x="622" d="M160 700H554L634 604L594 376L493 290H164L113 0H37L160 700ZM465 356L524 405L556 585L515 634H225L176 356H465Z" />
<glyph unicode="Q" glyph-name="Q" horiz-adv-x="676" d="M580 102L499 33L578 -62L524 -108L434 0H141L46 115L131 595L254 700H570L665 585L580 102ZM509 135L585 565L529 632H281L201 565L125 135L182 68H430L509 135Z" />
<glyph unicode="R" glyph-name="R" horiz-adv-x="651" d="M596 387L501 306L570 214L532 0H456L492 200L421 294H165L113 0H37L160 700H554L634 604L596 387ZM556 585L515 634H225L176 360H466L525 409L556 585Z" />
<glyph unicode="S" glyph-name="S" horiz-adv-x="613" d="M39 97L49 156H124L117 117L157 68H397L456 119L483 276L442 325H176L98 420L132 613L234 700H528L609 603L598 543H524L531 583L489 632H260L202 583L177 442L218 393H484L562 299L524 85L424 0H119L39 97Z" />
<glyph unicode="T" glyph-name="T" horiz-adv-x="560" d="M310 633H98L110 700H610L598 633H386L274 0H198L310 633Z" />
<glyph unicode="U" glyph-name="U" horiz-adv-x="676" d="M57 115L160 700H236L136 135L193 68H420L499 135L600 700H676L570 102L450 0H152L57 115Z" />
<glyph unicode="V" glyph-name="V" horiz-adv-x="626" d="M105 700H180L281 91H283L598 700H681L311 0H229L105 700Z" />
<glyph unicode="W" glyph-name="W" horiz-adv-x="863" d="M120 700H196L204 108H206L478 700H552L610 108H612L825 700H903L639 0H557L498 592H496L220 0H138L120 700Z" />
<glyph unicode="X" glyph-name="X" horiz-adv-x="604" d="M279 360L109 700H189L328 419L563 700H653L364 356L540 0H460L315 297L66 0H-24L279 360Z" />
<glyph unicode="Y" glyph-name="Y" horiz-adv-x="592" d="M266 292L95 700H171L309 361H311L569 700H657L342 292L291 0H215L266 292Z" />
<glyph unicode="Z" glyph-name="Z" horiz-adv-x="568" d="M19 75L505 633V635H128L139 700H597L584 625L98 67L97 65H485L474 0H6L19 75Z" />
<glyph unicode="[" glyph-name="bracketleft" horiz-adv-x="309" d="M180 816H384L372 752H242L100 -53H230L219 -117H15L180 816Z" />
<glyph unicode="\" glyph-name="backslash" horiz-adv-x="480" d="M80 700H158L436 0H358L80 700Z" />
<glyph unicode="]" glyph-name="bracketright" horiz-adv-x="309" d="M164 -117H-40L-28 -53H102L244 752H114L125 816H329L164 -117Z" />
<glyph unicode="^" glyph-name="asciicircum" horiz-adv-x="636" d="M355 700H439L582 252H512L392 628H386L136 252H56L355 700Z" />
<glyph unicode="_" glyph-name="underscore" horiz-adv-x="422" d="M-46 -10H376L365 -74H-57L-46 -10Z" />
<glyph unicode="`" glyph-name="grave" horiz-adv-x="240" d="M123 717H208L255 560H185L123 717Z" />
<glyph unicode="a" glyph-name="a" horiz-adv-x="551" d="M31 84L53 210L149 290H415L431 385L390 434H220L161 385L154 344H80L91 407L198 498H431L508 405L437 0H366L381 88L274 0H101L31 84ZM270 64L393 165L403 226H169L123 187L108 103L141 64H270Z" />
<glyph unicode="b" glyph-name="b" horiz-adv-x="578" d="M48 93L157 714H231L176 401L291 498H461L540 402L484 82L387 0H125L48 93ZM357 66L416 115L463 383L422 432H300L161 314L126 115L167 66H357Z" />
<glyph unicode="c" glyph-name="c" horiz-adv-x="534" d="M37 93L94 414L193 498H435L515 401L506 345H432L438 383L397 432H221L162 383L115 115L156 66H332L391 115L398 153H472L459 85L359 0H114L37 93Z" />
<glyph unicode="d" glyph-name="d" horiz-adv-x="580" d="M37 93L94 413L194 498H393L462 426L513 714H587L461 0H389L405 91L298 0H114L37 93ZM293 66L417 171L448 348L367 432H222L163 383L115 115L156 66H293Z" />
<glyph unicode="e" glyph-name="e" horiz-adv-x="561" d="M38 93L94 414L193 498H449L528 402L497 227H136L116 115L157 66H344L403 115L410 153H484L471 85L371 0H115L38 93ZM435 291L451 383L410 432H222L163 383L147 291H435Z" />
<glyph unicode="f" glyph-name="f" horiz-adv-x="376" d="M152 433H62L74 498H164L184 613L283 696H430L418 632H306L254 588L238 498H395L383 433H226L150 0H76L152 433Z" />
<glyph unicode="g" glyph-name="g" horiz-adv-x="580" d="M549 498L438 -131L336 -218H90L22 -136L31 -80H105L99 -117L128 -152H310L369 -103L401 83L295 0H114L37 93L94 413L194 498H389L461 409L477 498H549ZM444 328L358 432H222L163 383L115 115L156 66H294L416
163L444 328Z" />
<glyph unicode="h" glyph-name="h" horiz-adv-x="570" d="M161 714H235L174 395L295 498H448L527 403L456 0H382L450 383L408 432H305L159 308L105 0H31L161 714Z" />
<glyph unicode="i" glyph-name="i" horiz-adv-x="244" d="M134 612L142 656L177 686H221L246 656L238 611L204 582H159L134 612ZM129 498H203L115 0H41L129 498Z" />
<glyph unicode="j" glyph-name="j" horiz-adv-x="259" d="M149 612L157 656L192 686H236L261 656L253 611L219 582H174L149 612ZM-120 -152H-20L38 -103L144 498H218L107 -131L5 -218H-132L-120 -152Z" />
<glyph unicode="k" glyph-name="k" horiz-adv-x="524" d="M160 714H234L156 292H267L450 498H538L327 258L460 0H382L266 226H145L105 0H31L160 714Z" />
<glyph unicode="l" glyph-name="l" horiz-adv-x="234" d="M163 714H237L110 0H36L163 714Z" />
<glyph unicode="m" glyph-name="m" horiz-adv-x="837" d="M119 498H191L174 403L286 498H406L469 421L560 498H715L794 403L723 0H649L717 383L675 432H565L483 362L419 0H347L415 383L373 432H289L162 324L105 0H31L119 498Z" />
<glyph unicode="n" glyph-name="n" horiz-adv-x="568" d="M119 498H191L172 394L295 498H446L525 403L454 0H380L448 383L406 432H305L159 308L105 0H31L119 498Z" />
<glyph unicode="o" glyph-name="o" horiz-adv-x="570" d="M38 93L94 414L193 498H453L532 402L476 82L379 0H115L38 93ZM349 66L408 115L455 383L414 432H222L163 383L116 115L157 66H349Z" />
<glyph unicode="p" glyph-name="p" horiz-adv-x="580" d="M119 498H191L175 409L280 498H463L542 402L486 86L384 0H188L118 74L68 -212H-6L119 498ZM358 66L417 115L465 383L424 432H289L163 325L132 153L213 66H358Z" />
<glyph unicode="q" glyph-name="q" horiz-adv-x="573" d="M403 97L289 0H116L38 94L94 413L194 498H450L530 401L422 -212H348L403 97ZM282 66L418 184L453 383L412 432H222L163 383L116 115L157 66H282Z" />
<glyph unicode="r" glyph-name="r" horiz-adv-x="385" d="M119 498H191L175 409L280 498H409L397 432H288L162 325L105 0H31L119 498Z" />
<glyph unicode="s" glyph-name="s" horiz-adv-x="512" d="M21 85L32 144H106L99 103L132 64H315L362 103L375 180L342 220H127L62 299L84 424L171 498H408L481 411L470 354H396L403 395L370 434H200L153 395L140 322L173 282H385L453 200L431 75L343 0H92L21 85Z" />
<glyph unicode="t" glyph-name="t" horiz-adv-x="390" d="M93 94L153 433H63L74 498H166L195 660H267L238 498H393L382 433H227L171 115L212 65H317L306 0H171L93 94Z" />
<glyph unicode="u" glyph-name="u" horiz-adv-x="567" d="M43 94L114 498H188L120 115L161 66H261L407 190L462 498H536L448 0H376L394 106L270 0H120L43 94Z" />
<glyph unicode="v" glyph-name="v" horiz-adv-x="482" d="M59 498H132L205 74H209L432 498H511L240 0H154L59 498Z" />
<glyph unicode="w" glyph-name="w" horiz-adv-x="707" d="M79 498H153L165 84H168L361 498H433L469 84H472L638 498H716L502 0H422L384 411H381L189 0H108L79 498Z" />
<glyph unicode="x" glyph-name="x" horiz-adv-x="488" d="M344 0L238 196L62 0H-24L204 253L69 498H149L251 309L421 498H507L286 251L424 0H344Z" />
<glyph unicode="y" glyph-name="y" horiz-adv-x="569" d="M538 498L428 -127L320 -218H85L17 -136L26 -80H100L94 -118L123 -152H299L358 -103L395 106L270 0H118L42 92L114 498H188L120 115L162 66H262L410 192L464 498H538Z" />
<glyph unicode="z" glyph-name="z" horiz-adv-x="474" d="M8 69L382 434V436H83L94 498H478L466 429L92 64V62H401L390 0H-4L8 69Z" />
<glyph unicode="{" glyph-name="braceleft" horiz-adv-x="344" d="M76 -20L123 247L59 327L67 373L159 453L208 729L310 816H419L408 750H336L277 701L229 429L143 354L141 346L201 271L153 -2L194 -51H266L255 -117H156L76 -20Z" />
<glyph unicode="|" glyph-name="bar" horiz-adv-x="234" d="M185 846H259L74 -204H0L185 846Z" />
<glyph unicode="}" glyph-name="braceright" horiz-adv-x="344" d="M304 719L257 452L321 372L313 326L221 246L172 -30L70 -117H-39L-28 -51H44L103 -2L151 270L237 345L239 353L179 428L227 701L186 750H114L125 816H224L304 719Z" />
<glyph unicode="~" glyph-name="asciitilde" horiz-adv-x="562" d="M214 288H181L128 243L120 200H46L57 262L165 354H241L356 256H385L443 305L450 344H524L512 282L404 190H328L214 288Z" />
<glyph unicode="&#xa0;" glyph-name="uni00A0" horiz-adv-x="244" />
<glyph unicode="&#xa1;" glyph-name="exclamdown" horiz-adv-x="244" d="M208 471L201 431L169 404H129L107 431L114 471L146 498H186L208 471ZM104 -68L80 -202H4L28 -68L114 336H160L104 -68Z" />
<glyph unicode="&#xa2;" glyph-name="cent" horiz-adv-x="534" d="M432 345L438 383L397 432H221L162 383L115 115L156 66H332L391 115L398 153H472L459 85L359 0H270L253 -100H181L198 0H114L37 93L94 414L193 498H287L304 598H376L359 498H435L515 401L506 345H432Z" />
<glyph unicode="&#xa3;" glyph-name="sterling" horiz-adv-x="608" d="M538 540L545 579L500 632H359L280 565L247 377H488L477 313H235L214 192L123 106L116 66H541L529 0H28L50 123L141 209L159 313H67L78 377H171L209 595L332 700H538L623 599L612 540H538Z" />
<glyph unicode="&#xa4;" glyph-name="currency" horiz-adv-x="635" d="M528 218L496 191L557 116L503 70L443 145L412 118H178L157 145L70 70L32 116L119 191L98 218L140 456L170 482L110 557L164 603L224 528L255 554H489L510 528L596 603L634 557L548 483L570
456L528 218ZM497 439L454 490H268L207 439L171 233L214 182H400L461 233L497 439Z" />
<glyph unicode="&#xa5;" glyph-name="yen" horiz-adv-x="592" d="M369 327H504L493 265H337L324 187H479L468 125H313L291 0H215L237 125H82L93 187H248L261 265H107L118 327H251L95 700H171L309 361H311L569 700H657L369 327Z" />
<glyph unicode="&#xa6;" glyph-name="brokenbar" horiz-adv-x="234" d="M186 846H260L185 421H111L186 846ZM79 241H153L75 -204H1L79 241Z" />
<glyph unicode="&#xa7;" glyph-name="section" horiz-adv-x="522" d="M428 556L435 597L402 636H253L206 597L192 516L225 476H421L492 389L469 258L398 197L436 151L414 27L325 -48H112L40 39L50 96H124L117 55L150 16H298L345 55L359 136L326 176H127L58 260L81
394L151 454L115 498L137 623L227 700H439L512 613L502 556H428ZM152 375L135 278L168 238H352L399 277L416 374L383 414H199L152 375Z" />
<glyph unicode="&#xa8;" glyph-name="dieresis" horiz-adv-x="399" d="M113 597L121 641L153 668H198L219 641L211 596L181 570H135L113 597ZM311 597L319 641L350 668H395L417 641L409 596L378 570H332L311 597Z" />
<glyph unicode="&#xa9;" glyph-name="copyright" horiz-adv-x="818" d="M43 182L104 528L306 700H659L810 518L749 171L548 0H193L43 182ZM520 66L685 206L736 494L621 634H333L168 494L117 206L232 66H520ZM208 251L245 460L364 561H556L646 452L635 392H565L573
438L524 497H385L312 435L283 266L334 204H470L542 264L551 312H621L608 240L490 140H299L208 251Z" />
<glyph unicode="&#xaa;" glyph-name="ordfeminine" horiz-adv-x="416" d="M80 415L94 496L166 557H347L356 611L334 638H218L186 611L182 587H113L121 633L199 700H367L427 625L379 351H314L324 406L257 351H132L80 415ZM260 411L331 470L337 500H188L161 478L153
433L171 411H260Z" />
<glyph unicode="&#xab;" glyph-name="guillemotleft" horiz-adv-x="516" d="M33 236L45 302L289 484L272 391L106 267L105 261L227 137L213 54L33 236ZM246 236L258 302L502 484L485 391L319 267L318 261L440 137L426 54L246 236Z" />
<glyph unicode="&#xac;" glyph-name="logicalnot" horiz-adv-x="537" d="M421 314H66L78 380H505L463 146H391L421 314Z" />
<glyph unicode="&#xad;" glyph-name="uni00AD" horiz-adv-x="402" d="M62 287H354L342 221H50L62 287Z" />
<glyph unicode="&#xae;" glyph-name="registered" horiz-adv-x="527" d="M82 404L115 591L243 700H432L530 581L498 394L369 285H180L82 404ZM348 335L449 419L473 566L403 650H264L164 566L139 419L209 335H348ZM241 600H375L411 557L401 504L366 474L391 439L382
389H334L341 429L322 457H264L252 389H204L241 600ZM337 499L355 515L360 542L347 558H282L272 499H337Z" />
<glyph unicode="&#xaf;" glyph-name="overscore" horiz-adv-x="342" d="M100 640H380L369 580H89L100 640Z" />
<glyph unicode="&#xb0;" glyph-name="degree" horiz-adv-x="332" d="M108 547L125 642L193 700H289L345 633L328 539L261 482H161L108 547ZM242 536L278 566L287 616L262 646H212L177 616L168 566L192 536H242Z" />
<glyph unicode="&#xb1;" glyph-name="plusminus" horiz-adv-x="540" d="M507 376L496 310H318L287 138H213L244 310H66L77 376H255L286 548H360L329 376H507ZM23 66H453L441 0H11L23 66Z" />
<glyph unicode="&#xb2;" glyph-name="uni00B2" horiz-adv-x="374" d="M63 367L321 570L329 615L312 636H202L177 615L169 571H97L110 641L179 700H348L404 632L389 546L135 350L134 342H356L345 280H48L63 367Z" />
<glyph unicode="&#xb3;" glyph-name="uni00B3" horiz-adv-x="407" d="M63 349L73 406H146L139 365L156 344H276L301 365L314 439L296 459H171L183 523H308L332 544L345 615L327 636H210L186 615L179 574H107L118 641L187 700H362L419 631L400 522L364 491L389
460L368 338L300 280H120L63 349Z" />
<glyph unicode="&#xb4;" glyph-name="acute" horiz-adv-x="253" d="M205 717H290L172 560H102L205 717Z" />
<glyph unicode="&#xb6;" glyph-name="paragraph" horiz-adv-x="551" d="M275 331H173L88 434L118 607L227 700H415L256 -203H181L275 331ZM475 700H550L391 -203H316L475 700Z" />
<glyph unicode="&#xb7;" glyph-name="middot" horiz-adv-x="206" d="M49 233L57 277L91 306H135L159 277L151 233L117 204H73L49 233Z" />
<glyph unicode="&#xb8;" glyph-name="cedilla" horiz-adv-x="279" d="M-35 -180H84L108 -160L114 -125L97 -105H-5L2 -66L56 30H120L72 -54H130L175 -109L162 -184L106 -231H-44L-35 -180Z" />
<glyph unicode="&#xb9;" glyph-name="uni00B9" horiz-adv-x="263" d="M191 620L92 572L104 642L221 700H278L204 280H132L191 620Z" />
<glyph unicode="&#xba;" glyph-name="ordmasculine" horiz-adv-x="424" d="M81 424L118 635L194 700H380L440 627L403 416L327 351H141L81 424ZM303 414L337 443L366 608L342 637H218L184 608L155 443L179 414H303Z" />
<glyph unicode="&#xbb;" glyph-name="guillemotright" horiz-adv-x="516" d="M277 302L265 236L21 54L38 147L204 271L205 277L83 401L97 484L277 302ZM490 302L478 236L234 54L251 147L417 271L418 277L296 401L310 484L490 302Z" />
<glyph unicode="&#xbc;" glyph-name="onequarter" horiz-adv-x="810" d="M602 79H393L407 160L644 420H734L685 143H736L725 79H674L660 0H588L602 79ZM617 141L652 338H650L480 153L478 141H617ZM709 700L184 0H106L631 700H709ZM211 620L112 572L124 642L241
700H298L224 280H152L211 620Z" />
<glyph unicode="&#xbd;" glyph-name="onehalf" horiz-adv-x="848" d="M697 700L172 0H94L619 700H697ZM211 620L112 572L124 642L241 700H298L224 280H152L211 620ZM467 87L725 290L733 335L716 356H606L581 335L573 291H501L514 361L583 420H752L808 352L793
266L539 70L538 62H760L749 0H452L467 87Z" />
<glyph unicode="&#xbe;" glyph-name="threequarters" horiz-adv-x="913" d="M73 349L83 406H156L149 365L166 344H286L311 365L324 439L306 459H181L193 523H318L342 544L355 615L337 636H220L196 615L189 574H117L128 641L197 700H372L429 631L410 522L374 491L399
460L378 338L310 280H130L73 349ZM680 79H471L485 160L722 420H812L763 143H814L803 79H752L738 0H666L680 79ZM695 141L730 338H728L558 153L556 141H695ZM815 700L290 0H212L737 700H815Z" />
<glyph unicode="&#xbf;" glyph-name="questiondown" horiz-adv-x="532" d="M345 471L338 431L306 404H266L244 431L251 471L282 498H322L345 471ZM283 184L73 10L59 -69L116 -136H271L346 -73L353 -32H427L415 -101L295 -202H77L-19 -87L2 30L215 206L238 337H310L283
184Z" />
<glyph unicode="&#xc0;" glyph-name="Agrave" horiz-adv-x="620" d="M348 700H430L556 0H480L448 189H156L58 0H-24L348 700ZM437 255L378 612H376L190 255H437ZM298 919H383L430 762H360L298 919Z" />
<glyph unicode="&#xc1;" glyph-name="Aacute" horiz-adv-x="620" d="M348 700H430L556 0H480L448 189H156L58 0H-24L348 700ZM437 255L378 612H376L190 255H437ZM471 919H556L438 762H368L471 919Z" />
<glyph unicode="&#xc2;" glyph-name="Acircumflex" horiz-adv-x="620" d="M348 700H430L556 0H480L448 189H156L58 0H-24L348 700ZM437 255L378 612H376L190 255H437ZM388 902H462L540 762H470L421 852H415L334 762H260L388 902Z" />
<glyph unicode="&#xc3;" glyph-name="Atilde" horiz-adv-x="620" d="M348 700H430L556 0H480L448 189H156L58 0H-24L348 700ZM437 255L378 612H376L190 255H437ZM369 824H351L329 805L324 778H266L274 823L336 876H398L453 824H472L493 842L498 870H556L548 825L486
772H424L369 824Z" />
<glyph unicode="&#xc4;" glyph-name="Adieresis" horiz-adv-x="620" d="M348 700H430L556 0H480L448 189H156L58 0H-24L348 700ZM437 255L378 612H376L190 255H437ZM258 799L266 843L298 870H343L364 843L356 798L326 772H280L258 799ZM456 799L464 843L495 870H540L562
843L554 798L523 772H477L456 799Z" />
<glyph unicode="&#xc5;" glyph-name="Aring" horiz-adv-x="620" d="M348 700H430L556 0H480L448 189H156L58 0H-24L348 700ZM437 255L378 612H376L190 255H437ZM307 811L322 896L386 950H475L524 891L509 806L446 752H356L307 811ZM430 802L460 828L468 874L447
900H401L370 874L362 828L384 802H430Z" />
<glyph unicode="&#xc6;" glyph-name="AE" horiz-adv-x="924" d="M583 632L540 384H869L857 316H528L484 68H842L830 0H396L429 189H166L51 0H-29L403 700H953L941 632H583ZM507 632H437L208 257H441L507 632Z" />
<glyph unicode="&#xc7;" glyph-name="Ccedilla" horiz-adv-x="631" d="M559 530L566 569L513 632H282L202 565L126 135L183 68H414L489 131L496 170H572L559 101L440 0H311L280 -54H338L383 -109L370 -184L314 -231H164L173 -180H292L316 -160L322 -125L305 -105H203L210
-66L247 0H141L46 115L132 595L255 700H552L645 587L635 530H559Z" />
<glyph unicode="&#xc8;" glyph-name="Egrave" horiz-adv-x="582" d="M160 700H611L599 632H224L181 386H528L516 318H169L125 68H500L488 0H37L160 700ZM283 919H368L415 762H345L283 919Z" />
<glyph unicode="&#xc9;" glyph-name="Eacute" horiz-adv-x="582" d="M160 700H611L599 632H224L181 386H528L516 318H169L125 68H500L488 0H37L160 700ZM473 919H558L440 762H370L473 919Z" />
<glyph unicode="&#xca;" glyph-name="Ecircumflex" horiz-adv-x="582" d="M160 700H611L599 632H224L181 386H528L516 318H169L125 68H500L488 0H37L160 700ZM390 902H464L542 762H472L423 852H417L336 762H262L390 902Z" />
<glyph unicode="&#xcb;" glyph-name="Edieresis" horiz-adv-x="582" d="M160 700H611L599 632H224L181 386H528L516 318H169L125 68H500L488 0H37L160 700ZM260 799L268 843L300 870H345L366 843L358 798L328 772H282L260 799ZM458 799L466 843L497 870H542L564
843L556 798L525 772H479L458 799Z" />
<glyph unicode="&#xcc;" glyph-name="Igrave" horiz-adv-x="246" d="M165 700H241L117 0H41L165 700ZM111 919H196L243 762H173L111 919Z" />
<glyph unicode="&#xcd;" glyph-name="Iacute" horiz-adv-x="246" d="M165 700H241L117 0H41L165 700ZM284 919H369L251 762H181L284 919Z" />
<glyph unicode="&#xce;" glyph-name="Icircumflex" horiz-adv-x="246" d="M165 700H241L117 0H41L165 700ZM201 902H275L353 762H283L234 852H228L147 762H73L201 902Z" />
<glyph unicode="&#xcf;" glyph-name="Idieresis" horiz-adv-x="246" d="M165 700H241L117 0H41L165 700ZM71 799L79 843L111 870H156L177 843L169 798L139 772H93L71 799ZM269 799L277 843L308 870H353L375 843L367 798L336 772H290L269 799Z" />
<glyph unicode="&#xd0;" glyph-name="Eth" horiz-adv-x="704" d="M693 585L608 101L489 0H77L133 318H37L49 384H144L200 700H598L693 585ZM613 565L557 632H264L220 384H390L378 318H209L165 68H458L537 135L613 565Z" />
<glyph unicode="&#xd1;" glyph-name="Ntilde" horiz-adv-x="673" d="M160 700H234L497 124H499L601 700H673L549 0H475L213 576H211L109 0H37L160 700ZM396 824H378L356 805L351 778H293L301 823L363 876H425L480 824H499L520 842L525 870H583L575 825L513 772H451L396
824Z" />
<glyph unicode="&#xd2;" glyph-name="Ograve" horiz-adv-x="676" d="M46 115L131 595L254 700H570L665 585L580 102L460 0H141L46 115ZM430 68L509 135L585 565L529 632H281L201 565L125 135L182 68H430ZM328 919H413L460 762H390L328 919Z" />
<glyph unicode="&#xd3;" glyph-name="Oacute" horiz-adv-x="676" d="M46 115L131 595L254 700H570L665 585L580 102L460 0H141L46 115ZM430 68L509 135L585 565L529 632H281L201 565L125 135L182 68H430ZM501 919H586L468 762H398L501 919Z" />
<glyph unicode="&#xd4;" glyph-name="Ocircumflex" horiz-adv-x="676" d="M46 115L131 595L254 700H570L665 585L580 102L460 0H141L46 115ZM430 68L509 135L585 565L529 632H281L201 565L125 135L182 68H430ZM418 902H492L570 762H500L451 852H445L364 762H290L418 902Z" />
<glyph unicode="&#xd5;" glyph-name="Otilde" horiz-adv-x="676" d="M46 115L131 595L254 700H570L665 585L580 102L460 0H141L46 115ZM430 68L509 135L585 565L529 632H281L201 565L125 135L182 68H430ZM399 824H381L359 805L354 778H296L304 823L366 876H428L483
824H502L523 842L528 870H586L578 825L516 772H454L399 824Z" />
<glyph unicode="&#xd6;" glyph-name="Odieresis" horiz-adv-x="676" d="M46 115L131 595L254 700H570L665 585L580 102L460 0H141L46 115ZM430 68L509 135L585 565L529 632H281L201 565L125 135L182 68H430ZM288 799L296 843L328 870H373L394 843L386 798L356
772H310L288 799ZM486 799L494 843L525 870H570L592 843L584 798L553 772H507L486 799Z" />
<glyph unicode="&#xd7;" glyph-name="multiply" horiz-adv-x="480" d="M288 264L403 125L349 79L234 218L71 79L33 125L197 264L82 403L136 449L251 310L414 449L452 403L288 264Z" />
<glyph unicode="&#xd8;" glyph-name="Oslash" horiz-adv-x="676" d="M636 620L665 585L580 102L460 0H141L114 33L58 -30H-20L76 78L46 115L131 595L254 700H570L599 665L656 730H734L636 620ZM126 134L548 609L529 632H281L201 565L125 135L126 134ZM584 562L164
89L182 68H430L509 135L584 562Z" />
<glyph unicode="&#xd9;" glyph-name="Ugrave" horiz-adv-x="676" d="M57 115L160 700H236L136 135L193 68H420L499 135L600 700H676L570 102L450 0H152L57 115ZM330 919H415L462 762H392L330 919Z" />
<glyph unicode="&#xda;" glyph-name="Uacute" horiz-adv-x="676" d="M57 115L160 700H236L136 135L193 68H420L499 135L600 700H676L570 102L450 0H152L57 115ZM500 919H585L467 762H397L500 919Z" />
<glyph unicode="&#xdb;" glyph-name="Ucircumflex" horiz-adv-x="676" d="M57 115L160 700H236L136 135L193 68H420L499 135L600 700H676L570 102L450 0H152L57 115ZM417 902H491L569 762H499L450 852H444L363 762H289L417 902Z" />
<glyph unicode="&#xdc;" glyph-name="Udieresis" horiz-adv-x="676" d="M57 115L160 700H236L136 135L193 68H420L499 135L600 700H676L570 102L450 0H152L57 115ZM287 799L295 843L327 870H372L393 843L385 798L355 772H309L287 799ZM485 799L493 843L524 870H569L591
843L583 798L552 772H506L485 799Z" />
<glyph unicode="&#xdd;" glyph-name="Yacute" horiz-adv-x="592" d="M266 292L95 700H171L309 361H311L569 700H657L342 292L291 0H215L266 292ZM449 919H534L416 762H346L449 919Z" />
<glyph unicode="&#xde;" glyph-name="Thorn" horiz-adv-x="622" d="M609 459L569 231L467 145H139L113 0H37L122 479H121L160 700H236L210 555H529L609 459ZM531 440L490 489H199L150 211H440L499 260L531 440Z" />
<glyph unicode="&#xdf;" glyph-name="germandbls" horiz-adv-x="625" d="M143 609L245 696H482L557 604L538 497L439 390L433 355L449 335H523L591 253L559 75L471 0H307L235 87L245 144H319L312 103L345 64H443L490 103L513 233L480 273H403L355 332L367 401L467
510L481 588L444 632H266L214 588L110 0H36L143 609Z" />
<glyph unicode="&#xe0;" glyph-name="agrave" horiz-adv-x="551" d="M31 84L53 210L149 290H415L431 385L390 434H220L161 385L154 344H80L91 407L198 498H431L508 405L437 0H366L381 88L274 0H101L31 84ZM270 64L393 165L403 226H169L123 187L108 103L141 64H270ZM243
717H328L375 560H305L243 717Z" />
<glyph unicode="&#xe1;" glyph-name="aacute" horiz-adv-x="551" d="M31 84L53 210L149 290H415L431 385L390 434H220L161 385L154 344H80L91 407L198 498H431L508 405L437 0H366L381 88L274 0H101L31 84ZM270 64L393 165L403 226H169L123 187L108 103L141 64H270ZM402
717H487L369 560H299L402 717Z" />
<glyph unicode="&#xe2;" glyph-name="acircumflex" horiz-adv-x="551" d="M31 84L53 210L149 290H415L431 385L390 434H220L161 385L154 344H80L91 407L198 498H431L508 405L437 0H366L381 88L274 0H101L31 84ZM270 64L393 165L403 226H169L123 187L108 103L141
64H270ZM319 700H393L471 560H401L352 650H346L265 560H191L319 700Z" />
<glyph unicode="&#xe3;" glyph-name="atilde" horiz-adv-x="551" d="M31 84L53 210L149 290H415L431 385L390 434H220L161 385L154 344H80L91 407L198 498H431L508 405L437 0H366L381 88L274 0H101L31 84ZM270 64L393 165L403 226H169L123 187L108 103L141 64H270ZM300
622H282L260 603L255 576H197L205 621L267 674H329L384 622H403L424 640L429 668H487L479 623L417 570H355L300 622Z" />
<glyph unicode="&#xe4;" glyph-name="adieresis" horiz-adv-x="551" d="M31 84L53 210L149 290H415L431 385L390 434H220L161 385L154 344H80L91 407L198 498H431L508 405L437 0H366L381 88L274 0H101L31 84ZM270 64L393 165L403 226H169L123 187L108 103L141
64H270ZM189 597L197 641L229 668H274L295 641L287 596L257 570H211L189 597ZM387 597L395 641L426 668H471L493 641L485 596L454 570H408L387 597Z" />
<glyph unicode="&#xe5;" glyph-name="aring" horiz-adv-x="551" d="M31 84L53 210L149 290H415L431 385L390 434H220L161 385L154 344H80L91 407L198 498H431L508 405L437 0H366L381 88L274 0H101L31 84ZM270 64L393 165L403 226H169L123 187L108 103L141 64H270ZM238
609L253 694L317 748H406L455 689L440 604L377 550H287L238 609ZM361 600L391 626L399 672L378 698H332L301 672L293 626L315 600H361Z" />
<glyph unicode="&#xe6;" glyph-name="ae" horiz-adv-x="886" d="M479 227L459 115L500 66H669L728 115L735 153H809L796 85L696 0H458L391 81L295 0H101L31 84L53 210L149 290H415L432 385L391 434H220L161 385L154 344H80L91 407L198 498H432L475 446L536 498H774L853
402L822 227H479ZM506 383L490 291H760L776 383L735 432H565L506 383ZM392 159L401 206L404 226H169L123 187L108 103L141 64H281L392 159Z" />
<glyph unicode="&#xe7;" glyph-name="ccedilla" horiz-adv-x="534" d="M432 345L438 383L397 432H221L162 383L115 115L156 66H332L391 115L398 153H472L459 85L359 0H270L239 -54H297L342 -109L329 -184L273 -231H123L132 -180H251L275 -160L281 -125L264 -105H162L169
-66L206 0H114L37 93L94 414L193 498H435L515 401L506 345H432Z" />
<glyph unicode="&#xe8;" glyph-name="egrave" horiz-adv-x="561" d="M38 93L94 414L193 498H449L528 402L497 227H136L116 115L157 66H344L403 115L410 153H484L471 85L371 0H115L38 93ZM435 291L451 383L410 432H222L163 383L147 291H435ZM237 717H322L369 560H299L237
717Z" />
<glyph unicode="&#xe9;" glyph-name="eacute" horiz-adv-x="561" d="M38 93L94 414L193 498H449L528 402L497 227H136L116 115L157 66H344L403 115L410 153H484L471 85L371 0H115L38 93ZM435 291L451 383L410 432H222L163 383L147 291H435ZM410 717H495L377 560H307L410
717Z" />
<glyph unicode="&#xea;" glyph-name="ecircumflex" horiz-adv-x="561" d="M38 93L94 414L193 498H449L528 402L497 227H136L116 115L157 66H344L403 115L410 153H484L471 85L371 0H115L38 93ZM435 291L451 383L410 432H222L163 383L147 291H435ZM327 700H401L479
560H409L360 650H354L273 560H199L327 700Z" />
<glyph unicode="&#xeb;" glyph-name="edieresis" horiz-adv-x="561" d="M38 93L94 414L193 498H449L528 402L497 227H136L116 115L157 66H344L403 115L410 153H484L471 85L371 0H115L38 93ZM435 291L451 383L410 432H222L163 383L147 291H435ZM197 597L205 641L237
668H282L303 641L295 596L265 570H219L197 597ZM395 597L403 641L434 668H479L501 641L493 596L462 570H416L395 597Z" />
<glyph unicode="&#xec;" glyph-name="igrave" horiz-adv-x="244" d="M129 498H203L115 0H41L129 498ZM75 717H160L207 560H137L75 717Z" />
<glyph unicode="&#xed;" glyph-name="iacute" horiz-adv-x="244" d="M129 498H203L115 0H41L129 498ZM248 717H333L215 560H145L248 717Z" />
<glyph unicode="&#xee;" glyph-name="icircumflex" horiz-adv-x="244" d="M129 498H203L115 0H41L129 498ZM165 700H239L317 560H247L198 650H192L111 560H37L165 700Z" />
<glyph unicode="&#xef;" glyph-name="idieresis" horiz-adv-x="244" d="M129 498H203L115 0H41L129 498ZM35 597L43 641L75 668H120L141 641L133 596L103 570H57L35 597ZM233 597L241 641L272 668H317L339 641L331 596L300 570H254L233 597Z" />
<glyph unicode="&#xf0;" glyph-name="eth" horiz-adv-x="580" d="M510 573L560 459L494 85L394 0H119L38 97L83 351L186 438H396L468 362L484 450L445 538L351 489L330 541L422 590L401 638H280L291 700H455L488 624L579 672L600 620L510 573ZM455 286L373 372H210L152
323L115 115L156 66H366L425 115L455 286Z" />
<glyph unicode="&#xf1;" glyph-name="ntilde" horiz-adv-x="568" d="M119 498H191L172 394L295 498H446L525 403L454 0H380L448 383L406 432H305L159 308L105 0H31L119 498ZM314 622H296L274 603L269 576H211L219 621L281 674H343L398 622H417L438 640L443 668H501L493
623L431 570H369L314 622Z" />
<glyph unicode="&#xf2;" glyph-name="ograve" horiz-adv-x="570" d="M38 93L94 414L193 498H453L532 402L476 82L379 0H115L38 93ZM349 66L408 115L455 383L414 432H222L163 383L116 115L157 66H349ZM239 717H324L371 560H301L239 717Z" />
<glyph unicode="&#xf3;" glyph-name="oacute" horiz-adv-x="570" d="M38 93L94 414L193 498H453L532 402L476 82L379 0H115L38 93ZM349 66L408 115L455 383L414 432H222L163 383L116 115L157 66H349ZM412 717H497L379 560H309L412 717Z" />
<glyph unicode="&#xf4;" glyph-name="ocircumflex" horiz-adv-x="570" d="M38 93L94 414L193 498H453L532 402L476 82L379 0H115L38 93ZM349 66L408 115L455 383L414 432H222L163 383L116 115L157 66H349ZM329 700H403L481 560H411L362 650H356L275 560H201L329 700Z" />
<glyph unicode="&#xf5;" glyph-name="otilde" horiz-adv-x="570" d="M38 93L94 414L193 498H453L532 402L476 82L379 0H115L38 93ZM349 66L408 115L455 383L414 432H222L163 383L116 115L157 66H349ZM310 622H292L270 603L265 576H207L215 621L277 674H339L394
622H413L434 640L439 668H497L489 623L427 570H365L310 622Z" />
<glyph unicode="&#xf6;" glyph-name="odieresis" horiz-adv-x="570" d="M38 93L94 414L193 498H453L532 402L476 82L379 0H115L38 93ZM349 66L408 115L455 383L414 432H222L163 383L116 115L157 66H349ZM199 597L207 641L239 668H284L305 641L297 596L267 570H221L199
597ZM397 597L405 641L436 668H481L503 641L495 596L464 570H418L397 597Z" />
<glyph unicode="&#xf7;" glyph-name="divide" horiz-adv-x="540" d="M243 387L250 431L286 461H330L354 431L347 386L312 357H267L243 387ZM63 297H493L482 231H52L63 297ZM191 97L199 141L234 171H278L303 141L295 96L261 67H216L191 97Z" />
<glyph unicode="&#xf8;" glyph-name="oslash" horiz-adv-x="570" d="M503 437L532 402L476 82L379 0H115L100 19L43 -40H-35L63 62L38 93L94 414L193 498H453L467 481L522 538H600L503 437ZM116 117L417 429L414 432H222L163 383L116 117ZM453 385L151 73L157
66H349L408 115L455 383L453 385Z" />
<glyph unicode="&#xf9;" glyph-name="ugrave" horiz-adv-x="567" d="M43 94L114 498H188L120 115L161 66H261L407 190L462 498H536L448 0H376L394 106L270 0H120L43 94ZM243 717H328L375 560H305L243 717Z" />
<glyph unicode="&#xfa;" glyph-name="uacute" horiz-adv-x="567" d="M43 94L114 498H188L120 115L161 66H261L407 190L462 498H536L448 0H376L394 106L270 0H120L43 94ZM409 717H494L376 560H306L409 717Z" />
<glyph unicode="&#xfb;" glyph-name="ucircumflex" horiz-adv-x="567" d="M43 94L114 498H188L120 115L161 66H261L407 190L462 498H536L448 0H376L394 106L270 0H120L43 94ZM326 700H400L478 560H408L359 650H353L272 560H198L326 700Z" />
<glyph unicode="&#xfc;" glyph-name="udieresis" horiz-adv-x="567" d="M43 94L114 498H188L120 115L161 66H261L407 190L462 498H536L448 0H376L394 106L270 0H120L43 94ZM196 597L204 641L236 668H281L302 641L294 596L264 570H218L196 597ZM394 597L402 641L433
668H478L500 641L492 596L461 570H415L394 597Z" />
<glyph unicode="&#xfd;" glyph-name="yacute" horiz-adv-x="569" d="M538 498L428 -127L320 -218H85L17 -136L26 -80H100L94 -118L123 -152H299L358 -103L395 106L270 0H118L42 92L114 498H188L120 115L162 66H262L410 192L464 498H538ZM410 717H495L377 560H307L410
717Z" />
<glyph unicode="&#xfe;" glyph-name="thorn" horiz-adv-x="580" d="M157 710H229L175 409L280 498H463L542 402L486 86L384 0H187L118 72L68 -212H-6L157 710ZM358 66L417 115L465 383L424 432H289L163 325L132 153L213 66H358Z" />
<glyph unicode="&#xff;" glyph-name="ydieresis" horiz-adv-x="569" d="M538 498L428 -127L320 -218H85L17 -136L26 -80H100L94 -118L123 -152H299L358 -103L395 106L270 0H118L42 92L114 498H188L120 115L162 66H262L410 192L464 498H538ZM197 597L205 641L237
668H282L303 641L295 596L265 570H219L197 597ZM395 597L403 641L434 668H479L501 641L493 596L462 570H416L395 597Z" />
<glyph unicode="&#x2013;" glyph-name="endash" horiz-adv-x="623" d="M62 287H575L563 221H50L62 287Z" />
<glyph unicode="&#x2014;" glyph-name="emdash" horiz-adv-x="727" d="M62 287H679L667 221H50L62 287Z" />
<glyph unicode="&#x2018;" glyph-name="quoteleft" horiz-adv-x="205" d="M171 576H183L207 547L199 503L165 474H121L97 503L110 576L182 700H223L171 576Z" />
<glyph unicode="&#x2019;" glyph-name="quoteright" horiz-adv-x="205" d="M154 598H142L118 627L126 671L160 700H204L228 671L215 598L143 474H102L154 598Z" />
<glyph unicode="&#x201a;" glyph-name="quotesinglbase" horiz-adv-x="206" d="M49 0H37L13 29L21 73L55 102H99L123 73L110 0L38 -124H-3L49 0Z" />
<glyph unicode="&#x201c;" glyph-name="quotedblleft" horiz-adv-x="355" d="M171 576H183L207 547L199 503L165 474H121L97 503L110 576L182 700H223L171 576ZM321 576H333L357 547L349 503L315 474H271L247 503L260 576L332 700H373L321 576Z" />
<glyph unicode="&#x201d;" glyph-name="quotedblright" horiz-adv-x="355" d="M154 598H142L118 627L126 671L160 700H204L228 671L215 598L143 474H102L154 598ZM304 598H292L268 627L276 671L310 700H354L378 671L365 598L293 474H252L304 598Z" />
<glyph unicode="&#x201e;" glyph-name="quotedblbase" horiz-adv-x="355" d="M304 0H292L268 29L276 73L310 102H354L378 73L365 0L293 -124H252L304 0ZM199 0H187L163 29L171 73L205 102H249L273 73L260 0L188 -124H147L199 0Z" />
<glyph unicode="&#x2022;" glyph-name="bullet" horiz-adv-x="334" d="M54 242L72 343L139 402H245L295 339L277 236L211 179H104L54 242Z" />
<glyph unicode="&#x2039;" glyph-name="guilsinglleft" horiz-adv-x="303" d="M33 236L45 302L289 484L272 391L106 267L105 261L227 137L213 54L33 236Z" />
<glyph unicode="&#x203a;" glyph-name="guilsinglright" horiz-adv-x="303" d="M277 302L265 236L21 54L38 147L204 271L205 277L83 401L97 484L277 302Z" />
</font>
</defs>
</svg>
