<?xml version="1.0" standalone="no"?>
<!DOCTYPE svg PUBLIC "-//W3C//DTD SVG 1.1//EN" "http://www.w3.org/Graphics/SVG/1.1/DTD/svg11.dtd">
<svg xmlns="http://www.w3.org/2000/svg">
<defs >
<font id="ChakraPetch" horiz-adv-x="572" ><font-face
    font-family="Chakra Petch"
    units-per-em="1000"
    panose-1="0 0 8 0 0 0 0 0 0 0"
    ascent="992"
    descent="-308"
    alphabetic="0" />
<glyph unicode=" " glyph-name="space" horiz-adv-x="272" />
<glyph unicode="!" glyph-name="exclam" horiz-adv-x="274" d="M69 566V700H205V566L189 202H85L69 566ZM60 43V103L103 146H171L214 103V43L171 0H103L60 43Z" />
<glyph unicode="&quot;" glyph-name="quotedbl" horiz-adv-x="460" d="M60 586V700H196V586L180 440H76L60 586ZM264 586V700H400V586L384 440H280L264 586Z" />
<glyph unicode="#" glyph-name="numbersign" horiz-adv-x="717" d="M557 416L535 288H657V174H515L485 0H353L383 174H272L242 0H110L140 174H40V288H160L182 416H60V530H202L231 700H363L334 530H445L474 700H606L577 530H677V416H557ZM425 416H314L292 288H403L425
416Z" />
<glyph unicode="$" glyph-name="dollar" horiz-adv-x="637" d="M592 307V110L482 0H380V-110H266V0H158L50 108V208H184V149L217 116H266V299H160L52 407V592L160 700H266V810H380V700H476L584 592V491H450V551L417 584H380V415H484L592 307ZM266 415V584H219L186
551V448L219 415H266ZM458 266L425 299H380V116H424L458 150V266Z" />
<glyph unicode="%" glyph-name="percent" horiz-adv-x="875" d="M40 412V620L120 700H294L374 620V412L294 332H120L40 412ZM561 700H697L314 0H178L561 700ZM236 432L258 454V578L236 600H178L156 578V454L178 432H236ZM501 80V288L581 368H755L835 288V80L755
0H581L501 80ZM697 100L719 122V246L697 268H639L617 246V122L639 100H697Z" />
<glyph unicode="&amp;" glyph-name="ampersand" horiz-adv-x="662" d="M50 107V297L112 360L79 394V592L186 700H454L559 594V520H427V552L396 584H242L211 552V436L244 402H458V468H586V402H652V288H588V108L481 0H157L50 107ZM423 116L456 150V288H215L182 255V149L215
116H423Z" />
<glyph unicode="&apos;" glyph-name="quotesingle" horiz-adv-x="256" d="M60 586V700H196V586L180 440H76L60 586Z" />
<glyph unicode="(" glyph-name="parenleft" horiz-adv-x="348" d="M65 11V688L193 816H333V702H257L197 642V57L257 -3H333V-117H193L65 11Z" />
<glyph unicode=")" glyph-name="parenright" horiz-adv-x="348" d="M15 -117V-3H91L151 57V642L91 702H15V816H155L283 688V11L155 -117H15Z" />
<glyph unicode="*" glyph-name="asterisk" horiz-adv-x="349" d="M144 521L77 468L40 538L127 570L40 604L77 674L144 620L132 700H217L205 620L272 674L309 604L222 570L309 538L272 468L205 521L217 441H132L144 521Z" />
<glyph unicode="+" glyph-name="plus" horiz-adv-x="564" d="M524 208H348V49H216V208H40V320H216V479H348V320H524V208Z" />
<glyph unicode="," glyph-name="comma" horiz-adv-x="238" d="M103 0H81L38 43V107L81 150H156L198 106V0L141 -134H63L103 0Z" />
<glyph unicode="-" glyph-name="hyphen" horiz-adv-x="432" d="M40 314H392V200H40V314Z" />
<glyph unicode="." glyph-name="period" horiz-adv-x="238" d="M40 43V107L83 150H156L198 106V44L156 0H83L40 43Z" />
<glyph unicode="/" glyph-name="slash" horiz-adv-x="522" d="M386 700H522L136 0H0L386 700Z" />
<glyph unicode="0" glyph-name="zero" horiz-adv-x="652" d="M55 116V584L171 700H481L597 584V116L481 0H171L55 116ZM417 116L461 160V540L417 584H235L191 540V160L235 116H417Z" />
<glyph unicode="1" glyph-name="one" horiz-adv-x="382" d="M176 555L25 477V602L203 700H312V0H176V555Z" />
<glyph unicode="2" glyph-name="two" horiz-adv-x="574" d="M39 153L399 480V551L366 584H204L171 551V480H35V592L143 700H427L535 592V440L180 124V114H539V0H39V153Z" />
<glyph unicode="3" glyph-name="three" horiz-adv-x="603" d="M35 108V218H171V149L204 116H384L417 149V262L385 294H185V410H385L417 442V551L384 584H210L177 551V482H41V592L149 700H445L553 592V402L502 352L553 301V108L445 0H143L35 108Z" />
<glyph unicode="4" glyph-name="four" horiz-adv-x="579" d="M348 130H10V267L321 700H484V246H569V130H484V0H348V130ZM354 242V548H350L143 256V242H354Z" />
<glyph unicode="5" glyph-name="five" horiz-adv-x="606" d="M45 108V222H181V149L214 116H392L425 149V307L392 340H55V700H547V584H189V456H452L561 347V108L453 0H153L45 108Z" />
<glyph unicode="6" glyph-name="six" horiz-adv-x="622" d="M55 108V592L163 700H465L573 592V492H437V549L402 584H226L191 549V384L250 441H469L577 333V108L469 0H163L55 108ZM406 116L441 151V290L406 325H264L191 250V151L226 116H406Z" />
<glyph unicode="7" glyph-name="seven" horiz-adv-x="522" d="M355 575V584H5V700H497V572L216 0H72L355 575Z" />
<glyph unicode="8" glyph-name="eight" horiz-adv-x="638" d="M50 108V298L113 361L60 414V592L168 700H470L578 592V414L525 361L588 298V108L480 0H158L50 108ZM407 412L442 447V549L407 584H231L196 549V447L231 412H407ZM417 116L452 151V263L417 298H221L186
263V151L221 116H417Z" />
<glyph unicode="9" glyph-name="nine" horiz-adv-x="627" d="M60 108V197H196V151L231 116H401L436 151V312L379 255H158L50 363V592L158 700H464L572 592V108L464 0H168L60 108ZM371 371L436 436V549L401 584H221L186 549V406L221 371H371Z" />
<glyph unicode=":" glyph-name="colon" horiz-adv-x="232" d="M40 357V419L81 460H152L192 418V358L152 316H81L40 357ZM40 41V103L81 144H152L192 102V42L152 0H81L40 41Z" />
<glyph unicode=";" glyph-name="semicolon" horiz-adv-x="232" d="M42 357V419L83 460H154L194 418V358L154 316H83L42 357ZM105 0H83L40 43V107L83 150H158L200 106V0L143 -134H65L105 0Z" />
<glyph unicode="&lt;" glyph-name="less" horiz-adv-x="614" d="M40 233V347L584 572V442L202 293V287L584 130V0L40 233Z" />
<glyph unicode="=" glyph-name="equal" horiz-adv-x="564" d="M40 408H524V296H40V408ZM40 232H524V120H40V232Z" />
<glyph unicode="&gt;" glyph-name="greater" horiz-adv-x="614" d="M40 130L422 287V293L40 442V572L584 347V233L40 0V130Z" />
<glyph unicode="?" glyph-name="question" horiz-adv-x="562" d="M208 314L388 488V533L337 584H206L159 537V480H25V578L147 700H396L522 574V448L340 272V191H208V314ZM197 43V103L240 146H308L351 103V43L308 0H240L197 43Z" />
<glyph unicode="@" glyph-name="at" horiz-adv-x="835" d="M507 152V172L437 105H320L225 200V378L321 474H443L493 424V470H587V203H634L681 252V402L544 539H303L156 392V195L301 50H714V-52H240L40 148V439L242 641H599L795 445V216L684 105H554L507 152ZM471
339L436 374H372L343 345V237L373 207H427L471 251V339Z" />
<glyph unicode="A" glyph-name="A" horiz-adv-x="646" d="M261 700H385L641 0H503L446 155H200L143 0H5L261 700ZM416 267L323 533H321L231 267H416Z" />
<glyph unicode="B" glyph-name="B" horiz-adv-x="670" d="M65 700H504L604 600V404L564 363L635 291V108L527 0H65V700ZM434 407L470 443V551L435 586H198V407H434ZM458 114L501 157V255L458 298H198V114H458Z" />
<glyph unicode="C" glyph-name="C" horiz-adv-x="655" d="M55 115V585L170 700H512L625 587V480H489V537L442 584H242L191 533V167L242 116H442L489 163V220H625V113L512 0H170L55 115Z" />
<glyph unicode="D" glyph-name="D" horiz-adv-x="688" d="M65 700H513L633 580V120L513 0H65V700ZM446 116L497 167V533L446 584H201V116H446Z" />
<glyph unicode="E" glyph-name="E" horiz-adv-x="606" d="M65 700H571V585H201V408H542V295H201V115H571V0H65V700Z" />
<glyph unicode="F" glyph-name="F" horiz-adv-x="576" d="M65 700H561V585H201V391H513V276H201V0H65V700Z" />
<glyph unicode="G" glyph-name="G" horiz-adv-x="676" d="M55 115V585L170 700H518L631 587V480H495V537L448 584H242L191 533V167L242 116H450L499 165V274H349V390H631V115L516 0H170L55 115Z" />
<glyph unicode="H" glyph-name="H" horiz-adv-x="698" d="M65 700H201V407H497V700H633V0H497V291H201V0H65V700Z" />
<glyph unicode="I" glyph-name="I" horiz-adv-x="276" d="M70 700H206V0H70V700Z" />
<glyph unicode="J" glyph-name="J" horiz-adv-x="580" d="M20 121V251H152V167L203 116H336L384 163V700H520V117L403 0H140L20 121Z" />
<glyph unicode="K" glyph-name="K" horiz-adv-x="651" d="M65 700H201V407H307L476 700H629L424 351L646 0H490L306 291H201V0H65V700Z" />
<glyph unicode="L" glyph-name="L" horiz-adv-x="561" d="M65 700H201V115H551V0H65V700Z" />
<glyph unicode="M" glyph-name="M" horiz-adv-x="801" d="M65 700H191L399 248H401L610 700H736V0H605V426H603L442 98H358L198 426H196V0H65V700Z" />
<glyph unicode="N" glyph-name="N" horiz-adv-x="697" d="M65 700H187L499 225H501V700H632V0H510L198 474H196V0H65V700Z" />
<glyph unicode="O" glyph-name="O" horiz-adv-x="700" d="M55 115V585L170 700H530L645 585V115L530 0H170L55 115ZM458 116L509 167V533L458 584H242L191 533V167L242 116H458Z" />
<glyph unicode="P" glyph-name="P" horiz-adv-x="646" d="M65 700H504L611 592V347L503 238H201V0H65V700ZM442 352L477 387V551L442 586H201V352H442Z" />
<glyph unicode="Q" glyph-name="Q" horiz-adv-x="700" d="M666 -56L582 -140L441 0H170L55 115V585L170 700H530L645 585V115L571 41L666 -56ZM458 116L509 167V533L458 584H242L191 533V167L242 116H458Z" />
<glyph unicode="R" glyph-name="R" horiz-adv-x="675" d="M615 232V0H479V201L419 268H201V0H65V700H504L611 592V380L543 311L615 232ZM201 380H442L477 415V551L442 586H201V380Z" />
<glyph unicode="S" glyph-name="S" horiz-adv-x="637" d="M50 108V208H184V149L217 116H424L458 150V266L425 299H160L52 407V592L160 700H476L584 592V491H450V551L417 584H219L186 551V448L219 415H484L592 307V110L482 0H158L50 108Z" />
<glyph unicode="T" glyph-name="T" horiz-adv-x="584" d="M224 585H15V700H569V585H360V0H224V585Z" />
<glyph unicode="U" glyph-name="U" horiz-adv-x="700" d="M65 120V700H201V167L252 116H448L499 167V700H635V120L515 0H185L65 120Z" />
<glyph unicode="V" glyph-name="V" horiz-adv-x="650" d="M10 700H150L324 162H326L500 700H640L391 0H259L10 700Z" />
<glyph unicode="W" glyph-name="W" horiz-adv-x="879" d="M25 700H162L247 206H251L390 700H492L628 206H632L717 700H854L709 0H582L443 492H439L297 0H170L25 700Z" />
<glyph unicode="X" glyph-name="X" horiz-adv-x="652" d="M249 361L15 700H168L326 470L484 700H637L403 357L647 0H494L326 247L158 0H5L249 361Z" />
<glyph unicode="Y" glyph-name="Y" horiz-adv-x="634" d="M249 286L0 700H149L316 413H318L485 700H634L385 286V0H249V286Z" />
<glyph unicode="Z" glyph-name="Z" horiz-adv-x="592" d="M35 108L394 584V586H45V700H557V592L198 116V114H557V0H35V108Z" />
<glyph unicode="[" glyph-name="bracketleft" horiz-adv-x="344" d="M65 816H329V702H197V-3H329V-117H65V816Z" />
<glyph unicode="\" glyph-name="backslash" horiz-adv-x="537" d="M0 700H137L537 0H401L0 700Z" />
<glyph unicode="]" glyph-name="bracketright" horiz-adv-x="344" d="M15 -117V-3H147V702H15V816H279V-117H15Z" />
<glyph unicode="^" glyph-name="asciicircum" horiz-adv-x="657" d="M265 700H389L617 244H479L330 553H324L178 244H40L265 700Z" />
<glyph unicode="_" glyph-name="underscore" horiz-adv-x="482" d="M0 -10H482V-122H0V-10Z" />
<glyph unicode="`" glyph-name="grave" horiz-adv-x="240" d="M13 713H152L228 544H112L13 713Z" />
<glyph unicode="a" glyph-name="a" horiz-adv-x="575" d="M45 92V206L137 298H390V361L359 392H209L179 361V333H49V390L156 498H413L520 390V0H401V71L327 0H137L45 92ZM318 102L390 171V204H202L175 177V127L200 102H318Z" />
<glyph unicode="b" glyph-name="b" horiz-adv-x="600" d="M60 108V714H192V429L265 498H447L550 394V104L447 0H167L60 108ZM380 112L418 151V347L380 386H282L192 296V151L230 112H380Z" />
<glyph unicode="c" glyph-name="c" horiz-adv-x="558" d="M50 102V396L151 498H425L528 394V302H396V351L361 386H217L182 351V147L217 112H361L396 147V196H528V104L425 0H151L50 102Z" />
<glyph unicode="d" glyph-name="d" horiz-adv-x="602" d="M50 104V394L153 498H351L410 447V714H542V0H418V77L341 0H153L50 104ZM329 112L410 195V325L342 386H220L182 347V151L220 112H329Z" />
<glyph unicode="e" glyph-name="e" horiz-adv-x="583" d="M50 102V394L153 498H434L538 394V205H182V141L214 108H377L407 139V165H537V100L438 0H151L50 102ZM406 297V355L372 390H216L182 355V297H406Z" />
<glyph unicode="f" glyph-name="f" horiz-adv-x="400" d="M105 387H15V498H105V597L206 698H390V589H263L235 561V498H390V387H237V0H105V387Z" />
<glyph unicode="g" glyph-name="g" horiz-adv-x="602" d="M542 498V-114L434 -221H163L70 -129V-61H202V-91L221 -111H376L410 -76V65L341 0H153L50 104V394L153 498H349L420 430V498H542ZM410 325L342 386H220L182 347V151L220 112H329L410 195V325Z" />
<glyph unicode="h" glyph-name="h" horiz-adv-x="594" d="M60 714H192V421L269 498H428L539 387V0H407V351L373 386H287L192 290V0H60V714Z" />
<glyph unicode="i" glyph-name="i" horiz-adv-x="272" d="M55 602V666L101 712H171L217 666V602L171 556H101L55 602ZM70 498H202V0H70V498Z" />
<glyph unicode="j" glyph-name="j" horiz-adv-x="287" d="M70 602V666L116 712H186L232 666V602L186 556H116L70 602ZM-65 -106H50L85 -71V498H217V-111L110 -218H-65V-106Z" />
<glyph unicode="k" glyph-name="k" horiz-adv-x="567" d="M60 714H192V315H279L406 498H552L386 258L562 0H416L276 203H192V0H60V714Z" />
<glyph unicode="l" glyph-name="l" horiz-adv-x="262" d="M65 714H197V0H65V714Z" />
<glyph unicode="m" glyph-name="m" horiz-adv-x="861" d="M60 498H182V416L263 498H389L457 429L525 498H699L806 390V0H674V351L640 386H556L503 333V0H375V353L343 386H283L192 294V0H60V498Z" />
<glyph unicode="n" glyph-name="n" horiz-adv-x="592" d="M60 498H182V415L265 498H426L537 387V0H405V351L371 386H287L192 290V0H60V498Z" />
<glyph unicode="o" glyph-name="o" horiz-adv-x="592" d="M50 104V394L153 498H439L542 394V104L439 0H153L50 104ZM375 110L410 145V353L375 388H217L182 353V145L217 110H375Z" />
<glyph unicode="p" glyph-name="p" horiz-adv-x="602" d="M60 498H182V425L255 498H449L552 394V104L449 0H256L192 53V-212H60V498ZM385 112L420 147V351L385 386H272L192 305V183L271 112H385Z" />
<glyph unicode="q" glyph-name="q" horiz-adv-x="595" d="M408 71L337 0H153L50 104V394L153 498H433L540 390V-212H408V71ZM319 112L408 207V351L374 386H216L182 351V147L216 112H319Z" />
<glyph unicode="r" glyph-name="r" horiz-adv-x="409" d="M60 498H182V415L262 498H404V386H289L192 286V0H60V498Z" />
<glyph unicode="s" glyph-name="s" horiz-adv-x="536" d="M35 98V159H165V131L187 108H349L371 131V174L348 198H133L39 293V402L134 498H394L491 400V339H361V367L339 390H191L169 367V328L192 304H407L501 209V96L406 0H132L35 98Z" />
<glyph unicode="t" glyph-name="t" horiz-adv-x="414" d="M105 102V387H15V498H107V660H237V498H389V386H237V145L271 112H389V0H208L105 102Z" />
<glyph unicode="u" glyph-name="u" horiz-adv-x="591" d="M55 105V498H187V146L221 112H301L399 210V498H531V0H409V85L323 0H160L55 105Z" />
<glyph unicode="v" glyph-name="v" horiz-adv-x="510" d="M0 498H137L253 151H257L373 498H510L319 0H191L0 498Z" />
<glyph unicode="w" glyph-name="w" horiz-adv-x="729" d="M20 498H154L211 184H215L305 498H425L508 184H512L575 498H709L580 0H457L365 336H361L263 0H140L20 498Z" />
<glyph unicode="x" glyph-name="x" horiz-adv-x="528" d="M374 0L264 152L154 0H5L191 253L10 498H159L264 352L369 498H518L338 251L523 0H374Z" />
<glyph unicode="y" glyph-name="y" horiz-adv-x="593" d="M533 498V-114L425 -221H163L70 -129V-61H202V-91L221 -111H367L401 -76V74L327 0H162L55 108V498H187V147L221 112H308L401 211V498H533Z" />
<glyph unicode="z" glyph-name="z" horiz-adv-x="498" d="M25 102L302 389V391H35V498H473V396L196 109V107H473V0H25V102Z" />
<glyph unicode="{" glyph-name="braceleft" horiz-adv-x="377" d="M108 -11V238L30 318V382L108 462V710L214 816H362V702H274L240 668V429L167 354V346L240 271V31L274 -3H362V-117H214L108 -11Z" />
<glyph unicode="|" glyph-name="bar" horiz-adv-x="264" d="M65 846H199V-204H65V846Z" />
<glyph unicode="}" glyph-name="braceright" horiz-adv-x="377" d="M15 -117V-3H103L137 31V271L210 346V354L137 429V668L103 702H15V816H163L269 710V462L347 382V318L269 238V-11L163 -117H15Z" />
<glyph unicode="~" glyph-name="asciitilde" horiz-adv-x="586" d="M211 261H194L170 236V174H40V274L145 380H245L375 283H388L416 312V370H546V270L441 164H341L211 261Z" />
<glyph unicode="&#xa0;" glyph-name="uni00A0" horiz-adv-x="272" />
<glyph unicode="&#xa1;" glyph-name="exclamdown" horiz-adv-x="274" d="M171 498L214 455V395L171 352H103L60 395V455L103 498H171ZM189 296L205 -68V-202H69V-68L85 296H189Z" />
<glyph unicode="&#xa2;" glyph-name="cent" horiz-adv-x="558" d="M396 302V351L361 386H217L182 351V147L217 112H361L396 147V196H528V104L425 0H349V-110H231V0H151L50 102V396L151 498H231V598H349V498H425L528 394V302H396Z" />
<glyph unicode="&#xa3;" glyph-name="sterling" horiz-adv-x="632" d="M612 114V0H57V146L133 234V278H40V390H133V574L259 700H490L602 588V502H470V549L433 586H318L267 535V390H504V278H267V219L195 135V114H612Z" />
<glyph unicode="&#xa4;" glyph-name="currency" horiz-adv-x="659" d="M542 196L619 118L541 40L464 118L438 92H222L195 119L118 40L40 118L118 196L88 226V436L119 467L40 545L118 623L196 544L222 570H438L464 544L541 623L619 545L541 467L572 436V226L542
196ZM397 208L444 255V407L397 454H263L216 407V255L263 208H397Z" />
<glyph unicode="&#xa5;" glyph-name="yen" horiz-adv-x="634" d="M411 329H540V231H385V185H540V87H385V0H249V87H94V185H249V231H94V329H223L0 700H149L316 413H318L485 700H634L411 329Z" />
<glyph unicode="&#xa6;" glyph-name="brokenbar" horiz-adv-x="264" d="M65 846H199V395H65V846ZM65 267H199V-204H65V267Z" />
<glyph unicode="&#xa7;" glyph-name="section" horiz-adv-x="546" d="M506 262L449 205L491 162V50L393 -48H159L61 50V119H195V83L218 60H338L361 83V136L337 164H135L40 259V394L95 447L55 487V602L153 700H388L486 602V533H352V569L329 592H208L185 569V512L209
488H408L506 390V262ZM353 270L376 293V358L352 382H193L170 359V294L194 270H353Z" />
<glyph unicode="&#xa8;" glyph-name="dieresis" horiz-adv-x="399" d="M18 590V648L57 687H124L162 647V591L124 551H57L18 590ZM238 591V647L276 687H343L382 648V590L343 551H276L238 591Z" />
<glyph unicode="&#xa9;" glyph-name="copyright" horiz-adv-x="838" d="M40 193V507L233 700H605L798 507V193L605 0H233L40 193ZM558 102L690 234V466L558 598H280L148 466V234L280 102H558ZM216 265V435L328 547L513 548L624 437V377H518V406L477 447H373L328
402V298L373 253H477L518 294V327H624V264L514 153H328L216 265Z" />
<glyph unicode="&#xaa;" glyph-name="ordfeminine" horiz-adv-x="428" d="M35 421V489L105 560H276V597L262 611H162L152 601V582H38V619L119 700H306L388 618V351H290V398L235 351H105L35 421ZM240 435L276 467V490H161L147 476V449L161 435H240Z" />
<glyph unicode="&#xab;" glyph-name="guillemotleft" horiz-adv-x="571" d="M20 225V313L273 506V368L144 272V266L273 170V32L20 225ZM278 225V313L531 506V368L402 272V266L531 170V32L278 225Z" />
<glyph unicode="&#xac;" glyph-name="logicalnot" horiz-adv-x="561" d="M389 294H40V406H521V146H389V294Z" />
<glyph unicode="&#xad;" glyph-name="uni00AD" horiz-adv-x="432" d="M40 314H392V200H40V314Z" />
<glyph unicode="&#xae;" glyph-name="registered" horiz-adv-x="557" d="M40 381V604L162 726H395L517 604V381L395 259H162L40 381ZM363 336L433 406V579L363 649H194L124 579V406L194 336H363ZM185 610H338L380 568V495L355 472L381 444V387H313V429L294 449H253V387H185V610ZM302
505L314 517V544L302 556H251V505H302Z" />
<glyph unicode="&#xaf;" glyph-name="overscore" horiz-adv-x="342" d="M1 660H341V554H1V660Z" />
<glyph unicode="&#xb0;" glyph-name="degree" horiz-adv-x="362" d="M40 535V647L119 726H243L322 647V535L243 456H119L40 535ZM204 541L231 568V614L204 641H158L131 614V568L158 541H204Z" />
<glyph unicode="&#xb1;" glyph-name="plusminus" horiz-adv-x="564" d="M524 420V308H348V164H216V308H40V420H216V574H348V420H524ZM40 112H524V0H40V112Z" />
<glyph unicode="&#xb2;" glyph-name="uni00B2" horiz-adv-x="398" d="M27 377L250 550V582L236 596H163L149 582V542H25V620L105 700H296L376 620V513L193 382V378H378V280H27V377Z" />
<glyph unicode="&#xb3;" glyph-name="uni00B3" horiz-adv-x="431" d="M30 358V421H154V395L167 381H251L265 395V436L254 447H137V535H254L265 547V585L251 599H172L158 585V559H34V622L112 700H313L391 622V522L360 491L391 460V358L314 280H108L30 358Z" />
<glyph unicode="&#xb4;" glyph-name="acute" horiz-adv-x="253" d="M95 713H234L135 544H19L95 713Z" />
<glyph unicode="&#xb6;" glyph-name="paragraph" horiz-adv-x="605" d="M242 279H154L40 393V586L154 700H361V-204H242V279ZM420 700H540V-204H420V700Z" />
<glyph unicode="&#xb7;" glyph-name="middot" horiz-adv-x="238" d="M40 247V311L83 354H156L198 310V248L156 204H83L40 247Z" />
<glyph unicode="&#xb8;" glyph-name="cedilla" horiz-adv-x="279" d="M27 -150H145L157 -138V-112L145 -100H46V-69L93 54H187L151 -34H203L253 -84V-172L201 -224H27V-150Z" />
<glyph unicode="&#xb9;" glyph-name="uni00B9" horiz-adv-x="292" d="M116 566L20 519V633L142 700H242V280H116V566Z" />
<glyph unicode="&#xba;" glyph-name="ordmasculine" horiz-adv-x="427" d="M35 429V622L113 700H314L392 622V429L314 351H113L35 429ZM258 446L277 466V585L258 605H170L150 585V466L170 446H258Z" />
<glyph unicode="&#xbb;" glyph-name="guillemotright" horiz-adv-x="571" d="M40 170L169 266V272L40 368V506L293 313V225L40 32V170ZM298 170L427 266V272L298 368V506L551 313V225L298 32V170Z" />
<glyph unicode="&#xbc;" glyph-name="onequarter" horiz-adv-x="873" d="M656 66H447V168L637 420H782V170H833V66H782V0H656V66ZM668 164V299H666L573 172V164H668ZM685 700L284 0H148L549 700H685ZM136 566L40 519V633L162 700H262V280H136V566Z" />
<glyph unicode="&#xbd;" glyph-name="onehalf" horiz-adv-x="921" d="M685 700L284 0H148L549 700H685ZM136 566L40 519V633L162 700H262V280H136V566ZM530 97L753 270V302L739 316H666L652 302V262H528V340L608 420H799L879 340V233L696 102V98H881V0H530V97Z" />
<glyph unicode="&#xbe;" glyph-name="threequarters" horiz-adv-x="973" d="M40 358V421H164V395L177 381H261L275 395V436L264 447H147V535H264L275 547V585L261 599H182L168 585V559H44V622L122 700H323L401 622V522L370 491L401 460V358L324 280H118L40 358ZM756
66H547V168L737 420H882V170H933V66H882V0H756V66ZM768 164V299H766L673 172V164H768ZM785 700L384 0H248L649 700H785Z" />
<glyph unicode="&#xbf;" glyph-name="questiondown" horiz-adv-x="562" d="M365 455V395L322 352H254L211 395V455L254 498H322L365 455ZM354 184L174 10V-35L225 -86H356L403 -39V18H537V-80L415 -202H166L40 -76V50L222 226V307H354V184Z" />
<glyph unicode="&#xc0;" glyph-name="Agrave" horiz-adv-x="646" d="M261 700H385L641 0H503L446 155H200L143 0H5L261 700ZM416 267L323 533H321L231 267H416ZM161 915H300L376 746H260L161 915Z" />
<glyph unicode="&#xc1;" glyph-name="Aacute" horiz-adv-x="646" d="M261 700H385L641 0H503L446 155H200L143 0H5L261 700ZM416 267L323 533H321L231 267H416ZM339 915H478L379 746H263L339 915Z" />
<glyph unicode="&#xc2;" glyph-name="Acircumflex" horiz-adv-x="646" d="M261 700H385L641 0H503L446 155H200L143 0H5L261 700ZM416 267L323 533H321L231 267H416ZM270 907H376L518 746H391L326 821H320L255 746H128L270 907Z" />
<glyph unicode="&#xc3;" glyph-name="Atilde" horiz-adv-x="646" d="M261 700H385L641 0H503L446 155H200L143 0H5L261 700ZM416 267L323 533H321L231 267H416ZM280 808H258L245 796V763L149 762V833L218 902H302L366 850H389L401 862V896H497V825L428 756H344L280 808Z" />
<glyph unicode="&#xc4;" glyph-name="Adieresis" horiz-adv-x="646" d="M261 700H385L641 0H503L446 155H200L143 0H5L261 700ZM416 267L323 533H321L231 267H416ZM141 792V850L180 889H247L285 849V793L247 753H180L141 792ZM361 793V849L399 889H466L505 850V792L466
753H399L361 793Z" />
<glyph unicode="&#xc5;" glyph-name="Aring" horiz-adv-x="646" d="M261 700H385L641 0H503L446 155H200L143 0H5L261 700ZM416 267L323 533H321L231 267H416ZM199 815V913L268 982H378L447 913V815L378 746H268L199 815ZM345 821L369 845V883L345 907H301L277
883V845L301 821H345Z" />
<glyph unicode="&#xc6;" glyph-name="AE" horiz-adv-x="957" d="M564 582V410H893V294H564V118H922V0H428V179H220L142 0H0L313 700H922V582H564ZM428 293V582H395L269 293H428Z" />
<glyph unicode="&#xc7;" glyph-name="Ccedilla" horiz-adv-x="655" d="M489 480V537L442 584H242L191 533V167L242 116H442L489 163V220H625V113L512 0H379L365 -34H417L467 -84V-172L415 -224H241V-150H359L371 -138V-112L359 -100H260V-69L286 0H170L55 115V585L170
700H512L625 587V480H489Z" />
<glyph unicode="&#xc8;" glyph-name="Egrave" horiz-adv-x="606" d="M65 700H571V585H201V408H542V295H201V115H571V0H65V700ZM169 915H308L384 746H268L169 915Z" />
<glyph unicode="&#xc9;" glyph-name="Eacute" horiz-adv-x="606" d="M65 700H571V585H201V408H542V295H201V115H571V0H65V700ZM340 915H479L380 746H264L340 915Z" />
<glyph unicode="&#xca;" glyph-name="Ecircumflex" horiz-adv-x="606" d="M65 700H571V585H201V408H542V295H201V115H571V0H65V700ZM271 907H377L519 746H392L327 821H321L256 746H129L271 907Z" />
<glyph unicode="&#xcb;" glyph-name="Edieresis" horiz-adv-x="606" d="M65 700H571V585H201V408H542V295H201V115H571V0H65V700ZM142 792V850L181 889H248L286 849V793L248 753H181L142 792ZM362 793V849L400 889H467L506 850V792L467 753H400L362 793Z" />
<glyph unicode="&#xcc;" glyph-name="Igrave" horiz-adv-x="276" d="M70 700H206V0H70V700ZM-24 915H115L191 746H75L-24 915Z" />
<glyph unicode="&#xcd;" glyph-name="Iacute" horiz-adv-x="276" d="M70 700H206V0H70V700ZM154 915H293L194 746H78L154 915Z" />
<glyph unicode="&#xce;" glyph-name="Icircumflex" horiz-adv-x="276" d="M70 700H206V0H70V700ZM85 907H191L333 746H206L141 821H135L70 746H-57L85 907Z" />
<glyph unicode="&#xcf;" glyph-name="Idieresis" horiz-adv-x="276" d="M70 700H206V0H70V700ZM-44 792V850L-5 889H62L100 849V793L62 753H-5L-44 792ZM176 793V849L214 889H281L320 850V792L281 753H214L176 793Z" />
<glyph unicode="&#xd0;" glyph-name="Eth" horiz-adv-x="738" d="M683 580V120L563 0H115V292H10V410H115V700H563L683 580ZM547 533L496 584H251V410H405V292H251V116H496L547 167V533Z" />
<glyph unicode="&#xd1;" glyph-name="Ntilde" horiz-adv-x="697" d="M65 700H187L499 225H501V700H632V0H510L198 474H196V0H65V700ZM306 808H284L271 796V763L175 762V833L244 902H328L392 850H415L427 862V896H523V825L454 756H370L306 808Z" />
<glyph unicode="&#xd2;" glyph-name="Ograve" horiz-adv-x="700" d="M55 115V585L170 700H530L645 585V115L530 0H170L55 115ZM458 116L509 167V533L458 584H242L191 533V167L242 116H458ZM188 915H327L403 746H287L188 915Z" />
<glyph unicode="&#xd3;" glyph-name="Oacute" horiz-adv-x="700" d="M55 115V585L170 700H530L645 585V115L530 0H170L55 115ZM458 116L509 167V533L458 584H242L191 533V167L242 116H458ZM366 915H505L406 746H290L366 915Z" />
<glyph unicode="&#xd4;" glyph-name="Ocircumflex" horiz-adv-x="700" d="M55 115V585L170 700H530L645 585V115L530 0H170L55 115ZM458 116L509 167V533L458 584H242L191 533V167L242 116H458ZM297 907H403L545 746H418L353 821H347L282 746H155L297 907Z" />
<glyph unicode="&#xd5;" glyph-name="Otilde" horiz-adv-x="700" d="M55 115V585L170 700H530L645 585V115L530 0H170L55 115ZM458 116L509 167V533L458 584H242L191 533V167L242 116H458ZM307 808H285L272 796V763L176 762V833L245 902H329L393 850H416L428 862V896H524V825L455
756H371L307 808Z" />
<glyph unicode="&#xd6;" glyph-name="Odieresis" horiz-adv-x="700" d="M55 115V585L170 700H530L645 585V115L530 0H170L55 115ZM458 116L509 167V533L458 584H242L191 533V167L242 116H458ZM168 792V850L207 889H274L312 849V793L274 753H207L168 792ZM388 793V849L426
889H493L532 850V792L493 753H426L388 793Z" />
<glyph unicode="&#xd7;" glyph-name="multiply" horiz-adv-x="508" d="M336 264L468 132L386 50L254 182L122 50L40 132L172 264L40 396L122 478L254 346L386 478L468 396L336 264Z" />
<glyph unicode="&#xd8;" glyph-name="Oslash" horiz-adv-x="700" d="M609 621L645 585V115L530 0H170L146 24L96 -40H-13L84 86L55 115V585L170 700H530L547 683L592 740H701L609 621ZM191 223L465 577L458 584H242L191 533V223ZM509 492L228 130L242 116H458L509
167V492Z" />
<glyph unicode="&#xd9;" glyph-name="Ugrave" horiz-adv-x="700" d="M65 120V700H201V167L252 116H448L499 167V700H635V120L515 0H185L65 120ZM198 915H337L413 746H297L198 915Z" />
<glyph unicode="&#xda;" glyph-name="Uacute" horiz-adv-x="700" d="M65 120V700H201V167L252 116H448L499 167V700H635V120L515 0H185L65 120ZM366 915H505L406 746H290L366 915Z" />
<glyph unicode="&#xdb;" glyph-name="Ucircumflex" horiz-adv-x="700" d="M65 120V700H201V167L252 116H448L499 167V700H635V120L515 0H185L65 120ZM297 907H403L545 746H418L353 821H347L282 746H155L297 907Z" />
<glyph unicode="&#xdc;" glyph-name="Udieresis" horiz-adv-x="700" d="M65 120V700H201V167L252 116H448L499 167V700H635V120L515 0H185L65 120ZM168 792V850L207 889H274L312 849V793L274 753H207L168 792ZM388 793V849L426 889H493L532 850V792L493 753H426L388 793Z" />
<glyph unicode="&#xdd;" glyph-name="Yacute" horiz-adv-x="634" d="M249 286L0 700H149L316 413H318L485 700H634L385 286V0H249V286ZM333 915H472L373 746H257L333 915Z" />
<glyph unicode="&#xde;" glyph-name="Thorn" horiz-adv-x="646" d="M611 473V228L503 119H201V0H65V700H201V581H504L611 473ZM477 432L442 467H201V233H442L477 268V432Z" />
<glyph unicode="&#xdf;" glyph-name="germandbls" horiz-adv-x="655" d="M65 595L168 698H437L540 595V475L457 385V365L463 359H539L635 263V98L537 0H349L251 98V170H381V133L404 110H480L503 133V225L479 249H400L325 324V400L408 494V558L380 586H225L197
558V0H65V595Z" />
<glyph unicode="&#xe0;" glyph-name="agrave" horiz-adv-x="575" d="M45 92V206L137 298H390V361L359 392H209L179 361V333H49V390L156 498H413L520 390V0H401V71L327 0H137L45 92ZM318 102L390 171V204H202L175 177V127L200 102H318ZM143 713H282L358 544H242L143 713Z" />
<glyph unicode="&#xe1;" glyph-name="aacute" horiz-adv-x="575" d="M45 92V206L137 298H390V361L359 392H209L179 361V333H49V390L156 498H413L520 390V0H401V71L327 0H137L45 92ZM318 102L390 171V204H202L175 177V127L200 102H318ZM306 713H445L346 544H230L306 713Z" />
<glyph unicode="&#xe2;" glyph-name="acircumflex" horiz-adv-x="575" d="M45 92V206L137 298H390V361L359 392H209L179 361V333H49V390L156 498H413L520 390V0H401V71L327 0H137L45 92ZM318 102L390 171V204H202L175 177V127L200 102H318ZM237 705H343L485 544H358L293
619H287L222 544H95L237 705Z" />
<glyph unicode="&#xe3;" glyph-name="atilde" horiz-adv-x="575" d="M45 92V206L137 298H390V361L359 392H209L179 361V333H49V390L156 498H413L520 390V0H401V71L327 0H137L45 92ZM318 102L390 171V204H202L175 177V127L200 102H318ZM247 606H225L212 594V561L116
560V631L185 700H269L333 648H356L368 660V694H464V623L395 554H311L247 606Z" />
<glyph unicode="&#xe4;" glyph-name="adieresis" horiz-adv-x="575" d="M45 92V206L137 298H390V361L359 392H209L179 361V333H49V390L156 498H413L520 390V0H401V71L327 0H137L45 92ZM318 102L390 171V204H202L175 177V127L200 102H318ZM108 590V648L147 687H214L252
647V591L214 551H147L108 590ZM328 591V647L366 687H433L472 648V590L433 551H366L328 591Z" />
<glyph unicode="&#xe5;" glyph-name="aring" horiz-adv-x="575" d="M45 92V206L137 298H390V361L359 392H209L179 361V333H49V390L156 498H413L520 390V0H401V71L327 0H137L45 92ZM318 102L390 171V204H202L175 177V127L200 102H318ZM166 613V711L235 780H345L414
711V613L345 544H235L166 613ZM312 619L336 643V681L312 705H268L244 681V643L268 619H312Z" />
<glyph unicode="&#xe6;" glyph-name="ae" horiz-adv-x="915" d="M527 206V143L560 110H706L737 141V171H869V106L763 0H505L440 66L374 0H137L45 92V206L137 298H390V361L359 392H209L179 361V333H49V390L156 498H407L461 444L515 498H761L870 390V206H527ZM527
298H738V357L705 390H560L527 357V298ZM395 204H202L175 177V127L200 102H330L395 167V204Z" />
<glyph unicode="&#xe7;" glyph-name="ccedilla" horiz-adv-x="558" d="M396 302V351L361 386H217L182 351V147L217 112H361L396 147V196H528V104L425 0H333L319 -34H371L421 -84V-172L369 -224H195V-150H313L325 -138V-112L313 -100H214V-69L240 0H151L50 102V396L151
498H425L528 394V302H396Z" />
<glyph unicode="&#xe8;" glyph-name="egrave" horiz-adv-x="583" d="M50 102V394L153 498H434L538 394V205H182V141L214 108H377L407 139V165H537V100L438 0H151L50 102ZM406 297V355L372 390H216L182 355V297H406ZM133 713H272L348 544H232L133 713Z" />
<glyph unicode="&#xe9;" glyph-name="eacute" horiz-adv-x="583" d="M50 102V394L153 498H434L538 394V205H182V141L214 108H377L407 139V165H537V100L438 0H151L50 102ZM406 297V355L372 390H216L182 355V297H406ZM311 713H450L351 544H235L311 713Z" />
<glyph unicode="&#xea;" glyph-name="ecircumflex" horiz-adv-x="583" d="M50 102V394L153 498H434L538 394V205H182V141L214 108H377L407 139V165H537V100L438 0H151L50 102ZM406 297V355L372 390H216L182 355V297H406ZM242 705H348L490 544H363L298 619H292L227
544H100L242 705Z" />
<glyph unicode="&#xeb;" glyph-name="edieresis" horiz-adv-x="583" d="M50 102V394L153 498H434L538 394V205H182V141L214 108H377L407 139V165H537V100L438 0H151L50 102ZM406 297V355L372 390H216L182 355V297H406ZM113 590V648L152 687H219L257 647V591L219
551H152L113 590ZM333 591V647L371 687H438L477 648V590L438 551H371L333 591Z" />
<glyph unicode="&#xec;" glyph-name="igrave" horiz-adv-x="272" d="M70 498H202V0H70V498ZM-26 713H113L189 544H73L-26 713Z" />
<glyph unicode="&#xed;" glyph-name="iacute" horiz-adv-x="272" d="M70 498H202V0H70V498ZM152 713H291L192 544H76L152 713Z" />
<glyph unicode="&#xee;" glyph-name="icircumflex" horiz-adv-x="272" d="M70 498H202V0H70V498ZM83 705H189L331 544H204L139 619H133L68 544H-59L83 705Z" />
<glyph unicode="&#xef;" glyph-name="idieresis" horiz-adv-x="272" d="M70 498H202V0H70V498ZM-46 590V648L-7 687H60L98 647V591L60 551H-7L-46 590ZM174 591V647L212 687H279L318 648V590L279 551H212L174 591Z" />
<glyph unicode="&#xf0;" glyph-name="eth" horiz-adv-x="617" d="M507 579L562 505V108L454 0H158L50 108V340L158 448H367L428 396V485L403 519L310 465L265 544L348 592L339 604H197V700H418L453 653L542 704L587 625L507 579ZM428 264L349 334H219L184 299V153L219
118H393L428 153V264Z" />
<glyph unicode="&#xf1;" glyph-name="ntilde" horiz-adv-x="592" d="M60 498H182V415L265 498H426L537 387V0H405V351L371 386H287L192 290V0H60V498ZM259 606H237L224 594V561L128 560V631L197 700H281L345 648H368L380 660V694H476V623L407 554H323L259 606Z" />
<glyph unicode="&#xf2;" glyph-name="ograve" horiz-adv-x="592" d="M50 104V394L153 498H439L542 394V104L439 0H153L50 104ZM375 110L410 145V353L375 388H217L182 353V145L217 110H375ZM135 713H274L350 544H234L135 713Z" />
<glyph unicode="&#xf3;" glyph-name="oacute" horiz-adv-x="592" d="M50 104V394L153 498H439L542 394V104L439 0H153L50 104ZM375 110L410 145V353L375 388H217L182 353V145L217 110H375ZM313 713H452L353 544H237L313 713Z" />
<glyph unicode="&#xf4;" glyph-name="ocircumflex" horiz-adv-x="592" d="M50 104V394L153 498H439L542 394V104L439 0H153L50 104ZM375 110L410 145V353L375 388H217L182 353V145L217 110H375ZM244 705H350L492 544H365L300 619H294L229 544H102L244 705Z" />
<glyph unicode="&#xf5;" glyph-name="otilde" horiz-adv-x="592" d="M50 104V394L153 498H439L542 394V104L439 0H153L50 104ZM375 110L410 145V353L375 388H217L182 353V145L217 110H375ZM254 606H232L219 594V561L123 560V631L192 700H276L340 648H363L375 660V694H471V623L402
554H318L254 606Z" />
<glyph unicode="&#xf6;" glyph-name="odieresis" horiz-adv-x="592" d="M50 104V394L153 498H439L542 394V104L439 0H153L50 104ZM375 110L410 145V353L375 388H217L182 353V145L217 110H375ZM115 590V648L154 687H221L259 647V591L221 551H154L115 590ZM335 591V647L373
687H440L479 648V590L440 551H373L335 591Z" />
<glyph unicode="&#xf7;" glyph-name="divide" horiz-adv-x="564" d="M211 402V456L251 496H313L353 456V402L313 362H251L211 402ZM40 320H524V208H40V320ZM210 72V126L250 166H312L352 126V72L312 32H250L210 72Z" />
<glyph unicode="&#xf8;" glyph-name="oslash" horiz-adv-x="592" d="M501 436L542 394V104L439 0H163L132 -40H23L97 56L50 104V394L153 498H439L440 497L471 538H580L501 436ZM182 165L355 388H217L182 353V165ZM410 319L248 110H375L410 145V319Z" />
<glyph unicode="&#xf9;" glyph-name="ugrave" horiz-adv-x="591" d="M55 105V498H187V146L221 112H301L399 210V498H531V0H409V85L323 0H160L55 105ZM129 713H268L344 544H228L129 713Z" />
<glyph unicode="&#xfa;" glyph-name="uacute" horiz-adv-x="591" d="M55 105V498H187V146L221 112H301L399 210V498H531V0H409V85L323 0H160L55 105ZM309 713H448L349 544H233L309 713Z" />
<glyph unicode="&#xfb;" glyph-name="ucircumflex" horiz-adv-x="591" d="M55 105V498H187V146L221 112H301L399 210V498H531V0H409V85L323 0H160L55 105ZM240 705H346L488 544H361L296 619H290L225 544H98L240 705Z" />
<glyph unicode="&#xfc;" glyph-name="udieresis" horiz-adv-x="591" d="M55 105V498H187V146L221 112H301L399 210V498H531V0H409V85L323 0H160L55 105ZM111 590V648L150 687H217L255 647V591L217 551H150L111 590ZM331 591V647L369 687H436L475 648V590L436 551H369L331
591Z" />
<glyph unicode="&#xfd;" glyph-name="yacute" horiz-adv-x="593" d="M533 498V-114L425 -221H163L70 -129V-61H202V-91L221 -111H367L401 -76V74L327 0H162L55 108V498H187V147L221 112H308L401 211V498H533ZM311 713H450L351 544H235L311 713Z" />
<glyph unicode="&#xfe;" glyph-name="thorn" horiz-adv-x="602" d="M60 710H192V437L255 498H449L552 394V104L449 0H256L192 53V-212H60V710ZM385 112L420 147V351L385 386H272L192 305V183L271 112H385Z" />
<glyph unicode="&#xff;" glyph-name="ydieresis" horiz-adv-x="593" d="M533 498V-114L425 -221H163L70 -129V-61H202V-91L221 -111H367L401 -76V74L327 0H162L55 108V498H187V147L221 112H308L401 211V498H533ZM113 590V648L152 687H219L257 647V591L219 551H152L113
590ZM333 591V647L371 687H438L477 648V590L438 551H371L333 591Z" />
<glyph unicode="&#x2013;" glyph-name="endash" horiz-adv-x="637" d="M40 314H597V200H40V314Z" />
<glyph unicode="&#x2014;" glyph-name="emdash" horiz-adv-x="751" d="M40 314H711V200H40V314Z" />
<glyph unicode="&#x2018;" glyph-name="quoteleft" horiz-adv-x="234" d="M132 566H154L197 523V459L154 416H79L37 460V566L94 700H172L132 566Z" />
<glyph unicode="&#x2019;" glyph-name="quoteright" horiz-adv-x="234" d="M103 550H81L38 593V657L81 700H156L198 656V550L141 416H63L103 550Z" />
<glyph unicode="&#x201a;" glyph-name="quotesinglbase" horiz-adv-x="234" d="M103 0H81L38 43V107L81 150H156L198 106V0L141 -134H63L103 0Z" />
<glyph unicode="&#x201c;" glyph-name="quotedblleft" horiz-adv-x="441" d="M132 566H154L197 523V459L154 416H79L37 460V566L94 700H172L132 566ZM339 566H361L404 523V459L361 416H286L244 460V566L301 700H379L339 566Z" />
<glyph unicode="&#x201d;" glyph-name="quotedblright" horiz-adv-x="441" d="M103 550H81L38 593V657L81 700H156L198 656V550L141 416H63L103 550ZM310 550H288L245 593V657L288 700H363L405 656V550L348 416H270L310 550Z" />
<glyph unicode="&#x201e;" glyph-name="quotedblbase" horiz-adv-x="441" d="M103 0H81L38 43V107L81 150H156L198 106V0L141 -134H63L103 0ZM310 0H288L245 43V107L288 150H363L405 106V0L348 -134H270L310 0Z" />
<glyph unicode="&#x2022;" glyph-name="bullet" horiz-adv-x="304" d="M40 242V339L101 402H203L264 339V242L203 179H101L40 242Z" />
<glyph unicode="&#x2039;" glyph-name="guilsinglleft" horiz-adv-x="313" d="M20 225V313L273 506V368L144 272V266L273 170V32L20 225Z" />
<glyph unicode="&#x203a;" glyph-name="guilsinglright" horiz-adv-x="313" d="M40 170L169 266V272L40 368V506L293 313V225L40 32V170Z" />
</font>
</defs>
</svg>
